SplineFontDB: 3.0
FontName: Mertz-Light
FullName: Mertz-Light
FamilyName: Mertz
Weight: Light
Copyright: vernon adams
Version: 1 
ItalicAngle: 0
UnderlinePosition: 0
UnderlineWidth: 0
Ascent: 1638
Descent: 410
UFOAscent: 1241
UFODescent: -512
LayerCount: 2
Layer: 0 0 "Back"  1
Layer: 1 0 "Fore"  0
FSType: 0
OS2Version: 0
OS2_WeightWidthSlopeOnly: 0
OS2_UseTypoMetrics: 0
<<<<<<< HEAD
CreationTime: 1337892746
ModificationTime: 1337952631
=======
CreationTime: 1337806380
ModificationTime: 1337807918
>>>>>>> 7255645dac4ba5f910ba611d9d4612a8db436e23
PfmFamily: 0
TTFWeight: 800
TTFWidth: 5
LineGap: 0
VLineGap: 0
Panose: 2 0 3 3 0 0 0 0 0 0
OS2TypoAscent: 1536
OS2TypoAOffset: 0
OS2TypoDescent: -512
OS2TypoDOffset: 0
OS2TypoLinegap: 0
OS2WinAscent: 1536
OS2WinAOffset: 0
OS2WinDescent: 512
OS2WinDOffset: 0
HheadAscent: 1536
HheadAOffset: 0
HheadDescent: -512
HheadDOffset: 0
OS2SubXSize: 700
OS2SubYSize: 650
OS2SubXOff: 0
OS2SubYOff: 140
OS2SupXSize: 700
OS2SupYSize: 650
OS2SupXOff: 0
OS2SupYOff: 477
OS2StrikeYSize: 50
OS2StrikeYPos: 250
OS2Vendor: 'newt'
OS2CodePages: 00000001.00000000
OS2UnicodeRanges: 00000027.00000000.00000000.00000000
Lookup: 260 0 0 "'mark' Mark Positioning lookup 1"  {"'mark' Mark Positioning lookup 1-1"  } ['mark' ('DFLT' <'dflt' > 'grek' <'dflt' > 'latn' <'dflt' > ) ]
Lookup: 258 0 0 "'kern' Horizontal Kerning in Latin lookup 0"  {"'kern' Horizontal Kerning in Latin lookup 0 subtable"  } ['kern' ('latn' <'dflt' > ) ]
MarkAttachClasses: 1
DEI: 91125
LangName: 1033 "" "" "" "newt : Mertz-Light : 19-5-2012" "" "Version 1 " "" "" "" "" "" "" "" "" "http://scripts.sil.org/OFL" 
<<<<<<< HEAD
PickledData: "(dp1
S'com.typemytype.robofont.compileSettings.autohint'
p2
I01
sS'com.typemytype.robofont.compileSettings.decompose'
p3
I01
sS'com.typemytype.robofont.foreground.layerStrokeColor'
p4
(F0.5
F0
F0.5
F0.69999999999999996
tp5
sS'com.typemytype.robofont.compileSettings.releaseMode'
p6
I00
sS'com.typemytype.robofont.shouldAddPointsInSplineConversion'
p7
I00

StartChar: .notdef
Encoding: 256 -1 0
Width: 1024
VWidth: 0
Flags: W
LayerCount: 2
Fore
SplineSet
102 0 m 1
 922 0 l 1
 922 1024 l 1
 102 1024 l 1
 102 0 l 1
204 102 m 1
 204 922 l 1
 820 922 l 1
 820 102 l 1
 204 102 l 1
EndSplineSet
EndChar

StartChar: A
<<<<<<< HEAD
Encoding: 33 65 1
Width: 1284
VWidth: 0
Flags: HW
PickledData: "(dp1
S'com.typemytype.robofont.layerData'
p2
(dp3
S'back'
p4
(dp5
S'name'
p6
S'A'
sS'lib'
p7
(dp8
sS'unicodes'
p9
(tsS'width'
p10
I1284
sS'contours'
p11
((dp12
S'points'
p13
((dp14
S'segmentType'
p15
S'line'
p16
sS'x'
F1108
sS'smooth'
p17
I00
sS'y'
F0
s(dp18
g15
S'line'
p19
sS'x'
F1237
sg17
I00
sS'y'
F0
s(dp20
g15
S'line'
p21
sS'x'
F1370
sg17
I00
sS'y'
F299
s(dp22
g15
S'line'
p23
sS'x'
F1946
sg17
I00
sS'y'
F299
s(dp24
g15
S'line'
p25
sS'x'
F2093
sg17
I00
sS'y'
F0
s(dp26
g15
S'line'
p27
sS'x'
F2258
sg17
I00
sS'y'
F0
s(dp28
g15
S'line'
p29
sS'x'
F1672
sg17
I00
sS'y'
F1259
stp30
s(dp31
g13
((dp32
g15
S'line'
p33
sS'x'
F1409
sg17
I00
sS'y'
F392
s(dp34
g15
S'line'
p35
sS'x'
F1671
sg17
I00
sS'y'
F1009
s(dp36
g15
S'line'
p37
sS'x'
F1919
sg17
I00
sS'y'
F392
stp38
stp39
sS'components'
p40
(tsS'anchors'
p41
(tsss."
AnchorPoint: "bot" 1173 0 basechar 0
AnchorPoint: "top" 687 1274 basechar 0
=======
Encoding: 257 65 1
Width: 1284
VWidth: 0
Flags: W
AnchorPoint: "bot" 1173.5 0.199951 basechar 0
AnchorPoint: "top" 683 1320.1 basechar 0
>>>>>>> 7255645dac4ba5f910ba611d9d4612a8db436e23
LayerCount: 2
Fore
SplineSet
130 0 m 1
 259 0 l 1
 392 299 l 1
 973 299 l 1
 1110 0 l 1
 1237 0 l 1
 686 1259 l 1
 130 0 l 1
431 392 m 1
 685 1009 l 1
 946 392 l 1
 431 392 l 1
EndSplineSet
<<<<<<< HEAD
EndChar

StartChar: AE
Encoding: 130 198 2
Width: 1518
VWidth: 0
Flags: HW
PickledData: "(dp1
S'com.typemytype.robofont.layerData'
p2
(dp3
S'back'
p4
(dp5
S'name'
p6
S'AE'
p7
sS'lib'
p8
(dp9
sS'unicodes'
p10
(tsS'width'
p11
I1518
sS'contours'
p12
(tsS'components'
p13
(tsS'anchors'
p14
(tsss."
LayerCount: 2
Fore
SplineSet
130 0 m 1
 259 0 l 1
 392 299 l 1
 721 299 l 1
 719 100 l 1
 783 100 l 1
 686 1242 l 1
 130 0 l 1
431 392 m 1
 685 992 l 1
 716 392 l 1
 431 392 l 1
EndSplineSet
Refer: 10 69 N 1 0 0 1 487 0 2
EndChar

StartChar: AE
Encoding: 258 198 2
Width: 1518
VWidth: 0
Flags: HW
LayerCount: 2
Fore
SplineSet
130 0 m 1
 259 0 l 1
 392 299 l 1
 721 299 l 1
 719 100 l 1
 783 100 l 1
 686 1242 l 1
 130 0 l 1
431 392 m 1
 685 992 l 1
 716 392 l 1
 431 392 l 1
EndSplineSet
Refer: 10 69 N 1 0 0 1 487 0 2
EndChar

StartChar: B
<<<<<<< HEAD
Encoding: 34 66 6
=======
Encoding: 262 66 6
>>>>>>> 7255645dac4ba5f910ba611d9d4612a8db436e23
Width: 1079
VWidth: 0
Flags: HW
AnchorPoint: "top" 683 1320.1 basechar 0
LayerCount: 2
Fore
SplineSet
161 0 m 1
 511 0 l 2
 840 0 998 109 998 354 c 0
 998 531 836 651 701 676 c 1
 859 712 919 842 919 938 c 0
 919 1130 799 1241 473 1241 c 2
 161 1241 l 1
 161 0 l 1
289 106 m 1
 289 622 l 1
 484 622 l 2
 723 622 876 520 876 351 c 0
 876 176 764 106 503 106 c 2
 289 106 l 1
289 728 m 1
 289 1136 l 1
 468 1136 l 2
 674 1136 806 1103 806 940 c 0
 806 726 582 728 471 728 c 2
 289 728 l 1
EndSplineSet
EndChar

StartChar: C
<<<<<<< HEAD
Encoding: 35 67 7
Width: 1287
VWidth: 0
Flags: HW
PickledData: "(dp1
S'com.typemytype.robofont.layerData'
p2
(dp3
S'back'
p4
(dp5
S'name'
p6
S'C'
sS'lib'
p7
(dp8
sS'unicodes'
p9
(tsS'width'
p10
I1287
sS'contours'
p11
((dp12
S'points'
p13
((dp14
S'segmentType'
p15
S'curve'
p16
sS'x'
F653
sS'smooth'
p17
I01
sS'y'
F1168
s(dp18
S'y'
F1168
sS'x'
F938
sg17
I00
s(dp19
S'y'
F994
sS'x'
F1191
sg17
I00
s(dp20
g15
S'curve'
p21
sS'x'
F1191
sg17
I01
sS'y'
F618
s(dp22
S'y'
F246
sS'x'
F1191
sg17
I00
s(dp23
S'y'
F72
sS'x'
F911
sg17
I00
s(dp24
g15
S'curve'
p25
sS'x'
F653
sg17
I01
sS'y'
F72
s(dp26
S'y'
F72
sS'x'
F379
sg17
I00
s(dp27
S'y'
F245
sS'x'
F118
sg17
I00
s(dp28
g15
S'curve'
p29
sS'x'
F118
sg17
I01
sS'y'
F619
s(dp30
S'y'
F994
sS'x'
F118
sg17
I00
s(dp31
S'y'
F1168
sS'x'
F366
sg17
I00
stp32
s(dp33
g13
((dp34
g15
S'curve'
p35
sS'x'
F654
sg17
I01
sS'y'
F-34
s(dp36
S'y'
F-34
sS'x'
F992
sg17
I00
s(dp37
S'y'
F182
sS'x'
F1321
sg17
I00
s(dp38
g15
S'curve'
p39
sS'x'
F1321
sg17
I01
sS'y'
F623
s(dp40
S'y'
F1058
sS'x'
F1321
sg17
I00
s(dp41
S'y'
F1274
sS'x'
F992
sg17
I00
s(dp42
g15
S'curve'
p43
sS'x'
F653
sg17
I01
sS'y'
F1274
s(dp44
S'y'
F1274
sS'x'
F316
sg17
I00
s(dp45
S'y'
F1058
sS'x'
F-12
sg17
I00
s(dp46
g15
S'curve'
p47
sS'x'
F-12
sg17
I01
sS'y'
F619
s(dp48
S'y'
F182
sS'x'
F-12
sg17
I00
s(dp49
S'y'
F-34
sS'x'
F316
sg17
I00
stp50
stp51
sS'components'
p52
(tsS'anchors'
p53
(tsss."
AnchorPoint: "bot" 791 0 basechar 0
AnchorPoint: "top" 777 1274 basechar 0
=======
Encoding: 263 67 7
Width: 1287
VWidth: 0
Flags: HW
AnchorPoint: "bot" 663.5 0.199951 basechar 0
AnchorPoint: "top" 663 1320.1 basechar 0
>>>>>>> 7255645dac4ba5f910ba611d9d4612a8db436e23
LayerCount: 2
Fore
SplineSet
776 -34 m 4
 948 -34 1106 24 1175 57 c 5
 1175 170 l 5
 1065 114 910 72 785 72 c 4
 455 72 229 270 229 622 c 4
 229 976 457 1168 778 1168 c 4
 924 1168 1064 1121 1175 1064 c 5
 1175 1169 l 5
 1110 1208 950 1274 778 1274 c 4
 388 1274 100 1030 100 622 c 4
 100 216 380 -34 776 -34 c 4
EndSplineSet
EndChar

StartChar: D
<<<<<<< HEAD
Encoding: 36 68 9
Width: 1398
VWidth: 0
Flags: HW
PickledData: "(dp1
S'com.typemytype.robofont.layerData'
p2
(dp3
S'back'
p4
(dp5
S'name'
p6
S'D'
sS'lib'
p7
(dp8
sS'unicodes'
p9
(tsS'width'
p10
I1398
sS'contours'
p11
((dp12
S'points'
p13
((dp14
S'segmentType'
p15
S'curve'
p16
sS'x'
F654
sS'smooth'
p17
I01
sS'y'
F-34
s(dp18
S'y'
F-34
sS'x'
F992
sg17
I00
s(dp19
S'y'
F182
sS'x'
F1321
sg17
I00
s(dp20
g15
S'curve'
p21
sS'x'
F1321
sg17
I01
sS'y'
F623
s(dp22
S'y'
F1058
sS'x'
F1321
sg17
I00
s(dp23
S'y'
F1274
sS'x'
F992
sg17
I00
s(dp24
g15
S'curve'
p25
sS'x'
F653
sg17
I01
sS'y'
F1274
s(dp26
S'y'
F1274
sS'x'
F316
sg17
I00
s(dp27
S'y'
F1058
sS'x'
F-12
sg17
I00
s(dp28
g15
S'curve'
p29
sS'x'
F-12
sg17
I01
sS'y'
F619
s(dp30
S'y'
F182
sS'x'
F-12
sg17
I00
s(dp31
S'y'
F-34
sS'x'
F316
sg17
I00
stp32
s(dp33
g13
((dp34
g15
S'curve'
p35
sS'x'
F653
sg17
I01
sS'y'
F1168
s(dp36
S'y'
F1168
sS'x'
F938
sg17
I00
s(dp37
S'y'
F994
sS'x'
F1191
sg17
I00
s(dp38
g15
S'curve'
p39
sS'x'
F1191
sg17
I01
sS'y'
F618
s(dp40
S'y'
F246
sS'x'
F1191
sg17
I00
s(dp41
S'y'
F72
sS'x'
F911
sg17
I00
s(dp42
g15
S'curve'
p43
sS'x'
F653
sg17
I01
sS'y'
F72
s(dp44
S'y'
F72
sS'x'
F379
sg17
I00
s(dp45
S'y'
F245
sS'x'
F118
sg17
I00
s(dp46
g15
S'curve'
p47
sS'x'
F118
sg17
I01
sS'y'
F619
s(dp48
S'y'
F994
sS'x'
F118
sg17
I00
s(dp49
S'y'
F1168
sS'x'
F366
sg17
I00
stp50
stp51
sS'components'
p52
(tsS'anchors'
p53
(tsss."
AnchorPoint: "top" 708 1274 basechar 0
=======
Encoding: 265 68 9
Width: 1398
VWidth: 0
Flags: HW
AnchorPoint: "top" 683 1320.1 basechar 0
>>>>>>> 7255645dac4ba5f910ba611d9d4612a8db436e23
LayerCount: 2
Fore
SplineSet
161 0 m 1
 643 0 l 2
 1067 0 1298 296 1298 628 c 0
 1298 991 1086 1241 673 1241 c 2
 161 1241 l 1
 161 0 l 1
289 106 m 1
 289 1135 l 1
 675 1135 l 2
 970 1135 1169 986 1169 624 c 0
 1169 324 953 106 625 106 c 2
 289 106 l 1
EndSplineSet
EndChar

StartChar: E
<<<<<<< HEAD
Encoding: 37 69 10
Width: 973
VWidth: 0
Flags: HW
PickledData: "(dp1
S'com.typemytype.robofont.layerData'
p2
(dp3
S'back'
p4
(dp5
S'name'
p6
S'E'
sS'lib'
p7
(dp8
sS'unicodes'
p9
(tsS'width'
p10
I973
sS'contours'
p11
((dp12
S'points'
p13
((dp14
S'segmentType'
p15
S'line'
p16
sS'x'
F198
sS'smooth'
p17
I00
sS'y'
F0
s(dp18
g15
S'line'
p19
sS'x'
F931
sg17
I00
sS'y'
F0
s(dp20
g15
S'line'
p21
sS'x'
F931
sg17
I00
sS'y'
F117
s(dp22
g15
S'line'
p23
sS'x'
F349
sg17
I00
sS'y'
F117
s(dp24
g15
S'line'
p25
sS'x'
F349
sg17
I00
sS'y'
F584
s(dp26
g15
S'line'
p27
sS'x'
F850
sg17
I00
sS'y'
F584
s(dp28
g15
S'line'
p29
sS'x'
F850
sg17
I00
sS'y'
F701
s(dp30
g15
S'line'
p31
sS'x'
F351
sg17
I00
sS'y'
F701
s(dp32
g15
S'line'
p33
sS'x'
F351
sg17
I00
sS'y'
F1122
s(dp34
g15
S'line'
p35
sS'x'
F919
sg17
I00
sS'y'
F1122
s(dp36
g15
S'line'
p37
sS'x'
F919
sg17
I00
sS'y'
F1239
s(dp38
g15
S'line'
p39
sS'x'
F198
sg17
I00
sS'y'
F1239
stp40
stp41
sS'components'
p42
(tsS'anchors'
p43
(tsss."
AnchorPoint: "bot" 743 0 basechar 0
AnchorPoint: "top" 585 1274 basechar 0
=======
Encoding: 266 69 10
Width: 973
VWidth: 0
Flags: HW
AnchorPoint: "bot" 783.5 0.199951 basechar 0
AnchorPoint: "top" 593 1320.1 basechar 0
>>>>>>> 7255645dac4ba5f910ba611d9d4612a8db436e23
LayerCount: 2
Fore
SplineSet
198 0 m 1
 928 0 l 1
 928 106 l 1
 324 106 l 1
 324 588 l 1
 855 588 l 1
 855 694 l 1
 326 694 l 1
 326 1135 l 1
 918 1135 l 1
 918 1241 l 1
 198 1241 l 1
 198 0 l 1
EndSplineSet
EndChar

StartChar: Eth
Encoding: 270 208 14
Width: 1402
VWidth: 0
Flags: HW
LayerCount: 2
Fore
SplineSet
664 578 m 1
 664 677 l 1
 0 677 l 1
 0 578 l 1
 664 578 l 1
EndSplineSet
Refer: 9 68 N 1 0 0 1 0 0 2
EndChar

StartChar: F
Encoding: 271 70 15
Width: 931
VWidth: 0
Flags: W
>>>>>>> 7255645dac4ba5f910ba611d9d4612a8db436e23
LayerCount: 2
Fore
SplineSet
198 0 m 1
 326 0 l 1
 326 619 l 1
 756 619 l 1
 756 725 l 1
 326 725 l 1
 326 1135 l 1
 822 1135 l 1
 822 1241 l 1
 198 1241 l 1
 198 0 l 1
EndSplineSet
<<<<<<< HEAD
EndChar

StartChar: G
Encoding: 272 71 16
Width: 1384
VWidth: 0
Flags: HW
AnchorPoint: "bot" 783.5 0.199951 basechar 0
AnchorPoint: "top" 783 1320.1 basechar 0
>>>>>>> 7255645dac4ba5f910ba611d9d4612a8db436e23
LayerCount: 2
Fore
SplineSet
759 -34 m 0
 1029 -34 1159 29 1287 102 c 1
 1287 660 l 1
 806 660 l 1
 806 555 l 1
 1168 555 l 1
 1168 158 l 1
 1168 158 1024 72 778 72 c 0
 502 72 230 241 230 621 c 0
 230 992 477 1168 781 1168 c 0
 908 1168 1046 1137 1179 1077 c 1
 1179 1187 l 1
 1111 1216 943 1274 771 1274 c 0
 404 1274 100 1025 100 621 c 0
 100 190 440 -34 759 -34 c 0
EndSplineSet
EndChar

StartChar: H
<<<<<<< HEAD
Encoding: 40 72 17
Width: 1344
VWidth: 0
Flags: HW
PickledData: "(dp1
S'com.typemytype.robofont.layerData'
p2
(dp3
S'back'
p4
(dp5
S'name'
p6
S'H'
sS'lib'
p7
(dp8
sS'unicodes'
p9
(tsS'width'
p10
I1344
sS'contours'
p11
((dp12
S'points'
p13
((dp14
S'segmentType'
p15
S'line'
p16
sS'x'
F1098
sS'smooth'
p17
I00
sS'y'
F0
s(dp18
g15
S'line'
p19
sS'x'
F1098
sg17
I00
sS'y'
F1121
s(dp20
g15
S'line'
p21
sS'x'
F970
sg17
I00
sS'y'
F1121
s(dp22
g15
S'line'
p23
sS'x'
F970
sg17
I00
sS'y'
F645
s(dp24
g15
S'line'
p25
sS'x'
F289
sg17
I00
sS'y'
F645
s(dp26
g15
S'line'
p27
sS'x'
F289
sg17
I00
sS'y'
F1121
s(dp28
g15
S'line'
p29
sS'x'
F161
sg17
I00
sS'y'
F1121
s(dp30
g15
S'line'
p31
sS'x'
F161
sg17
I00
sS'y'
F0
s(dp32
g15
S'line'
p33
sS'x'
F289
sg17
I00
sS'y'
F0
s(dp34
g15
S'line'
p35
sS'x'
F289
sg17
I00
sS'y'
F546
s(dp36
g15
S'line'
p37
sS'x'
F970
sg17
I00
sS'y'
F546
s(dp38
g15
S'line'
p39
sS'x'
F970
sg17
I00
sS'y'
F0
stp40
stp41
sS'components'
p42
(tsS'anchors'
p43
(tsss."
AnchorPoint: "top" 706 1274 basechar 0
=======
Encoding: 273 72 17
Width: 1344
VWidth: 0
Flags: HW
AnchorPoint: "top" 683 1320.1 basechar 0
>>>>>>> 7255645dac4ba5f910ba611d9d4612a8db436e23
LayerCount: 2
Fore
SplineSet
161 0 m 1
 289 0 l 1
 289 603 l 1
 1055 603 l 1
 1055 0 l 1
 1183 0 l 1
 1183 1241 l 1
 1055 1241 l 1
 1055 704 l 1
 289 704 l 1
 289 1241 l 1
 161 1241 l 1
 161 0 l 1
EndSplineSet
EndChar

StartChar: I
<<<<<<< HEAD
Encoding: 41 73 18
Width: 586
VWidth: 0
Flags: HW
PickledData: "(dp1
S'com.typemytype.robofont.layerData'
p2
(dp3
S'back'
p4
(dp5
S'name'
p6
S'I'
sS'lib'
p7
(dp8
sS'unicodes'
p9
(tsS'width'
p10
I586
sS'contours'
p11
(tsS'components'
p12
(tsS'anchors'
p13
(tsss."
AnchorPoint: "bot" 321 0 basechar 0
AnchorPoint: "top" 325 1274 basechar 0
=======
Encoding: 274 73 18
Width: 586
VWidth: 0
Flags: HW
AnchorPoint: "bot" 328.5 0.199951 basechar 0
AnchorPoint: "top" 328 1320.1 basechar 0
>>>>>>> 7255645dac4ba5f910ba611d9d4612a8db436e23
LayerCount: 2
Fore
SplineSet
258 0 m 1
 386 0 l 1
 386 1241 l 1
 258 1241 l 1
 258 0 l 1
EndSplineSet
EndChar

StartChar: J
<<<<<<< HEAD
Encoding: 42 74 19
Width: 988
VWidth: 0
Flags: HW
PickledData: "(dp1
S'com.typemytype.robofont.layerData'
p2
(dp3
S'back'
p4
(dp5
S'name'
p6
S'J'
sS'lib'
p7
(dp8
sS'unicodes'
p9
(tsS'width'
p10
I988
sS'contours'
p11
(tsS'components'
p12
(tsS'anchors'
p13
(tsss."
AnchorPoint: "top" 675 1274 basechar 0
=======
Encoding: 275 74 19
Width: 988
VWidth: 0
Flags: HW
AnchorPoint: "top" 683 1320.1 basechar 0
>>>>>>> 7255645dac4ba5f910ba611d9d4612a8db436e23
LayerCount: 2
Fore
SplineSet
409 -16 m 0
 670 -16 753 124 753 446 c 2
 753 1242 l 1
 625 1242 l 1
 625 429 l 2
 625 166 546 88 409 88 c 0
 342 88 271 106 173 151 c 1
 173 47 l 1
 204 31 292 -16 409 -16 c 0
EndSplineSet
EndChar

StartChar: K
<<<<<<< HEAD
Encoding: 43 75 20
Width: 1105
VWidth: 0
Flags: HW
PickledData: "(dp1
S'com.typemytype.robofont.layerData'
p2
(dp3
S'back'
p4
(dp5
S'name'
p6
S'K'
sS'lib'
p7
(dp8
sS'unicodes'
p9
(tsS'width'
p10
I1105
sS'contours'
p11
(tsS'components'
p12
(tsS'anchors'
p13
(tsss."
AnchorPoint: "bot" 553 0 basechar 0
AnchorPoint: "top" 585 1274 basechar 0
=======
Encoding: 276 75 20
Width: 1105
VWidth: 0
Flags: HW
AnchorPoint: "bot" 603.5 0.199951 basechar 0
AnchorPoint: "top" 573 1320.1 basechar 0
>>>>>>> 7255645dac4ba5f910ba611d9d4612a8db436e23
LayerCount: 2
Fore
SplineSet
161 0 m 1
 289 0 l 1
 289 618 l 1
 922 0 l 1
 1083 0 l 1
 424 642 l 1
 1036 1241 l 1
 879 1241 l 1
 289 668 l 1
 289 1241 l 1
 161 1241 l 1
 161 0 l 1
EndSplineSet
<<<<<<< HEAD
EndChar

StartChar: L
Encoding: 277 76 21
Width: 1009
VWidth: 0
Flags: HW
AnchorPoint: "bot" 583.5 0.199951 basechar 0
AnchorPoint: "top" 603 1320.1 basechar 0
>>>>>>> 7255645dac4ba5f910ba611d9d4612a8db436e23
LayerCount: 2
Fore
SplineSet
198 0 m 1
 871 0 l 1
 871 106 l 1
 326 106 l 1
 326 1241 l 1
 198 1241 l 1
 198 0 l 1
EndSplineSet
<<<<<<< HEAD
EndChar

StartChar: M
Encoding: 278 77 22
Width: 1697
VWidth: 0
Flags: HW
AnchorPoint: "top" 850 1320.1 basechar 0
>>>>>>> 7255645dac4ba5f910ba611d9d4612a8db436e23
LayerCount: 2
Fore
SplineSet
849 28 m 1
 1333 902 l 1
 1472 0 l 1
 1603 0 l 1
 1399 1275 l 1
 848 266 l 1
 298 1275 l 1
 94 0 l 1
 225 0 l 1
 364 902 l 1
 849 28 l 1
EndSplineSet
EndChar

StartChar: N
<<<<<<< HEAD
Encoding: 46 78 23
Width: 1367
VWidth: 0
Flags: HW
PickledData: "(dp1
S'com.typemytype.robofont.layerData'
p2
(dp3
S'back'
p4
(dp5
S'name'
p6
S'N'
sS'lib'
p7
(dp8
sS'unicodes'
p9
(tsS'width'
p10
I1367
sS'contours'
p11
(tsS'components'
p12
(tsS'anchors'
p13
(tsss."
AnchorPoint: "top" 679 1274 basechar 0
=======
Encoding: 279 78 23
Width: 1367
VWidth: 0
Flags: HW
AnchorPoint: "top" 683 1320.1 basechar 0
>>>>>>> 7255645dac4ba5f910ba611d9d4612a8db436e23
LayerCount: 2
Fore
SplineSet
1206 -31 m 1
 1206 1241 l 1
 1078 1241 l 1
 1078 270 l 1
 161 1263 l 1
 161 0 l 1
 289 0 l 1
 289 956 l 1
 1206 -31 l 1
EndSplineSet
EndChar

StartChar: O
<<<<<<< HEAD
Encoding: 47 79 24
Width: 1533
VWidth: 0
Flags: HW
PickledData: "(dp1
S'com.typemytype.robofont.guides'
p2
((dp3
S'angle'
p4
I0
sS'name'
p5
NsS'magnetic'
p6
I5
sS'isGlobal'
p7
I00
sS'y'
I619
sS'x'
I287
s(dp8
g4
F90
sg5
Nsg6
I5
sg7
I00
sS'y'
I1284
sS'x'
I797
stp9
sS'com.typemytype.robofont.layerData'
p10
(dp11
S'back'
p12
(dp13
g5
S'O'
sS'lib'
p14
(dp15
sS'unicodes'
p16
(tsS'width'
p17
I1533
sS'contours'
p18
((dp19
S'points'
p20
((dp21
S'segmentType'
p22
S'curve'
p23
sS'x'
F766
sS'smooth'
p24
I01
sS'y'
F1169
s(dp25
S'y'
F1169
sS'x'
F1026
sg24
I00
s(dp26
S'y'
F996
sS'x'
F1244
sg24
I00
s(dp27
g22
S'curve'
p28
sS'x'
F1244
sg24
I01
sS'y'
F678
s(dp29
S'y'
F363
sS'x'
F1244
sg24
I00
s(dp30
S'y'
F193
sS'x'
F1025
sg24
I00
s(dp31
g22
S'curve'
p32
sS'x'
F765
sg24
I01
sS'y'
F193
s(dp33
S'y'
F193
sS'x'
F506
sg24
I00
s(dp34
S'y'
F362
sS'x'
F288
sg24
I00
s(dp35
g22
S'curve'
p36
sS'x'
F288
sg24
I01
sS'y'
F679
s(dp37
S'y'
F996
sS'x'
F288
sg24
I00
s(dp38
S'y'
F1169
sS'x'
F505
sg24
I00
stp39
s(dp40
g20
((dp41
g22
S'curve'
p42
sS'x'
F765
sg24
I01
sS'y'
F85
s(dp43
S'y'
F85
sS'x'
F1072
sg24
I00
s(dp44
S'y'
F281
sS'x'
F1372
sg24
I00
s(dp45
g22
S'curve'
p46
sS'x'
F1372
sg24
I01
sS'y'
F682
s(dp47
S'y'
F1078
sS'x'
F1372
sg24
I00
s(dp48
S'y'
F1274
sS'x'
F1072
sg24
I00
s(dp49
g22
S'curve'
p50
sS'x'
F764
sg24
I01
sS'y'
F1274
s(dp51
S'y'
F1274
sS'x'
F457
sg24
I00
s(dp52
S'y'
F1078
sS'x'
F158
sg24
I00
s(dp53
g22
S'curve'
p54
sS'x'
F158
sg24
I01
sS'y'
F679
s(dp55
S'y'
F281
sS'x'
F158
sg24
I00
s(dp56
S'y'
F85
sS'x'
F457
sg24
I00
stp57
stp58
sS'components'
p59
(tsS'anchors'
p60
(tsss."
AnchorPoint: "bot" 773 0 basechar 0
AnchorPoint: "top" 770 1274 basechar 0
=======
Encoding: 280 79 24
Width: 1533
VWidth: 0
Flags: HW
AnchorPoint: "bot" 772.5 0.199951 basechar 0
AnchorPoint: "top" 773 1320.1 basechar 0
>>>>>>> 7255645dac4ba5f910ba611d9d4612a8db436e23
LayerCount: 2
Fore
SplineSet
765 72 m 0
 491 72 230 245 230 619 c 0
 230 994 478 1168 765 1168 c 0
 1050 1168 1303 994 1303 618 c 0
 1303 246 1023 72 765 72 c 0
766 -34 m 0
 1104 -34 1433 182 1433 623 c 0
 1433 1058 1104 1274 765 1274 c 0
 428 1274 100 1058 100 619 c 0
 100 182 428 -34 766 -34 c 0
EndSplineSet
EndChar

StartChar: Oslash
<<<<<<< HEAD
Encoding: 148 216 25
Width: 1533
VWidth: 0
Flags: HW
PickledData: "(dp1
S'com.typemytype.robofont.layerData'
p2
(dp3
S'back'
p4
(dp5
S'name'
p6
S'Oslash'
p7
sS'lib'
p8
(dp9
sS'unicodes'
p10
(tsS'width'
p11
I1533
sS'contours'
p12
(tsS'components'
p13
(tsS'anchors'
p14
(tsss."
=======
Encoding: 281 216 25
Width: 1533
VWidth: 0
Flags: HW
>>>>>>> 7255645dac4ba5f910ba611d9d4612a8db436e23
LayerCount: 2
Fore
SplineSet
385 -83 m 1
 1250 1274 l 1
 1184 1315 l 1
 319 -42 l 1
 385 -83 l 1
EndSplineSet
Refer: 24 79 N 1 0 0 1 0 0 2
EndChar

StartChar: P
<<<<<<< HEAD
Encoding: 48 80 26
=======
Encoding: 282 80 26
>>>>>>> 7255645dac4ba5f910ba611d9d4612a8db436e23
Width: 1063
VWidth: 0
Flags: W
LayerCount: 2
Fore
SplineSet
217 0 m 1
 345 0 l 1
 345 525 l 1
 534 525 l 2
 815 525 1013 606 1013 887 c 0
 1013 1127 841 1242 538 1242 c 2
 217 1242 l 1
 217 0 l 1
345 627 m 1
 345 1140 l 1
 543 1140 l 2
 796 1140 885 1032 885 882 c 0
 885 691 754 627 548 627 c 2
 345 627 l 1
EndSplineSet
EndChar

StartChar: Q
<<<<<<< HEAD
Encoding: 49 81 27
Width: 1533
VWidth: 0
Flags: HW
PickledData: "(dp1
S'com.typemytype.robofont.guides'
p2
((dp3
S'angle'
p4
I0
sS'name'
p5
NsS'magnetic'
p6
I5
sS'isGlobal'
p7
I00
sS'y'
I560
sS'x'
I132
s(dp8
g4
F90
sg5
Nsg6
I5
sg7
I00
sS'y'
I-37
sS'x'
I739
stp9
sS'com.typemytype.robofont.layerData'
p10
(dp11
S'back'
p12
(dp13
g5
S'Q'
sS'lib'
p14
(dp15
sS'unicodes'
p16
(tsS'width'
p17
I1533
sS'contours'
p18
(tsS'components'
p19
(tsS'anchors'
p20
(tsss."
=======
Encoding: 283 81 27
Width: 1533
VWidth: 0
Flags: HW
>>>>>>> 7255645dac4ba5f910ba611d9d4612a8db436e23
LayerCount: 2
Fore
SplineSet
1243 -148 m 1
 1352 -64 l 1
 977 267 l 1
 911 193 l 1
 1243 -148 l 1
EndSplineSet
Refer: 24 79 N 1 0 0 1 0 0 2
EndChar

StartChar: R
<<<<<<< HEAD
Encoding: 50 82 28
Width: 1063
VWidth: 0
Flags: HW
PickledData: "(dp1
S'com.typemytype.robofont.layerData'
p2
(dp3
S'back'
p4
(dp5
S'name'
p6
S'R'
sS'lib'
p7
(dp8
sS'unicodes'
p9
(tsS'width'
p10
I1063
sS'contours'
p11
((dp12
S'points'
p13
((dp14
S'segmentType'
p15
S'line'
p16
sS'x'
F345
sS'smooth'
p17
I00
sS'y'
F525
s(dp18
g15
S'line'
p19
sS'x'
F534
sg17
I01
sS'y'
F525
s(dp20
S'y'
F525
sS'x'
F815
sg17
I00
s(dp21
S'y'
F606
sS'x'
F1013
sg17
I00
s(dp22
g15
S'curve'
p23
sS'x'
F1013
sg17
I01
sS'y'
F887
s(dp24
S'y'
F1127
sS'x'
F1013
sg17
I00
s(dp25
S'y'
F1242
sS'x'
F841
sg17
I00
s(dp26
g15
S'curve'
p27
sS'x'
F538
sg17
I01
sS'y'
F1242
s(dp28
g15
S'line'
p29
sS'x'
F217
sg17
I00
sS'y'
F1242
s(dp30
g15
S'line'
p31
sS'x'
F217
sg17
I00
sS'y'
F0
s(dp32
g15
S'line'
p33
sS'x'
F345
sg17
I00
sS'y'
F0
stp34
s(dp35
g13
((dp36
g15
S'curve'
p37
sS'x'
F885
sg17
I01
sS'y'
F882
s(dp38
S'y'
F691
sS'x'
F885
sg17
I00
s(dp39
S'y'
F627
sS'x'
F754
sg17
I00
s(dp40
g15
S'curve'
p41
sS'x'
F548
sg17
I01
sS'y'
F627
s(dp42
g15
S'line'
p43
sS'x'
F345
sg17
I00
sS'y'
F627
s(dp44
g15
S'line'
p45
sS'x'
F345
sg17
I00
sS'y'
F1140
s(dp46
g15
S'line'
p47
sS'x'
F543
sg17
I01
sS'y'
F1140
s(dp48
S'y'
F1140
sS'x'
F796
sg17
I00
s(dp49
S'y'
F1032
sS'x'
F885
sg17
I00
stp50
s(dp51
g13
((dp52
g15
S'line'
p53
sS'x'
F541
sg17
I00
sS'y'
F559
s(dp54
g15
S'line'
p55
sS'x'
F423
sg17
I00
sS'y'
F531
s(dp56
g15
S'line'
p57
sS'x'
F879
sg17
I00
sS'y'
F0
s(dp58
g15
S'line'
p59
sS'x'
F1038
sg17
I00
sS'y'
F0
stp60
stp61
sS'components'
p62
(tsS'anchors'
p63
(tsss."
AnchorPoint: "bot" 613 0 basechar 0
AnchorPoint: "top" 560 1274 basechar 0
=======
Encoding: 284 82 28
Width: 1063
VWidth: 0
Flags: HW
AnchorPoint: "top" 593 1320.1 basechar 0
>>>>>>> 7255645dac4ba5f910ba611d9d4612a8db436e23
LayerCount: 2
Fore
SplineSet
217 0 m 1
 345 0 l 1
 345 575 l 1
 388 575 l 1
 881 0 l 1
 1038 0 l 1
 528 576 l 1
 785 584 971 667 971 913 c 0
 971 1134 803 1241 500 1241 c 2
 217 1241 l 1
 217 0 l 1
345 677 m 1
 345 1140 l 1
 505 1140 l 2
 758 1140 843 1058 843 908 c 0
 843 717 688 677 460 677 c 2
 345 677 l 1
EndSplineSet
EndChar

StartChar: S
<<<<<<< HEAD
Encoding: 51 83 29
Width: 956
VWidth: 0
Flags: HW
PickledData: "(dp1
S'com.typemytype.robofont.layerData'
p2
(dp3
S'back'
p4
(dp5
S'name'
p6
S'S'
sS'lib'
p7
(dp8
sS'unicodes'
p9
(tsS'width'
p10
I956
sS'contours'
p11
((dp12
S'points'
p13
((dp14
S'segmentType'
p15
S'curve'
p16
sS'x'
F528
sS'smooth'
p17
I01
sS'y'
F-34
s(dp18
S'y'
F-34
sS'x'
F866
sg17
I00
s(dp19
S'y'
F182
sS'x'
F1195
sg17
I00
s(dp20
g15
S'curve'
p21
sS'x'
F1195
sg17
I01
sS'y'
F623
s(dp22
S'y'
F1058
sS'x'
F1195
sg17
I00
s(dp23
S'y'
F1274
sS'x'
F866
sg17
I00
s(dp24
g15
S'curve'
p25
sS'x'
F527
sg17
I01
sS'y'
F1274
s(dp26
S'y'
F1274
sS'x'
F190
sg17
I00
s(dp27
S'y'
F1058
sS'x'
F-138
sg17
I00
s(dp28
g15
S'curve'
p29
sS'x'
F-138
sg17
I01
sS'y'
F619
s(dp30
S'y'
F182
sS'x'
F-138
sg17
I00
s(dp31
S'y'
F-34
sS'x'
F190
sg17
I00
stp32
s(dp33
g13
((dp34
g15
S'curve'
p35
sS'x'
F527
sg17
I01
sS'y'
F1168
s(dp36
S'y'
F1168
sS'x'
F812
sg17
I00
s(dp37
S'y'
F994
sS'x'
F1065
sg17
I00
s(dp38
g15
S'curve'
p39
sS'x'
F1065
sg17
I01
sS'y'
F618
s(dp40
S'y'
F246
sS'x'
F1065
sg17
I00
s(dp41
S'y'
F72
sS'x'
F785
sg17
I00
s(dp42
g15
S'curve'
p43
sS'x'
F527
sg17
I01
sS'y'
F72
s(dp44
S'y'
F72
sS'x'
F253
sg17
I00
s(dp45
S'y'
F245
sS'x'
F-8
sg17
I00
s(dp46
g15
S'curve'
p47
sS'x'
F-8
sg17
I01
sS'y'
F619
s(dp48
S'y'
F994
sS'x'
F-8
sg17
I00
s(dp49
S'y'
F1168
sS'x'
F240
sg17
I00
stp50
stp51
sS'components'
p52
(tsS'anchors'
p53
(tsss."
AnchorPoint: "bot" 503 0 basechar 0
AnchorPoint: "top" 495 1274 basechar 0
=======
Encoding: 285 83 29
Width: 956
VWidth: 0
Flags: HW
AnchorPoint: "bot" 510.5 0.199951 basechar 0
AnchorPoint: "top" 506 1320.1 basechar 0
>>>>>>> 7255645dac4ba5f910ba611d9d4612a8db436e23
LayerCount: 2
Fore
SplineSet
508 -34 m 0
 699 -34 883 63 883 281 c 0
 883 398 825 493 644 607 c 1
 381 770 l 1
 291 827 229 891 229 975 c 0
 229 1082 313 1168 504 1168 c 0
 606 1168 725 1137 818 1088 c 1
 818 1202 l 1
 761 1229 644 1274 490 1274 c 0
 235 1274 106 1136 106 968 c 0
 106 852 191 758 310 685 c 2
 584 515 l 1
 699 445 758 359 758 274 c 0
 758 156 674 73 505 73 c 0
 350 73 235 115 138 180 c 1
 138 69 l 1
 193 36 306 -34 508 -34 c 0
EndSplineSet
<<<<<<< HEAD
EndChar

StartChar: T
Encoding: 286 84 30
Width: 1122
VWidth: 0
Flags: HW
AnchorPoint: "bot" 565.5 1.19995 basechar 0
AnchorPoint: "top" 561 1320.1 basechar 0
>>>>>>> 7255645dac4ba5f910ba611d9d4612a8db436e23
LayerCount: 2
Fore
SplineSet
493 0 m 1
 621 0 l 1
 621 1135 l 1
 1016 1135 l 1
 1016 1241 l 1
 98 1241 l 1
 98 1135 l 1
 493 1135 l 1
 493 0 l 1
EndSplineSet
<<<<<<< HEAD
EndChar

StartChar: Thorn
Encoding: 287 222 31
Width: 1063
VWidth: 0
Flags: W
>>>>>>> 7255645dac4ba5f910ba611d9d4612a8db436e23
LayerCount: 2
Fore
SplineSet
217 0 m 1
 345 0 l 1
 345 291 l 1
 534 291 l 2
 815 291 1013 372 1013 653 c 0
 1013 893 841 1007 538 1007 c 2
 345 1007 l 1
 345 1241 l 1
 217 1241 l 1
 217 0 l 1
345 393 m 1
 345 905 l 1
 543 905 l 2
 796 905 885 798 885 648 c 0
 885 457 754 393 548 393 c 2
 345 393 l 1
EndSplineSet
EndChar

StartChar: U
<<<<<<< HEAD
Encoding: 53 85 32
Width: 1402
VWidth: 0
Flags: HW
PickledData: "(dp1
S'com.typemytype.robofont.layerData'
p2
(dp3
S'back'
p4
(dp5
S'name'
p6
S'U'
sS'lib'
p7
(dp8
sS'unicodes'
p9
(tsS'width'
p10
I1402
sS'contours'
p11
(tsS'components'
p12
(tsS'anchors'
p13
(tsss."
AnchorPoint: "bot" 695 0 basechar 0
AnchorPoint: "top" 709 1274 basechar 0
=======
Encoding: 288 85 32
Width: 1402
VWidth: 0
Flags: HW
AnchorPoint: "bot" 783.5 0.199951 basechar 0
AnchorPoint: "top" 704 1320.1 basechar 0
>>>>>>> 7255645dac4ba5f910ba611d9d4612a8db436e23
LayerCount: 2
Fore
SplineSet
690 -33 m 0
 1007 -33 1238 142 1238 493 c 2
 1238 1241 l 1
 1110 1241 l 1
 1110 480 l 2
 1110 193 941 73 690 73 c 0
 439 73 270 193 270 480 c 2
 270 1241 l 1
 142 1241 l 1
 142 493 l 2
 142 142 373 -33 690 -33 c 0
EndSplineSet
EndChar

StartChar: V
<<<<<<< HEAD
Encoding: 54 86 33
=======
Encoding: 289 86 33
>>>>>>> 7255645dac4ba5f910ba611d9d4612a8db436e23
Width: 1264
VWidth: 0
Flags: W
LayerCount: 2
Fore
SplineSet
644 -18 m 1
 1211 1241 l 1
 1068 1241 l 1
 643 268 l 1
 190 1241 l 1
 53 1241 l 1
 644 -18 l 1
EndSplineSet
<<<<<<< HEAD
EndChar

StartChar: W
Encoding: 55 87 34
Width: 1757
VWidth: 0
Flags: HW
PickledData: "(dp1
S'com.typemytype.robofont.layerData'
p2
(dp3
S'back'
p4
(dp5
S'name'
p6
S'W'
sS'lib'
p7
(dp8
sS'unicodes'
p9
(tsS'width'
p10
I1757
sS'contours'
p11
(tsS'components'
p12
(tsS'anchors'
p13
(tsss."
AnchorPoint: "top" 785 1274 basechar 0
LayerCount: 2
Fore
SplineSet
453 -20 m 1
 788 901 l 1
 1158 -19 l 1
 1637 1241 l 1
 1494 1241 l 1
 1152 300 l 1
 786 1222 l 1
 446 300 l 1
 76 1241 l 1
 -61 1241 l 1
 453 -20 l 1
EndSplineSet
EndChar

StartChar: W
Encoding: 290 87 34
Width: 1757
VWidth: 0
Flags: HW
AnchorPoint: "top" 872.5 1320.1 basechar 0
LayerCount: 2
Fore
SplineSet
876.5 1222 m 1
 536.5 300 l 1
 166.5 1241 l 1
 29.5 1241 l 1
 543.5 -20 l 1
 878.5 901 l 1
 1248.5 -19 l 1
 1727.5 1241 l 1
 1584.5 1241 l 1
 1242.5 300 l 1
 876.5 1222 l 1
EndSplineSet
EndChar

StartChar: X
Encoding: 291 88 35
>>>>>>> 7255645dac4ba5f910ba611d9d4612a8db436e23
Width: 1519
VWidth: 0
Flags: W
LayerCount: 2
Fore
SplineSet
1350 0 m 1
 1502 0 l 1
 354 1241 l 1
 211 1241 l 1
 1350 0 l 1
207 0 m 1
 369 0 l 1
 1450 1241 l 1
 1293 1241 l 1
 207 0 l 1
EndSplineSet
EndChar

StartChar: Y
<<<<<<< HEAD
Encoding: 57 89 36
Width: 1259
VWidth: 0
Flags: HW
PickledData: "(dp1
S'com.typemytype.robofont.layerData'
p2
(dp3
S'back'
p4
(dp5
S'name'
p6
S'Y'
sS'lib'
p7
(dp8
sS'unicodes'
p9
(tsS'width'
p10
I1259
sS'contours'
p11
(tsS'components'
p12
(tsS'anchors'
p13
(tsss."
AnchorPoint: "top" 635 1274 basechar 0
=======
Encoding: 292 89 36
Width: 1259
VWidth: 0
Flags: HW
AnchorPoint: "top" 643 1320.1 basechar 0
>>>>>>> 7255645dac4ba5f910ba611d9d4612a8db436e23
LayerCount: 2
Fore
SplineSet
570 0 m 1
 698 0 l 1
 698 475 l 1
 1112 1241 l 1
 976 1241 l 1
 636 592 l 1
 272 1241 l 1
 143 1241 l 1
 570 479 l 1
 570 0 l 1
EndSplineSet
<<<<<<< HEAD
EndChar

StartChar: Z
Encoding: 293 90 37
Width: 1059
VWidth: 0
Flags: HW
AnchorPoint: "top" 553 1320.1 basechar 0
>>>>>>> 7255645dac4ba5f910ba611d9d4612a8db436e23
LayerCount: 2
Fore
SplineSet
117 0 m 1
 907 0 l 1
 907 106 l 1
 313 106 l 1
 899 1241 l 1
 150 1241 l 1
 150 1135 l 1
 712 1135 l 1
 117 0 l 1
EndSplineSet
<<<<<<< HEAD
EndChar

StartChar: a
Encoding: 294 97 38
Width: 899
VWidth: 0
Flags: HW
AnchorPoint: "bot" 783.5 0.199951 basechar 0
AnchorPoint: "top" 443 906.1 basechar 0
>>>>>>> 7255645dac4ba5f910ba611d9d4612a8db436e23
LayerCount: 2
Fore
SplineSet
387 79 m 0
 303 79 255 137 255 208 c 0
 255 270 276 340 419 374 c 2
 600 418 l 1
 600 177 l 1
 552 125 472 79 387 79 c 0
368 -16 m 0
 415 -16 510 -15 624 100 c 1
 624 100 661 -7 808 -7 c 1
 807 -7 808 -7 813 -7 c 1
 839 99 l 1
 824 99 l 2
 780 99 728 134 728 209 c 2
 728 572 l 2
 728 760 582 840 439 840 c 0
 303 840 185 790 132 760 c 1
 168 670 l 1
 226 699 325 742 410 742 c 0
 499 742 601 723 601 545 c 2
 601 500 l 1
 433 462 l 2
 140 396 128 266 128 193 c 0
 128 68 233 -16 368 -16 c 0
EndSplineSet
<<<<<<< HEAD
EndChar

StartChar: acute
Encoding: 296 180 40
Width: 443
VWidth: 0
Flags: W
HStem: 86 395
VStem: 73 296
AnchorPoint: "top" 92.5 0.0996094 mark 0
LayerCount: 2
Fore
SplineSet
77 121 m 2
 74 115 73 110 73 106 c 0
 73 94 81 86 91 86 c 0
 98 86 105 90 112 98 c 2
 352 381 l 2
 364 395 369 409 369 422 c 0
 369 454 337 481 304 481 c 0
 282 481 259 469 244 441 c 2
 77 121 l 2
EndSplineSet
EndChar

StartChar: ae
Encoding: 297 230 41
Width: 1514
VWidth: 0
Flags: W
LayerCount: 2
Fore
SplineSet
368 -16 m 0
 482 -16 588 37 693 134 c 1
 766 35 884 -15 1032 -15 c 0
 1161 -15 1217 18 1284 57 c 1
 1284 159 l 1
 1223 126 1171 81 1029 81 c 0
 857 81 745 170 730 388 c 1
 1315 388 l 1
 1315 409 l 2
 1315 633 1227 840 971 840 c 0
 855 840 752 783 689 678 c 1
 639 795 541 840 439 840 c 0
 303 840 185 790 132 760 c 1
 168 670 l 1
 226 699 325 742 410 742 c 0
 499 742 611 723 611 545 c 2
 611 500 l 1
 433 462 l 1
 140 396 128 266 128 193 c 0
 128 68 233 -16 368 -16 c 0
387 79 m 0
 303 79 255 137 255 208 c 0
 255 270 276 337 419 374 c 1
 611 422 l 1
 611 338 626 262 655 199 c 1
 597 148 479 79 387 79 c 0
738 474 m 1
 746 542 768 742 986 742 c 0
 1140 742 1198 614 1207 474 c 1
 738 474 l 1
EndSplineSet
EndChar

StartChar: asterisk
Encoding: 300 42 44
Width: 1029
VWidth: 0
Flags: HW
LayerCount: 2
Fore
SplineSet
727 481 m 1
 812 559 l 1
 573 826 l 1
 899 943 l 1
 857 1048 l 1
 548 895 l 1
 578 1242 l 1
 447 1242 l 1
 478 895 l 1
 170 1048 l 1
 128 943 l 1
 454 826 l 1
 215 559 l 1
 300 481 l 1
 513 780 l 1
 727 481 l 1
EndSplineSet
EndChar

StartChar: at
Encoding: 301 64 45
Width: 1532
VWidth: 0
Flags: HW
LayerCount: 2
Fore
SplineSet
790 -99 m 0
 917 -99 1040 -49 1130 4 c 1
 1130 102 l 1
 1042 50 921 -1 798 -1 c 0
 477 -1 250 186 250 517 c 0
 250 782 360 1065 849 1065 c 0
 1093 1065 1278 922 1278 603 c 0
 1278 391 1192 297 1092 297 c 0
 1013 297 1010 343 1010 408 c 2
 1010 870 l 1
 904 894 l 1
 456 894 440 581 440 477 c 0
 440 352 545 202 680 202 c 0
 727 202 833 205 906 338 c 1
 941 237 992 201 1076 201 c 0
 1259 201 1390 331 1390 603 c 0
 1390 894 1242 1164 849 1164 c 0
 276 1164 142 822 142 517 c 0
 142 119 448 -99 790 -99 c 0
555 475 m 0
 555 551 562 806 882 806 c 1
 882 405 l 1
 843 350 784 297 699 297 c 0
 615 297 555 378 555 475 c 0
EndSplineSet
EndChar

StartChar: b
Encoding: 302 98 46
Width: 1074
VWidth: 0
Flags: HW
AnchorPoint: "top" 567 916.1 basechar 0
>>>>>>> 7255645dac4ba5f910ba611d9d4612a8db436e23
LayerCount: 2
Fore
SplineSet
91 116 m 4
 98 116 105 120 112 128 c 6
 352 411 l 6
 364 425 369 439 369 452 c 4
 369 484 337 511 304 511 c 4
 282 511 259 499 244 471 c 6
 77 151 l 6
 74 145 73 140 73 136 c 4
 73 124 81 116 91 116 c 4
EndSplineSet
<<<<<<< HEAD
EndChar

StartChar: ae
Encoding: 162 230 41
Width: 1514
VWidth: 0
Flags: W
PickledData: "(dp1
S'com.typemytype.robofont.layerData'
p2
(dp3
S'back'
p4
(dp5
S'name'
p6
S'ae'
p7
sS'lib'
p8
(dp9
sS'unicodes'
p10
(tsS'width'
p11
I1514
sS'contours'
p12
(tsS'components'
p13
(tsS'anchors'
p14
(tsss."
LayerCount: 2
Fore
SplineSet
1032 -15 m 0
 1161 -15 1217 18 1284 57 c 1
 1284 159 l 1
 1223 126 1171 81 1029 81 c 0
 857 81 745 170 730 388 c 1
 1315 388 l 1
 1315 409 l 2
 1315 633 1227 840 971 840 c 0
 855 840 752 783 689 678 c 1
 639 795 541 840 439 840 c 0
 303 840 185 790 132 760 c 1
 168 670 l 1
 226 699 325 742 410 742 c 0
 499 742 611 723 611 545 c 2
 611 500 l 1
 433 462 l 1
 140 396 128 266 128 193 c 0
 128 68 233 -16 368 -16 c 0
 482 -16 588 37 693 134 c 1
 766 35 884 -15 1032 -15 c 0
387 79 m 0
 303 79 255 137 255 208 c 0
 255 270 276 337 419 374 c 1
 611 422 l 1
 611 338 626 262 655 199 c 1
 597 148 479 79 387 79 c 0
738 474 m 1
 746 542 768 742 986 742 c 0
 1140 742 1198 614 1207 474 c 1
 738 474 l 1
EndSplineSet
EndChar

StartChar: bracketleft
Encoding: 303 91 47
Width: 816
VWidth: 0
Flags: HW
LayerCount: 2
Fore
SplineSet
279 -8 m 1
 279 1135 l 1
 674 1135 l 1
 674 1241 l 1
 151 1241 l 1
 151 -114 l 1
 674 -114 l 1
 674 -8 l 1
 279 -8 l 1
EndSplineSet
EndChar

StartChar: breve
Encoding: 304 728 48
Width: 726
VWidth: 0
Flags: HW
AnchorPoint: "top" 363.5 0 mark 0
LayerCount: 2
Fore
SplineSet
363 178 m 0
 481 178 505 289 505 289 c 1
 583 271 l 1
 583 271 561 91 363 91 c 0
 165 91 143 271 143 271 c 1
 221 289 l 1
 221 289 245 178 363 178 c 0
EndSplineSet
EndChar

StartChar: c
Encoding: 305 99 49
Width: 896
VWidth: 0
Flags: HW
AnchorPoint: "bot" 569.5 0.199951 basechar 0
AnchorPoint: "top" 553 916.1 basechar 0
>>>>>>> 7255645dac4ba5f910ba611d9d4612a8db436e23
LayerCount: 2
Fore
SplineSet
556 -33 m 0
 848 -33 1112 215 1192 410 c 1
 1102 457 l 1
 1004 258 790 74 549 74 c 0
 333 74 237 211 237 318 c 0
 237 468.805 318.361 574.592 533 669 c 0
 718.516 750.598 820.137 899.684 820.137 1029.03 c 0
 820.137 1159.95 716.02 1270.64 489.403 1270.64 c 0
 375.46 1270.64 204 1198.75 204 1031 c 0
 204 951 246.396 862.364 360 739 c 2
 1070 -32 l 1
 1145 31 l 1
 420 814 l 2
 340.66 899.687 311 972 311 1029 c 0
 311 1145.72 416.812 1179.46 518.283 1179.46 c 0
 652.305 1179.46 716.121 1112.48 716.121 1024.82 c 0
 716.121 931.226 641.112 818.609 494 753 c 0
 230.424 635.451 126 503.444 126 311 c 0
 126 146 277 -33 556 -33 c 0
EndSplineSet
<<<<<<< HEAD
EndChar

StartChar: asterisk
Encoding: 10 42 45
Width: 1029
VWidth: 0
Flags: HW
PickledData: "(dp1
S'com.typemytype.robofont.layerData'
p2
(dp3
S'back'
p4
(dp5
S'name'
p6
S'asterisk'
p7
sS'lib'
p8
(dp9
sS'unicodes'
p10
(tsS'width'
p11
I1307
sS'contours'
p12
(tsS'components'
p13
(tsS'anchors'
p14
(tsss."
LayerCount: 2
Fore
SplineSet
300 481 m 1
 513 780 l 1
 727 481 l 1
 812 559 l 1
 573 826 l 1
 899 943 l 1
 857 1048 l 1
 548 895 l 1
 578 1242 l 1
 447 1242 l 1
 478 895 l 1
 170 1048 l 1
 128 943 l 1
 454 826 l 1
 215 559 l 1
 300 481 l 1
=======
EndChar

StartChar: caron
Encoding: 306 711 50
Width: 741
VWidth: 0
Flags: HW
AnchorPoint: "top" 374.5 0.200195 mark 0
LayerCount: 2
Fore
SplineSet
370 86 m 0
 395 86 419 104 431 126 c 2
 598 446 l 2
 601 452 602 457 602 461 c 0
 602 473 594 481 584 481 c 0
 577 481 570 477 563 469 c 2
 370 241 l 1
 177 469 l 2
 170 477 163 481 156 481 c 0
 146 481 138 473 138 461 c 0
 138 457 139 452 142 446 c 2
 309 126 l 2
 320 105 345 86 370 86 c 0
EndSplineSet
EndChar

StartChar: cedilla
Encoding: 308 184 52
Width: 478
VWidth: 0
Flags: HW
AnchorPoint: "bot" 292 0.400391 mark 0
LayerCount: 2
Fore
SplineSet
264 -70 m 1
 166 -98 128 -145 128 -193 c 0
 128 -273 234 -356 344 -356 c 1
 353 -308 l 1
 286 -288 225 -229 225 -180 c 0
 225 -147 252 -119 323 -110 c 1
 323 1 l 1
 264 1 l 1
 264 -70 l 1
EndSplineSet
EndChar

StartChar: cent
Encoding: 309 162 53
Width: 894
VWidth: 0
Flags: HW
LayerCount: 2
Fore
SplineSet
585 1009 m 1
 337 -202 l 1
 405 -202 l 1
 655 1009 l 1
 585 1009 l 1
>>>>>>> 7255645dac4ba5f910ba611d9d4612a8db436e23
EndSplineSet
Refer: 49 99 N 1 0 0 1 -10 0 2
EndChar

<<<<<<< HEAD
StartChar: at
Encoding: 32 64 46
Width: 1384
VWidth: 0
Flags: W
PickledData: "(dp1
S'com.typemytype.robofont.layerData'
p2
(dp3
S'back'
p4
(dp5
S'name'
p6
S'at'
p7
sS'lib'
p8
(dp9
sS'unicodes'
p10
(tsS'width'
p11
I1384
sS'contours'
p12
(tsS'components'
p13
(tsS'anchors'
p14
(tsss."
LayerCount: 2
Fore
SplineSet
695 -97 m 0
 911 -97 1102 -9 1192 44 c 1
 1164 130 l 1
 1076 78 903 -1 709 -1 c 0
 388 -1 161 186 161 517 c 0
 161 782 306 1065 737 1065 c 0
 981 1065 1189 922 1189 603 c 0
 1189 391 1107 279 1007 279 c 0
 928 279 921 360 921 458 c 2
 921 889 l 1
 880 893 842 895 807 895 c 0
 357 895 345 573 351 477 c 0
 359 352 441 202 604 202 c 0
 655 202 743 220 810 342 c 1
 838 231 913 200 997 200 c 0
 1144 200 1301 331 1301 603 c 0
 1301 894 1130 1164 737 1164 c 0
 225 1164 53 822 53 517 c 0
 53 119 353 -97 695 -97 c 0
608 290 m 0
 524 290 471 369 463 465 c 0
 453 590 473 812 793 812 c 1
 793 405 l 1
 754 350 693 290 608 290 c 0
EndSplineSet
EndChar

StartChar: b
Encoding: 66 98 47
Width: 1074
VWidth: 0
Flags: W
PickledData: "(dp1
S'com.typemytype.robofont.layerData'
p2
(dp3
S'back'
p4
(dp5
S'name'
p6
S'b'
sS'lib'
p7
(dp8
sS'unicodes'
p9
(tsS'width'
p10
F1074
sS'contours'
p11
(tsS'components'
p12
(tsS'anchors'
p13
(tsss."
LayerCount: 2
Fore
SplineSet
500 -16 m 0
 786 -16 966 154 966 411 c 0
 966 650 811 840 576 840 c 0
 397 840 293 752 293 752 c 1
 293 1242 l 1
 165 1220 l 1
 165 43 l 1
 290 4 405 -16 500 -16 c 0
502 81 m 0
 406 81 332 99 293 108 c 1
 293 657 l 1
 293 657 437 742 562 742 c 0
 766 742 839 569 839 402 c 0
 839 191 694 81 502 81 c 0
EndSplineSet
EndChar

StartChar: backslash
Encoding: 60 92 48
Width: 805
VWidth: 0
Flags: HW
PickledData: "(dp1
S'com.typemytype.robofont.layerData'
p2
(dp3
S'back'
p4
(dp5
S'name'
p6
S'backslash'
p7
sS'lib'
p8
(dp9
sS'unicodes'
p10
(tsS'width'
p11
I0
sS'contours'
p12
(tsS'components'
p13
(tsS'anchors'
p14
(tsss."
LayerCount: 2
Fore
SplineSet
62 0 m 1
 180 0 l 1
 740 1241 l 1
 620 1241 l 1
 62 0 l 1
EndSplineSet
EndChar

StartChar: bar
Encoding: 92 124 49
Width: 435
VWidth: 0
Flags: HW
PickledData: "(dp1
S'com.typemytype.robofont.layerData'
p2
(dp3
S'back'
p4
(dp5
S'name'
p6
S'bar'
p7
sS'lib'
p8
(dp9
sS'unicodes'
p10
(tsS'width'
p11
I597
sS'contours'
p12
(tsS'components'
p13
(tsS'anchors'
p14
(tsss."
LayerCount: 2
Fore
SplineSet
153 -145 m 1
 153 -145 281 -145 281 -144 c 2
 281 1241 l 1
 153 1241 l 1
 153 -145 l 1
EndSplineSet
EndChar

StartChar: bracketleft
Encoding: 59 91 50
Width: 705
VWidth: 0
Flags: HW
PickledData: "(dp1
S'com.typemytype.robofont.layerData'
p2
(dp3
S'back'
p4
(dp5
S'name'
p6
S'bracketleft'
p7
sS'lib'
p8
(dp9
sS'unicodes'
p10
(tsS'width'
p11
I1122
sS'contours'
p12
(tsS'components'
p13
(tsS'anchors'
p14
(tsss."
LayerCount: 2
Fore
SplineSet
150 0 m 1
 563 0 l 1
 563 106 l 1
 278 106 l 1
 278 1135 l 1
 563 1135 l 1
 563 1241 l 1
 150 1241 l 1
 150 0 l 1
EndSplineSet
EndChar

StartChar: bracketright
Encoding: 61 93 51
Width: 705
VWidth: 0
Flags: HW
PickledData: "(dp1
S'com.typemytype.robofont.layerData'
p2
(dp3
S'back'
p4
(dp5
S'name'
p6
S'bracketright'
p7
sS'lib'
p8
(dp9
sS'unicodes'
p10
(tsS'width'
p11
I1122
sS'contours'
p12
(tsS'components'
p13
(tsS'anchors'
p14
(tsss."
LayerCount: 2
Fore
SplineSet
143 0 m 1
 556 0 l 1
 556 1241 l 1
 143 1241 l 1
 143 1135 l 1
 428 1135 l 1
 428 106 l 1
 143 106 l 1
 143 0 l 1
EndSplineSet
EndChar

StartChar: breve
Encoding: 340 728 52
Width: 727
VWidth: 0
Flags: HW
PickledData: "(dp1
S'com.typemytype.robofont.layerData'
p2
(dp3
S'back'
p4
(dp5
S'name'
p6
S'breve'
p7
sS'lib'
p8
(dp9
sS'unicodes'
p10
(tsS'width'
p11
I953
sS'contours'
p12
(tsS'components'
p13
(tsS'anchors'
p14
(tsss."
AnchorPoint: "top" 361.5 0 mark 0
LayerCount: 2
Fore
SplineSet
362 148 m 4
 164 148 142 328 142 328 c 5
 220 346 l 5
 220 346 244 235 362 235 c 4
 480 235 504 346 504 346 c 5
 582 328 l 5
 582 328 560 148 362 148 c 4
EndSplineSet
EndChar

StartChar: brokenbar
Encoding: 101 166 53
Width: 435
VWidth: 0
Flags: HW
PickledData: "(dp1
S'com.typemytype.robofont.layerData'
p2
(dp3
S'back'
p4
(dp5
S'name'
p6
S'brokenbar'
p7
sS'lib'
p8
(dp9
sS'unicodes'
p10
(tsS'width'
p11
I597
sS'contours'
p12
((dp13
S'points'
p14
((dp15
S'segmentType'
p16
S'line'
p17
sS'x'
F293
sS'smooth'
p18
I00
sS'y'
F412
s(dp19
g16
S'line'
p20
sS'x'
F165
sg18
I00
sS'y'
F412
s(dp21
g16
S'line'
p22
sS'x'
F165
sg18
I00
sS'y'
F-144
s(dp23
S'y'
F-144
sS'x'
F165
sg18
I00
s(dp24
S'y'
F-145
sS'x'
F293
sg18
I00
s(dp25
g16
S'curve'
p26
sS'x'
F293
sg18
I00
sS'y'
F-144
stp27
s(dp28
g14
((dp29
g16
S'line'
p30
sS'x'
F293
sg18
I00
sS'y'
F1241
s(dp31
g16
S'line'
p32
sS'x'
F165
sg18
I00
sS'y'
F1241
s(dp33
g16
S'line'
p34
sS'x'
F165
sg18
I00
sS'y'
F675
s(dp35
S'y'
F675
sS'x'
F165
sg18
I00
s(dp36
S'y'
F674
sS'x'
F293
sg18
I00
s(dp37
g16
S'curve'
p38
sS'x'
F293
sg18
I00
sS'y'
F675
stp39
stp40
sS'components'
p41
(tsS'anchors'
p42
(tsss."
LayerCount: 2
Fore
SplineSet
153 -144 m 1
 153 -144 281 -145 281 -144 c 2
 281 412 l 1
 153 412 l 1
 153 -144 l 1
153 675 m 1
 153 675 281 674 281 675 c 2
 281 1241 l 1
 153 1241 l 1
 153 675 l 1
EndSplineSet
EndChar

StartChar: circumflex
Encoding: 310 710 54
Width: 742
VWidth: 0
Flags: HW
AnchorPoint: "top" 374.5 0.200195 mark 0
LayerCount: 2
Fore
SplineSet
156 86 m 0
 163 86 170 90 177 98 c 2
 370 326 l 1
 563 98 l 2
 570 90 577 86 584 86 c 0
 594 86 602 94 602 106 c 0
 602 110 601 115 598 121 c 2
 431 441 l 2
 420 462 395 481 370 481 c 0
 345 481 321 463 309 441 c 2
 142 121 l 2
 139 115 138 110 138 106 c 0
 138 94 146 86 156 86 c 0
EndSplineSet
EndChar

StartChar: comma
Encoding: 312 44 56
Width: 462
VWidth: 0
Flags: HW
LayerCount: 2
Fore
SplineSet
123 -153 m 1
 182 -153 l 1
 291 -61 332 13 332 72 c 0
 332 114 301 160 244 160 c 0
 185 160 154 115 154 72 c 0
 154 38 173 3 209 -10 c 1
 198 -60 160 -105 123 -153 c 1
EndSplineSet
EndChar

StartChar: d
Encoding: 313 100 57
Width: 1074
VWidth: 0
Flags: W
HStem: -16 97<389.543 778.86> 742 98<370.97 717.957>
VStem: 108 127<226.706 598.074>
AnchorPoint: "top" 507 916.1 basechar 0
LayerCount: 2
Fore
SplineSet
574 -16 m 0
 669 -16 784 4 909 43 c 1
 909 1241 l 1
 781 1220 l 1
 781 761 l 1
 781 761 677 840 498 840 c 0
 263 840 108 650 108 411 c 0
 108 154 288 -16 574 -16 c 0
572 81 m 0
 380 81 235 191 235 402 c 0
 235 573.087 317 742 530 742 c 0
 670 742 781 666 781 666 c 1
 781 108 l 1
 742 99 668 81 572 81 c 0
EndSplineSet
EndChar

StartChar: dieresis
Encoding: 314 168 58
Width: 805
VWidth: 0
Flags: HW
AnchorPoint: "top" 395 -1 mark 0
LayerCount: 2
Fore
SplineSet
657 202 m 4
 657 244 626 290 569 290 c 4
 510 290 479 245 479 202 c 4
 479 158 510 114 569 114 c 4
 626 114 657 158 657 202 c 4
327 202 m 4
 327 244 296 290 239 290 c 4
 180 290 149 245 149 202 c 4
 149 158 180 114 239 114 c 4
 296 114 327 158 327 202 c 4
EndSplineSet
EndChar

StartChar: dollar
Encoding: 315 36 59
Width: 940
VWidth: 0
Flags: HW
LayerCount: 2
Fore
SplineSet
571 1404 m 1
 289 -199 l 1
 363 -199 l 1
 647 1404 l 1
 571 1404 l 1
115 69 m 1
 170 36 283 -34 485 -34 c 0
 676 -34 860 63 860 281 c 0
 860 398 802 493 621 607 c 1
 358 770 l 1
 268 827 206 891 206 975 c 0
 206 1082 290 1168 481 1168 c 0
 583 1168 702 1137 795 1088 c 1
 795 1202 l 1
 738 1229 621 1274 467 1274 c 0
 212 1274 83 1136 83 968 c 0
 83 852 168 758 287 685 c 2
 561 515 l 1
 676 445 735 359 735 274 c 0
 735 156 651 73 482 73 c 0
 327 73 212 115 115 180 c 1
 115 69 l 1
EndSplineSet
EndChar

StartChar: dotlessi
Encoding: 317 305 61
Width: 508
VWidth: 0
Flags: W
LayerCount: 2
Fore
SplineSet
321 0 m 1
 321 824 l 1
 193 824 l 1
 193 0 l 1
 321 0 l 1
EndSplineSet
EndChar

StartChar: e
Encoding: 318 101 62
Width: 952
VWidth: 0
Flags: W
HStem: -15 96<372.403 766.557> 742 98<361.602 647.541>
VStem: 108 119<233.906 388 474 594.047>
AnchorPoint: "bot" 673.5 0.199951 basechar 0
AnchorPoint: "top" 504 916.1 basechar 0
>>>>>>> 7255645dac4ba5f910ba611d9d4612a8db436e23
LayerCount: 2
Fore
SplineSet
570 -16 m 0
 683 -16 764 20 805 43 c 1
 805 146 l 1
 779 132 686 81 563 81 c 0
 332 81 228 235 228 414 c 0
 228 583 343 742 569 742 c 0
 712 742 794 694 805 688 c 1
 805 783 l 1
 786 795 695 840 566 840 c 0
 298 840 108 668 108 413 c 0
 108 163 284 -16 570 -16 c 0
EndSplineSet
<<<<<<< HEAD
EndChar

StartChar: caron
Encoding: 339 711 55
Width: 741
VWidth: 0
Flags: HW
PickledData: "(dp1
S'com.typemytype.robofont.layerData'
p2
(dp3
S'back'
p4
(dp5
S'name'
p6
S'caron'
p7
sS'lib'
p8
(dp9
sS'unicodes'
p10
(tsS'width'
p11
I370
sS'contours'
p12
(tsS'components'
p13
(tsS'anchors'
p14
(tsss."
AnchorPoint: "top" 372.5 0 mark 0
LayerCount: 2
Fore
SplineSet
370 156 m 4
 395 156 419 174 431 196 c 6
 598 516 l 6
 601 522 602 527 602 531 c 4
 602 543 594 551 584 551 c 4
 577 551 570 547 563 539 c 6
 370 311 l 5
 177 539 l 6
 170 547 163 551 156 551 c 4
 146 551 138 543 138 531 c 4
 138 527 139 522 142 516 c 6
 309 196 l 6
 320 175 345 156 370 156 c 4
EndSplineSet
EndChar

StartChar: cedilla
Encoding: 117 184 57
Width: 441
VWidth: 0
Flags: HW
PickledData: "(dp1
S'com.typemytype.robofont.layerData'
p2
(dp3
S'back'
p4
(dp5
S'name'
p6
S'cedilla'
p7
sS'lib'
p8
(dp9
sS'unicodes'
p10
(tsS'width'
p11
I424
sS'contours'
p12
(tsS'components'
p13
(tsS'anchors'
p14
(tsss."
AnchorPoint: "bot" 273.75 -0.200195 mark 0
LayerCount: 2
Fore
SplineSet
327 -357 m 1
 336 -309 l 1
 269 -289 208 -230 208 -181 c 0
 208 -148 235 -120 306 -111 c 1
 306 0 l 1
 247 0 l 1
 247 -71 l 1
 149 -99 111 -146 111 -194 c 0
 111 -274 217 -357 327 -357 c 1
EndSplineSet
EndChar

StartChar: eight
Encoding: 321 56 65
Width: 1176
VWidth: 0
Flags: W
>>>>>>> 7255645dac4ba5f910ba611d9d4612a8db436e23
LayerCount: 2
Fore
SplineSet
347 -202 m 1
 415 -202 l 1
 665 1009 l 1
 595 1009 l 1
 347 -202 l 1
EndSplineSet
Refer: 54 99 N 1 0 0 1 0 0 2
EndChar

<<<<<<< HEAD
StartChar: circumflex
Encoding: 338 710 59
Width: 742
VWidth: 0
Flags: HW
PickledData: "(dp1
S'com.typemytype.robofont.layerData'
p2
(dp3
S'back'
p4
(dp5
S'name'
p6
S'circumflex'
p7
sS'lib'
p8
(dp9
sS'unicodes'
p10
(tsS'width'
p11
I370
sS'contours'
p12
(tsS'components'
p13
(tsS'anchors'
p14
(tsss."
AnchorPoint: "top" 373.5 0 mark 0
LayerCount: 2
Fore
SplineSet
156 146 m 4
 163 146 170 150 177 158 c 6
 370 386 l 5
 563 158 l 6
 570 150 577 146 584 146 c 4
 594 146 602 154 602 166 c 4
 602 170 601 175 598 181 c 6
 431 501 l 6
 420 522 395 541 370 541 c 4
 345 541 321 523 309 501 c 6
 142 181 l 6
 139 175 138 170 138 166 c 4
 138 154 146 146 156 146 c 4
EndSplineSet
EndChar

StartChar: comma
Encoding: 12 44 61
Width: 462
VWidth: 0
Flags: HW
PickledData: "(dp1
S'com.typemytype.robofont.layerData'
p2
(dp3
S'back'
p4
(dp5
S'name'
p6
S'comma'
p7
sS'lib'
p8
(dp9
sS'unicodes'
p10
(tsS'width'
p11
I508
sS'contours'
p12
(tsS'components'
p13
(tsS'anchors'
p14
(tsss."
LayerCount: 2
Fore
SplineSet
123 -153 m 1
 182 -153 l 1
 291 -61 332 13 332 72 c 0
 332 114 301 160 244 160 c 0
 185 160 154 115 154 72 c 0
 154 38 173 3 209 -10 c 1
 198 -60 160 -105 123 -153 c 1
EndSplineSet
EndChar

StartChar: d
Encoding: 68 100 62
Width: 1074
VWidth: 0
Flags: W
PickledData: "(dp1
S'name'
p2
S'd'
sS'com.typemytype.robofont.layerData'
p3
(dp4
S'back'
p5
(dp6
g2
S'd'
sS'lib'
p7
(dp8
sS'unicodes'
p9
(tsS'width'
p10
I1074
sS'contours'
p11
(tsS'components'
p12
(tsS'anchors'
p13
(tsssg9
(tsg10
I1113
sg11
(tsg12
(tsg13
(ts."
LayerCount: 2
Fore
SplineSet
574 -16 m 0
 669 -16 784 4 909 43 c 1
 909 1241 l 1
 781 1220 l 1
 781 761 l 1
 781 761 677 840 498 840 c 0
 263 840 108 650 108 411 c 0
 108 154 288 -16 574 -16 c 0
572 81 m 0
 380 81 235 191 235 402 c 0
 235 573.087 317 742 530 742 c 0
 670 742 781 666 781 666 c 1
 781 108 l 1
 742 99 668 81 572 81 c 0
EndSplineSet
EndChar

StartChar: equal
Encoding: 323 61 67
Width: 917
VWidth: 0
Flags: HW
LayerCount: 2
Fore
SplineSet
763 410 m 1
 763 503 l 1
 153 503 l 1
 153 410 l 1
 763 410 l 1
763 647 m 1
 763 740 l 1
 153 740 l 1
 153 647 l 1
 763 647 l 1
EndSplineSet
EndChar

StartChar: eth
Encoding: 324 240 68
Width: 978
VWidth: 0
Flags: W
LayerCount: 2
Fore
SplineSet
484 -16 m 0
 725 -16 888 161 888 386 c 0
 888 550 824 659 708 831 c 0
 635 940 389 1241 389 1241 c 1
 258 1241 l 1
 661 714 l 1
 630 737 556 768 463 768 c 0
 274 768 78 605 78 376 c 0
 78 154 256 -16 484 -16 c 0
491 81 m 0
 324 81 195 217 195 373 c 0
 195 538 321 666 484 666 c 0
 665 666 766 520 766 367 c 0
 766 213 658 81 491 81 c 0
279 882 m 1
 731 1194 l 1
 680 1258 l 1
 228 946 l 1
 279 882 l 1
EndSplineSet
EndChar

StartChar: exclam
Encoding: 325 33 69
Width: 446
VWidth: 0
Flags: HW
LayerCount: 2
Fore
SplineSet
249 319 m 1
 295 1241 l 1
 167 1241 l 1
 213 319 l 1
 249 319 l 1
EndSplineSet
Refer: 110 46 N 1 0 0 1 -16 0 2
EndChar

StartChar: f
Encoding: 326 102 70
Width: 601
VWidth: 0
Flags: W
>>>>>>> 7255645dac4ba5f910ba611d9d4612a8db436e23
LayerCount: 2
Fore
SplineSet
568 144 m 4
 625 144 656 188 656 232 c 4
 656 274 625 320 568 320 c 4
 509 320 478 275 478 232 c 4
 478 188 509 144 568 144 c 4
238 144 m 4
 295 144 326 188 326 232 c 4
 326 274 295 320 238 320 c 4
 179 320 148 275 148 232 c 4
 148 188 179 144 238 144 c 4
EndSplineSet
<<<<<<< HEAD
EndChar

StartChar: dollar
Encoding: 4 36 65
Width: 956
VWidth: 0
Flags: W
PickledData: "(dp1
S'com.typemytype.robofont.layerData'
p2
(dp3
S'back'
p4
(dp5
S'name'
p6
S'dollar'
p7
sS'lib'
p8
(dp9
sS'unicodes'
p10
(tsS'width'
p11
I956
sS'contours'
p12
(tsS'components'
p13
(tsS'anchors'
p14
(tsss."
LayerCount: 2
Fore
SplineSet
312 -199 m 1
 386 -199 l 1
 670 1404 l 1
 594 1404 l 1
 312 -199 l 1
508 -34 m 0
 699 -34 883 63 883 281 c 0
 883 398 825 493 644 607 c 1
 381 770 l 1
 291 827 229 891 229 975 c 0
 229 1082 313 1168 504 1168 c 0
 606 1168 725 1137 818 1088 c 1
 818 1202 l 1
 761 1229 644 1274 490 1274 c 0
 235 1274 106 1136 106 968 c 0
 106 852 191 758 310 685 c 2
 584 515 l 1
 699 445 758 359 758 274 c 0
 758 156 674 73 505 73 c 0
 350 73 235 115 138 180 c 1
 138 69 l 1
 193 36 306 -34 508 -34 c 0
EndSplineSet
EndChar

StartChar: dotlessi
Encoding: 231 305 67
Width: 508
VWidth: 0
Flags: W
PickledData: "(dp1
S'com.typemytype.robofont.layerData'
p2
(dp3
S'back'
p4
(dp5
S'name'
p6
S'dotlessi'
p7
sS'lib'
p8
(dp9
sS'unicodes'
p10
(tsS'width'
p11
I508
sS'contours'
p12
(tsS'components'
p13
(tsS'anchors'
p14
(tsss."
LayerCount: 2
Fore
SplineSet
193 0 m 1
 321 0 l 1
 321 824 l 1
 193 824 l 1
 193 0 l 1
EndSplineSet
EndChar

StartChar: e
Encoding: 69 101 68
Width: 952
VWidth: 0
Flags: HW
PickledData: "(dp1
S'com.typemytype.robofont.layerData'
p2
(dp3
S'back'
p4
(dp5
S'name'
p6
S'e'
sS'lib'
p7
(dp8
sS'unicodes'
p9
(tsS'width'
p10
F952
sS'contours'
p11
((dp12
S'points'
p13
((dp14
S'segmentType'
p15
S'curve'
p16
sS'x'
F108
sS'smooth'
p17
I01
sS'y'
F413
s(dp18
S'y'
F163
sS'x'
F108
sg17
I00
s(dp19
S'y'
F-16
sS'x'
F284
sg17
I00
s(dp20
g15
S'curve'
p21
sS'x'
F570
sg17
I01
sS'y'
F-16
s(dp22
S'y'
F-16
sS'x'
F683
sg17
I00
s(dp23
S'y'
F20
sS'x'
F764
sg17
I00
s(dp24
g15
S'curve'
p25
sS'x'
F805
sg17
I00
sS'y'
F43
s(dp26
g15
S'line'
p27
sS'x'
F805
sg17
I00
sS'y'
F146
s(dp28
S'y'
F132
sS'x'
F779
sg17
I00
s(dp29
S'y'
F81
sS'x'
F686
sg17
I00
s(dp30
g15
S'curve'
p31
sS'x'
F563
sg17
I01
sS'y'
F81
s(dp32
S'y'
F81
sS'x'
F332
sg17
I00
s(dp33
S'y'
F235
sS'x'
F228
sg17
I00
s(dp34
g15
S'curve'
p35
sS'x'
F228
sg17
I01
sS'y'
F414
s(dp36
S'y'
F583
sS'x'
F228
sg17
I00
s(dp37
S'y'
F742
sS'x'
F343
sg17
I00
s(dp38
g15
S'curve'
p39
sS'x'
F569
sg17
I01
sS'y'
F742
s(dp40
S'y'
F742
sS'x'
F712
sg17
I00
s(dp41
S'y'
F694
sS'x'
F794
sg17
I00
s(dp42
g15
S'curve'
p43
sS'x'
F805
sg17
I00
sS'y'
F688
s(dp44
g15
S'line'
p45
sS'x'
F805
sg17
I00
sS'y'
F783
s(dp46
S'y'
F795
sS'x'
F786
sg17
I00
s(dp47
S'y'
F840
sS'x'
F695
sg17
I00
s(dp48
g15
S'curve'
p49
sS'x'
F566
sg17
I01
sS'y'
F840
s(dp50
S'y'
F840
sS'x'
F298
sg17
I00
s(dp51
S'y'
F668
sS'x'
F108
sg17
I00
stp52
stp53
sS'components'
p54
(tsS'anchors'
p55
(tsss."
AnchorPoint: "bot" 652 0 basechar 0
AnchorPoint: "top" 499 840 basechar 0
LayerCount: 2
Fore
SplineSet
559 -15 m 0
 688 -15 764 18 831 57 c 1
 831 159 l 1
 770 126 698 81 556 81 c 0
 384 81 242 170 227 388 c 1
 862 388 l 1
 862 409 l 2
 862 633 754 840 498 840 c 0
 282 840 108 669 108 428 c 0
 108 132 304 -15 559 -15 c 0
235 474 m 1
 243 542 295 742 513 742 c 0
 667 742 745 614 754 474 c 1
 235 474 l 1
=======
EndChar

StartChar: five
Encoding: 327 53 71
Width: 973
VWidth: 0
Flags: W
LayerCount: 2
Fore
SplineSet
462 -34 m 0
 703 -34 879 98 879 362 c 0
 879 600 694 743 503 743 c 0
 442 743 362 733 302 692 c 1
 306 814 319 1001 324 1122 c 1
 772 1122 l 1
 783 1241 l 1
 221 1241 l 1
 191 581 l 1
 294 564 l 1
 341 623 418 640 489 640 c 0
 653 640 760 499 760 355 c 0
 760 182 645 73 465 73 c 0
 325 73 216 141 169 182 c 1
 136 81 l 1
 201 13 335 -34 462 -34 c 0
>>>>>>> 7255645dac4ba5f910ba611d9d4612a8db436e23
EndSplineSet
EndChar

<<<<<<< HEAD
StartChar: four
Encoding: 328 52 72
Width: 1077
VWidth: 0
Flags: W
LayerCount: 2
Fore
SplineSet
666 0 m 1
 794 0 l 1
 794 257 l 1
 984 257 l 1
 984 363 l 1
 794 363 l 1
 794 1253 l 1
 73 257 l 1
 666 257 l 1
 666 0 l 1
279 363 m 1
 666 910 l 1
 666 363 l 1
 279 363 l 1
EndSplineSet
EndChar

StartChar: g
Encoding: 329 103 73
Width: 1058
VWidth: 0
Flags: HW
AnchorPoint: "top" 538 916.1 basechar 0
LayerCount: 2
Fore
SplineSet
561 -393 m 0
 771 -393 909 -271 909 -15 c 2
 909 824 l 1
 781 824 l 1
 781 761 l 1
 781 761 677 840 498 840 c 0
 263 840 108 650 108 411 c 0
 108 154 268 -16 564 -16 c 0
 625 -16 720 4 781 30 c 1
 781 -42 l 2
 781 -206 702 -295 573 -295 c 0
 439 -295 364 -267 308 -242 c 1
 308 -342 l 1
 355 -362 446 -393 561 -393 c 0
561 82 m 0
 343 82 235 191 235 402 c 0
 235 573 317 742 530 742 c 0
 670 742 781 666 781 666 c 1
 781 120 l 1
 742 108 657 82 561 82 c 0
EndSplineSet
EndChar

StartChar: germandbls
Encoding: 330 223 74
Width: 1105
VWidth: 0
Flags: W
LayerCount: 2
Fore
SplineSet
656 -34 m 0
 854 -34 1015 46 1015 279 c 0
 1015 399 1002 523 650 669 c 1
 837 698 874 847 874 930 c 0
 874 1134 718 1241 522 1241 c 0
 285 1241 165 1094 165 935 c 2
 165 0 l 1
 293 0 l 1
 293 942 l 2
 293 1045 362 1145 533 1145 c 0
 674 1145 761 1064 761 932 c 0
 761 757 621 728 487 728 c 1
 487 650 l 1
 714 541 l 1
 865 462 898 389 898 273 c 0
 898 132 811 67 653 67 c 0
 530 67 407 123 407 123 c 1
 407 21 l 1
 407 21 525 -34 656 -34 c 0
EndSplineSet
EndChar

StartChar: grave
Encoding: 331 96 75
Width: 442
VWidth: 0
Flags: W
HStem: 86 395
VStem: 75 296
AnchorPoint: "top" 356.5 0.200195 mark 0
LayerCount: 2
Fore
SplineSet
367 121 m 2
 370 115 371 110 371 106 c 0
 371 94 363 86 353 86 c 0
 346 86 339 90 332 98 c 2
 92 381 l 2
 80 395 75 409 75 422 c 0
 75 454 107 481 140 481 c 0
 162 481 185 469 200 441 c 2
 367 121 l 2
EndSplineSet
EndChar

StartChar: greater
Encoding: 332 62 76
Width: 990
VWidth: 0
Flags: HW
LayerCount: 2
Fore
SplineSet
932 402 m 1
 76 804 l 1
 76 677 l 1
 693 403 l 1
 76 118 l 1
 76 -12 l 1
 932 402 l 1
EndSplineSet
EndChar

StartChar: guillemotleft
Encoding: 333 171 77
Width: 780
VWidth: 0
Flags: HW
LayerCount: 2
Fore
SplineSet
684 197 m 0
 700 197 711 208 711 221 c 0
 711 229 704 237 695 248 c 1
 524 497 l 1
 695 747 l 1
 704 758 711 766 711 774 c 0
 711 787 700 798 684 798 c 0
 679 798 672 797 664 793 c 1
 410 577 l 1
 377 555 360 526 360 497 c 0
 360 469 376 440 410 418 c 1
 664 202 l 1
 672 198 679 197 684 197 c 0
393 197 m 0
 409 197 420 208 420 221 c 0
 420 229 413 237 404 248 c 1
 233 497 l 1
 404 747 l 1
 413 758 420 766 420 774 c 0
 420 787 409 798 393 798 c 0
 388 798 381 797 373 793 c 1
 119 577 l 1
 86 555 69 526 69 497 c 0
 69 469 85 440 119 418 c 1
 373 202 l 1
 381 198 388 197 393 197 c 0
EndSplineSet
EndChar

StartChar: h
Encoding: 335 104 79
Width: 1181
VWidth: 0
Flags: HW
AnchorPoint: "top" 645 916.1 basechar 0
>>>>>>> 7255645dac4ba5f910ba611d9d4612a8db436e23
LayerCount: 2
Fore
SplineSet
602 -34 m 0
 809 -34 977 86 977 302 c 0
 977 432 909 577 690 664 c 1
 898 741 951 854 951 975 c 0
 951 1129 833 1275 596 1275 c 0
 378 1275 255 1129 255 970 c 0
 255 846 351 729 492 657 c 1
 332 569 232 422 232 281 c 0
 232 75 422 -34 602 -34 c 0
570 710 m 1
 434 764 373 865 373 973 c 0
 373 1093 469 1173 596 1173 c 0
 724 1173 834 1092 834 972 c 0
 834 864 773 791 570 710 c 1
596 70 m 0
 473 70 362 148 362 293 c 0
 362 435 444 551 591 605 c 1
 761 543 857 434 857 301 c 0
 857 148 732 70 596 70 c 0
EndSplineSet
<<<<<<< HEAD
EndChar

StartChar: hyphen
Encoding: 337 45 81
Width: 847
VWidth: 0
Flags: HW
LayerCount: 2
Fore
SplineSet
153 559 m 1
 693 559 l 1
 693 652 l 1
 153 652 l 1
 153 559 l 1
EndSplineSet
EndChar

StartChar: i
Encoding: 338 105 82
Width: 508
VWidth: 0
Flags: HW
AnchorPoint: "bot" 263.5 0.199951 basechar 0
LayerCount: 2
Fore
SplineSet
343 1152 m 0
 343 1194 312 1240 255 1240 c 0
 196 1240 165 1195 165 1152 c 0
 165 1108 196 1064 255 1064 c 0
 312 1064 343 1108 343 1152 c 0
321 0 m 1
 321 824 l 1
 193 824 l 1
 193 0 l 1
 321 0 l 1
EndSplineSet
EndChar

StartChar: j
Encoding: 339 106 83
Width: 529
VWidth: 0
Flags: W
LayerCount: 2
Fore
SplineSet
364 1152 m 0
 364 1194 333 1240 276 1240 c 0
 217 1240 186 1195 186 1152 c 0
 186 1108 217 1064 276 1064 c 0
 333 1064 364 1108 364 1152 c 0
348 -79 m 2
 348 824 l 1
 220 824 l 1
 220 -76 l 2
 220 -178 145 -213 49 -221 c 0
 41 -222 33 -222 24 -223 c 1
 46 -326 l 1
 312 -312 348 -182 348 -79 c 2
EndSplineSet
EndChar

StartChar: k
Encoding: 340 107 84
Width: 888
VWidth: 0
Flags: HW
AnchorPoint: "top" 535 916.1 basechar 0
LayerCount: 2
Fore
SplineSet
293 408 m 1
 728 0 l 1
 891 0 l 1
 422 441 l 1
 831 823 l 1
 673 823 l 1
 293 464 l 1
 293 1241 l 1
 165 1221 l 1
 165 -1 l 1
 293 -1 l 1
 293 408 l 1
EndSplineSet
EndChar

StartChar: l
Encoding: 341 108 85
Width: 597
VWidth: 0
Flags: W
HStem: -16 97<314.856 540.646>
VStem: 165 128<98.8054 246>
AnchorPoint: "bot" 385.5 0.199951 basechar 0
AnchorPoint: "top" 445 916.1 basechar 0
>>>>>>> 7255645dac4ba5f910ba611d9d4612a8db436e23
LayerCount: 2
Fore
SplineSet
153 410 m 1
 763 410 l 1
 763 503 l 1
 153 503 l 1
 153 410 l 1
153 647 m 1
 763 647 l 1
 763 740 l 1
 153 740 l 1
 153 647 l 1
EndSplineSet
<<<<<<< HEAD
EndChar

StartChar: less
Encoding: 342 60 86
Width: 990
VWidth: 0
Flags: HW
LayerCount: 2
Fore
SplineSet
58 390 m 1
 914 -12 l 1
 914 115 l 1
 297 389 l 1
 914 674 l 1
 914 804 l 1
 58 390 l 1
EndSplineSet
EndChar

StartChar: m
Encoding: 343 109 87
Width: 1681
VWidth: 0
Flags: W
HStem: 742 98<421.711 740.69 1036.87 1363.35>
VStem: 165 128<595 641.512> 787 128<559 641.512> 1409 128<559 696.823>
CounterMasks: 1 70
AnchorPoint: "top" 886 916.1 basechar 0
>>>>>>> 7255645dac4ba5f910ba611d9d4612a8db436e23
LayerCount: 2
Fore
SplineSet
484 -16 m 0
 725 -16 888 161 888 386 c 0
 888 550 824 659 708 831 c 0
 635 940 389 1241 389 1241 c 1
 258 1241 l 1
 661 714 l 1
 630 737 556 768 463 768 c 0
 274 768 78 605 78 376 c 0
 78 154 256 -16 484 -16 c 0
491 81 m 0
 324 81 195 217 195 373 c 0
 195 538 321 666 484 666 c 0
 665 666 766 520 766 367 c 0
 766 213 658 81 491 81 c 0
279 882 m 1
 731 1194 l 1
 680 1258 l 1
 228 946 l 1
 279 882 l 1
EndSplineSet
<<<<<<< HEAD
EndChar

StartChar: exclam
Encoding: 1 33 75
Width: 446
VWidth: 0
Flags: HW
PickledData: "(dp1
S'com.typemytype.robofont.layerData'
p2
(dp3
S'back'
p4
(dp5
S'name'
p6
S'exclam'
p7
sS'lib'
p8
(dp9
sS'unicodes'
p10
(tsS'width'
p11
I543
sS'contours'
p12
(tsS'components'
p13
(tsS'anchors'
p14
(tsss."
LayerCount: 2
Fore
SplineSet
200 319 m 1
 236 319 l 1
 282 1241 l 1
 154 1241 l 1
 200 319 l 1
EndSplineSet
Refer: 120 46 N 1 0 0 1 -29 0 2
EndChar

StartChar: minus
Encoding: 345 8722 89
Width: 917
VWidth: 0
Flags: HW
LayerCount: 2
Fore
SplineSet
763 555 m 1
 763 648 l 1
 153 648 l 1
 153 555 l 1
 763 555 l 1
EndSplineSet
EndChar

StartChar: mu
Encoding: 346 956 90
Width: 1150
VWidth: 0
Flags: HW
LayerCount: 2
Fore
SplineSet
149 299 m 1
 149 -248 l 1
 277 -248 l 1
 277 299 l 1
 149 299 l 1
EndSplineSet
Refer: 131 117 N 1 0 0 1 0 0 2
EndChar

StartChar: multiply
Encoding: 347 215 91
Width: 725
VWidth: 0
Flags: HW
LayerCount: 2
Fore
SplineSet
428 605 m 1
 586 764 l 1
 520 829 l 1
 362 671 l 1
 204 829 l 1
 138 764 l 1
 296 605 l 1
 139 448 l 1
 204 382 l 1
 362 540 l 1
 520 382 l 1
 585 448 l 1
 428 605 l 1
EndSplineSet
EndChar

StartChar: n
Encoding: 348 110 92
Width: 1101
VWidth: 0
Flags: W
HStem: 742 98<437.464 773.14>
VStem: 165 128<595 635.168> 829 128<559 686.016>
AnchorPoint: "top" 598 916.1 basechar 0
>>>>>>> 7255645dac4ba5f910ba611d9d4612a8db436e23
LayerCount: 2
Fore
SplineSet
210 0 m 1
 338 0 l 1
 338 723 l 1
 522 723 l 1
 522 824 l 1
 335 824 l 1
 335 891 l 2
 335 1056 407 1105 497 1105 c 0
 537 1105 573 1095 620 1082 c 1
 620 1184 l 1
 566 1200 519 1208 475 1208 c 0
 297 1208 207 1081 207 891 c 2
 207 824 l 1
 92 824 l 1
 92 723 l 1
 210 723 l 1
 210 0 l 1
EndSplineSet
<<<<<<< HEAD
EndChar

StartChar: nine
Encoding: 349 57 93
Width: 1111
VWidth: 0
Flags: W
>>>>>>> 7255645dac4ba5f910ba611d9d4612a8db436e23
LayerCount: 2
Fore
SplineSet
462 -34 m 0
 703 -34 879 98 879 362 c 0
 879 600 694 743 503 743 c 0
 442 743 362 733 302 692 c 1
 306 814 319 1001 324 1122 c 1
 772 1122 l 1
 783 1241 l 1
 221 1241 l 1
 191 581 l 1
 294 564 l 1
 341 623 418 640 489 640 c 0
 653 640 760 499 760 355 c 0
 760 182 645 73 465 73 c 0
 325 73 216 141 169 182 c 1
 136 81 l 1
 201 13 335 -34 462 -34 c 0
EndSplineSet
EndChar

<<<<<<< HEAD
StartChar: four
Encoding: 20 52 79
Width: 1077
VWidth: 0
Flags: W
PickledData: "(dp1
S'com.typemytype.robofont.layerData'
p2
(dp3
S'back'
p4
(dp5
S'name'
p6
S'four'
p7
sS'lib'
p8
(dp9
sS'unicodes'
p10
(tsS'width'
p11
I1077
sS'contours'
p12
(tsS'components'
p13
(tsS'anchors'
p14
(tsss."
LayerCount: 2
Fore
SplineSet
666 0 m 1
 794 0 l 1
 794 257 l 1
 984 257 l 1
 984 363 l 1
 794 363 l 1
 794 1253 l 1
 73 257 l 1
 666 257 l 1
 666 0 l 1
279 363 m 1
 666 910 l 1
 666 363 l 1
 279 363 l 1
EndSplineSet
EndChar

StartChar: g
Encoding: 71 103 80
Width: 1058
VWidth: 0
Flags: HW
PickledData: "(dp1
S'name'
p2
S'd'
sS'com.typemytype.robofont.layerData'
p3
(dp4
S'back'
p5
(dp6
g2
S'g'
sS'lib'
p7
(dp8
g2
S'd'
sS'unicodes'
p9
(tsS'width'
p10
I1113
sS'contours'
p11
(tsS'components'
p12
(tsS'anchors'
p13
(tssg9
(tsg10
I1058
sg11
(tsg12
(tsg13
(tsssg9
(tsg10
I1113
sg11
(tsg12
(tsg13
(ts."
AnchorPoint: "top" 529 840 basechar 0
LayerCount: 2
Fore
SplineSet
561 -393 m 0
 771 -393 909 -271 909 -15 c 2
 909 824 l 1
 781 824 l 1
 781 761 l 1
 781 761 677 840 498 840 c 0
 263 840 108 650 108 411 c 0
 108 154 268 -16 564 -16 c 0
 625 -16 720 4 781 30 c 1
 781 -42 l 2
 781 -206 702 -295 573 -295 c 0
 439 -295 364 -267 308 -242 c 1
 308 -342 l 1
 355 -362 446 -393 561 -393 c 0
561 82 m 0
 343 82 235 191 235 402 c 0
 235 573 317 742 530 742 c 0
 670 742 781 666 781 666 c 1
 781 120 l 1
 742 108 657 82 561 82 c 0
EndSplineSet
EndChar

StartChar: germandbls
Encoding: 155 223 81
Width: 1105
VWidth: 0
Flags: W
PickledData: "(dp1
S'com.typemytype.robofont.layerData'
p2
(dp3
S'back'
p4
(dp5
S'name'
p6
S'germandbls'
p7
sS'lib'
p8
(dp9
sS'unicodes'
p10
(tsS'width'
p11
I1105
sS'contours'
p12
((dp13
S'points'
p14
((dp15
S'y'
F9
sS'x'
F407
sS'smooth'
p16
I00
s(dp17
S'y'
F-34
sS'x'
F496
sg16
I00
s(dp18
S'segmentType'
p19
S'curve'
p20
sS'x'
F627
sg16
I01
sS'y'
F-34
s(dp21
S'y'
F-34
sS'x'
F818
sg16
I00
s(dp22
S'y'
F64
sS'x'
F974
sg16
I00
s(dp23
g19
S'curve'
p24
sS'x'
F1002
sg16
I01
sS'y'
F281
s(dp25
S'y'
F296
sS'x'
F1004
sg16
I00
s(dp26
S'y'
F313
sS'x'
F1005
sg16
I00
s(dp27
g19
S'curve'
p28
sS'x'
F1005
sg16
I01
sS'y'
F331
s(dp29
S'y'
F448
sS'x'
F1005
sg16
I00
s(dp30
S'y'
F601
sS'x'
F951
sg16
I00
s(dp31
g19
S'curve'
p32
sS'x'
F733
sg16
I00
sS'y'
F669
s(dp33
S'y'
F728
sS'x'
F887
sg16
I00
s(dp34
S'y'
F835
sS'x'
F923
sg16
I00
s(dp35
g19
S'curve'
p36
sS'x'
F923
sg16
I01
sS'y'
F938
s(dp37
S'y'
F1110
sS'x'
F923
sg16
I00
s(dp38
S'y'
F1228
sS'x'
F813
sg16
I00
s(dp39
g19
S'curve'
p40
sS'x'
F552
sg16
I00
sS'y'
F1240
s(dp41
S'y'
F1241
sS'x'
F551
sg16
I00
s(dp42
S'y'
F1241
sS'x'
F550
sg16
I00
s(dp43
g19
S'curve'
p44
sS'x'
F549
sg16
I01
sS'y'
F1241
s(dp45
g19
S'line'
p46
sS'x'
F531
sg16
I00
sS'y'
F1241
s(dp47
S'y'
F1241
sS'x'
F523
sg16
I00
s(dp48
S'y'
F1241
sS'x'
F516
sg16
I00
s(dp49
g19
S'curve'
p50
sS'x'
F510
sg16
I00
sS'y'
F1240
s(dp51
S'y'
F1226
sS'x'
F281
sg16
I00
s(dp52
S'y'
F1094
sS'x'
F165
sg16
I00
s(dp53
g19
S'curve'
p54
sS'x'
F165
sg16
I01
sS'y'
F935
s(dp55
g19
S'line'
p56
sS'x'
F165
sg16
I00
sS'y'
F0
s(dp57
g19
S'line'
p58
sS'x'
F293
sg16
I00
sS'y'
F0
s(dp59
g19
S'line'
p60
sS'x'
F293
sg16
I00
sS'y'
F942
s(dp61
S'y'
F1045
sS'x'
F293
sg16
I00
s(dp62
S'y'
F1129
sS'x'
F367
sg16
I00
s(dp63
g19
S'curve'
p64
sS'x'
F542
sg16
I00
sS'y'
F1135
s(dp65
S'y'
F1126
sS'x'
F708
sg16
I00
s(dp66
S'y'
F1084
sS'x'
F810
sg16
I00
s(dp67
g19
S'curve'
p68
sS'x'
F810
sg16
I01
sS'y'
F940
s(dp69
S'y'
F726
sS'x'
F810
sg16
I00
s(dp70
S'y'
F728
sS'x'
F569
sg16
I00
s(dp71
g19
S'curve'
p72
sS'x'
F425
sg16
I01
sS'y'
F728
s(dp73
g19
S'line'
p74
sS'x'
F407
sg16
I00
sS'y'
F728
s(dp75
g19
S'line'
p76
sS'x'
F407
sg16
I00
sS'y'
F622
s(dp77
S'y'
F622
sS'x'
F443
sg16
I00
s(dp78
S'y'
F623
sS'x'
F476
sg16
I00
s(dp79
g19
S'curve'
p80
sS'x'
F507
sg16
I00
sS'y'
F625
s(dp81
g19
S'line'
p82
sS'x'
F495
sg16
I00
sS'y'
F622
s(dp83
S'y'
F612
sS'x'
F839
sg16
I00
s(dp84
S'y'
F437
sS'x'
F879
sg16
I00
s(dp85
g19
S'curve'
p86
sS'x'
F879
sg16
I01
sS'y'
F345
s(dp87
S'y'
F328
sS'x'
F879
sg16
I00
s(dp88
S'y'
F314
sS'x'
F878
sg16
I00
s(dp89
g19
S'curve'
p90
sS'x'
F877
sg16
I01
sS'y'
F304
s(dp91
S'y'
F186
sS'x'
F864
sg16
I00
s(dp92
S'y'
F73
sS'x'
F793
sg16
I00
s(dp93
g19
S'curve'
p94
sS'x'
F624
sg16
I01
sS'y'
F73
s(dp95
S'y'
F73
sS'x'
F501
sg16
I00
s(dp96
S'y'
F120
sS'x'
F407
sg16
I00
s(dp97
g19
S'curve'
p98
sS'x'
F407
sg16
I00
sS'y'
F120
s(dp99
g19
S'line'
p100
sS'x'
F407
sg16
I00
sS'y'
F9
stp101
stp102
sS'components'
p103
(tsS'anchors'
p104
(tsss."
LayerCount: 2
Fore
SplineSet
656 -34 m 0
 854 -34 1015 46 1015 279 c 0
 1015 399 1002 523 650 669 c 1
 837 698 874 847 874 930 c 0
 874 1134 718 1241 522 1241 c 0
 285 1241 165 1094 165 935 c 2
 165 0 l 1
 293 0 l 1
 293 942 l 2
 293 1045 362 1145 533 1145 c 0
 674 1145 761 1064 761 932 c 0
 761 757 621 728 487 728 c 1
 487 650 l 1
 714 541 l 1
 865 462 898 389 898 273 c 0
 898 132 811 67 653 67 c 0
 530 67 407 123 407 123 c 1
 407 21 l 1
 407 21 525 -34 656 -34 c 0
EndSplineSet
EndChar

StartChar: grave
Encoding: 64 96 82
Width: 442
VWidth: 0
Flags: HW
PickledData: "(dp1
S'name'
p2
S'grave'
p3
sS'unicodes'
p4
(tsS'width'
p5
I370
sS'contours'
p6
(tsS'components'
p7
(tsS'anchors'
p8
(ts."
AnchorPoint: "top" 355.5 0 mark 0
LayerCount: 2
Fore
SplineSet
353 116 m 4
 346 116 339 120 332 128 c 6
 92 411 l 6
 80 425 75 439 75 452 c 4
 75 484 107 511 140 511 c 4
 162 511 185 499 200 471 c 6
 367 151 l 6
 370 145 371 140 371 136 c 4
 371 124 363 116 353 116 c 4
EndSplineSet
EndChar

StartChar: greater
Encoding: 30 62 83
Width: 990
VWidth: 0
Flags: HW
PickledData: "(dp1
S'com.typemytype.robofont.guides'
p2
((dp3
S'angle'
p4
F90
sS'name'
p5
NsS'magnetic'
p6
I5
sS'isGlobal'
p7
I00
sS'y'
I147
sS'x'
I529
stp8
sS'com.typemytype.robofont.layerData'
p9
(dp10
S'back'
p11
(dp12
g5
S'greater'
p13
sS'lib'
p14
(dp15
sS'unicodes'
p16
(tsS'width'
p17
I912
sS'contours'
p18
(tsS'components'
p19
(tsS'anchors'
p20
(tsss."
LayerCount: 2
Fore
SplineSet
76 -12 m 1
 932 402 l 1
 76 804 l 1
 76 677 l 1
 693 403 l 1
 76 118 l 1
 76 -12 l 1
EndSplineSet
EndChar

StartChar: guillemotleft
Encoding: 106 171 84
Width: 780
VWidth: 0
Flags: HW
PickledData: "(dp1
S'com.typemytype.robofont.layerData'
p2
(dp3
S'back'
p4
(dp5
S'name'
p6
S'guillemotleft'
p7
sS'lib'
p8
(dp9
sS'unicodes'
p10
(tsS'width'
p11
I786
sS'contours'
p12
(tsS'components'
p13
(tsS'anchors'
p14
(tsss."
LayerCount: 2
Fore
SplineSet
684 197 m 0
 700 197 711 208 711 221 c 0
 711 229 704 237 695 248 c 1
 524 497 l 1
 695 747 l 1
 704 758 711 766 711 774 c 0
 711 787 700 798 684 798 c 0
 679 798 672 797 664 793 c 1
 410 577 l 1
 377 555 360 526 360 497 c 0
 360 469 376 440 410 418 c 1
 664 202 l 1
 672 198 679 197 684 197 c 0
393 197 m 0
 409 197 420 208 420 221 c 0
 420 229 413 237 404 248 c 1
 233 497 l 1
 404 747 l 1
 413 758 420 766 420 774 c 0
 420 787 409 798 393 798 c 0
 388 798 381 797 373 793 c 1
 119 577 l 1
 86 555 69 526 69 497 c 0
 69 469 85 440 119 418 c 1
 373 202 l 1
 381 198 388 197 393 197 c 0
EndSplineSet
EndChar

StartChar: numbersign
Encoding: 351 35 95
Width: 1135
VWidth: 0
Flags: HW
LayerCount: 2
Fore
SplineSet
1031 731 m 1
 1031 824 l 1
 156 824 l 1
 156 731 l 1
 1031 731 l 1
981 420 m 1
 981 513 l 1
 106 513 l 1
 106 420 l 1
 981 420 l 1
867 1241 m 1
 519 0 l 1
 637 0 l 1
 987 1241 l 1
 867 1241 l 1
487 1241 m 1
 139 0 l 1
 257 0 l 1
 607 1241 l 1
 487 1241 l 1
EndSplineSet
EndChar

StartChar: o
Encoding: 352 111 96
Width: 1106
VWidth: 0
Flags: W
HStem: -16 97<374.855 722.154> 742 98<384.732 723.574>
VStem: 108 119<235.593 581.132> 879 119<238.765 580.985>
AnchorPoint: "bot" 554.5 0.199951 basechar 0
AnchorPoint: "top" 555 916.1 basechar 0
LayerCount: 2
Fore
SplineSet
998 408 m 0
 998 139 785 -16 552 -16 c 0
 320 -16 108 138 108 408 c 0
 108 682 321 840 554 840 c 0
 771 840 998 683 998 408 c 0
553 81 m 0
 769 81 879 244 879 409 c 0
 879 575 765 742 553 742 c 0
 341 742 227 576 227 410 c 0
 227 230 337 81 553 81 c 0
EndSplineSet
EndChar

StartChar: ogonek
Encoding: 356 731 100
Width: 451
VWidth: 0
Flags: HW
AnchorPoint: "bot" 298 0.400391 mark 0
LayerCount: 2
Fore
SplineSet
274 0 m 1
 165 -92 124 -166 124 -225 c 0
 124 -299 189 -348 264 -376 c 1
 333 -318 l 1
 268 -263 244 -214 244 -170 c 0
 244 -109 289 -56 333 0 c 1
 274 0 l 1
EndSplineSet
EndChar

StartChar: one
Encoding: 358 49 102
Width: 591
VWidth: 0
Flags: W
LayerCount: 2
Fore
SplineSet
302 0 m 1
 430 0 l 1
 430 1258 l 1
 430 1258 257 1128 53 1046 c 1
 53 943 l 1
 126 965 221 1006 302 1057 c 1
 302 0 l 1
EndSplineSet
EndChar

StartChar: oslash
Encoding: 361 248 105
Width: 1146
VWidth: 0
Flags: HW
LayerCount: 2
Fore
SplineSet
865 901 m 1
 915 866 l 1
 265 -74 l 1
 215 -39 l 1
 865 901 l 1
EndSplineSet
Refer: 96 111 N 1 0 0 1 0 0 2
EndChar

StartChar: p
Encoding: 362 112 106
Width: 1074
VWidth: 0
Flags: HW
AnchorPoint: "top" 575 916.1 basechar 0
LayerCount: 2
Fore
SplineSet
165 -417 m 1
 293 -396 l 1
 293 38 l 1
 293 38 388 -16 567 -16 c 0
 820 -16 966 171 966 410 c 0
 966 654 805 839 572 839 c 0
 459 839 363 806 293 745 c 1
 293 824 l 1
 165 824 l 1
 165 -417 l 1
544 81 m 0
 404 81 293 128 293 128 c 1
 293 649 l 1
 305 661 411 743 539 743 c 0
 731 743 839 623 839 412 c 0
 839 241 757 81 544 81 c 0
EndSplineSet
EndChar

StartChar: paragraph
Encoding: 363 182 107
Width: 1021
VWidth: 0
Flags: HW
LayerCount: 2
Fore
SplineSet
525 0 m 1
 653 0 l 1
 653 1148 l 1
 744 1148 l 1
 744 0 l 1
 872 0 l 1
 872 1241 l 1
 614 1241 l 2
 331 1241 137 1195 137 956 c 0
 137 700.585 308.125 643.747 498.93 639.296 c 0
 507.584 639.094 516.279 639 525 639 c 1
 525 0 l 1
EndSplineSet
EndChar

StartChar: parenleft
Encoding: 364 40 108
Width: 451
VWidth: 0
Flags: HW
LayerCount: 2
Fore
SplineSet
99 653 m 0
 99 910 146 1142 240 1341 c 1
 368 1341 l 1
 275 1133 234 886 234 653 c 0
 234 420 275 173 368 -35 c 1
 240 -35 l 1
 146 164 99 396 99 653 c 0
EndSplineSet
EndChar

StartChar: parenright
Encoding: 365 41 109
Width: 452
VWidth: 0
Flags: HW
LayerCount: 2
Fore
SplineSet
354 653 m 0
 354 396 307 164 213 -35 c 1
 85 -35 l 1
 178 173 219 420 219 653 c 0
 219 886 178 1133 85 1341 c 1
 213 1341 l 1
 307 1142 354 910 354 653 c 0
EndSplineSet
EndChar

StartChar: period
Encoding: 366 46 110
Width: 475
VWidth: 0
Flags: W
HStem: -16 176<159.867 315.221>
VStem: 149 178<-5.51747 149.146>
LayerCount: 2
Fore
SplineSet
327 72 m 0
 327 114 296 160 239 160 c 0
 180 160 149 115 149 72 c 0
 149 28 180 -16 239 -16 c 0
 296 -16 327 28 327 72 c 0
EndSplineSet
EndChar

StartChar: plus
Encoding: 367 43 111
Width: 837
VWidth: 0
Flags: HW
LayerCount: 2
Fore
SplineSet
464 559 m 1
 688 559 l 1
 688 652 l 1
 464 652 l 1
 464 876 l 1
 371 876 l 1
 371 652 l 1
 148 652 l 1
 148 559 l 1
 371 559 l 1
 371 336 l 1
 464 336 l 1
 464 559 l 1
EndSplineSet
EndChar

StartChar: q
Encoding: 368 113 112
Width: 1074
VWidth: 0
Flags: HW
AnchorPoint: "top" 574 916.1 basechar 0
>>>>>>> 7255645dac4ba5f910ba611d9d4612a8db436e23
LayerCount: 2
Fore
SplineSet
182 0 m 1
 310 0 l 1
 310 595 l 1
 310 595 440 742 629 742 c 0
 775 742 846 690 846 559 c 2
 846 0 l 1
 974 0 l 1
 974 580 l 2
 974 735 831 840 673 840 c 0
 428 840 310 694 310 694 c 1
 310 1241 l 1
 182 1219 l 1
 182 0 l 1
EndSplineSet
<<<<<<< HEAD
EndChar

StartChar: hyphen
Encoding: 13 45 88
AltUni2: 002014.ffffffff.0 002013.ffffffff.0
Width: 847
VWidth: 0
Flags: HW
PickledData: "(dp1
S'com.typemytype.robofont.layerData'
p2
(dp3
S'back'
p4
(dp5
S'name'
p6
S'hyphen'
p7
sS'lib'
p8
(dp9
sS'unicodes'
p10
(tsS'width'
p11
I1009
sS'contours'
p12
(tsS'components'
p13
(tsS'anchors'
p14
(tsss."
LayerCount: 2
Fore
SplineSet
153 559 m 1
 693 559 l 1
 693 652 l 1
 153 652 l 1
 153 559 l 1
EndSplineSet
EndChar

StartChar: i
Encoding: 73 105 89
Width: 508
VWidth: 0
Flags: HW
PickledData: "(dp1
S'com.typemytype.robofont.layerData'
p2
(dp3
S'back'
p4
(dp5
S'name'
p6
S'i'
sS'lib'
p7
(dp8
sS'unicodes'
p9
(tsS'width'
p10
I508
sS'contours'
p11
(tsS'components'
p12
(tsS'anchors'
p13
(tsss."
AnchorPoint: "bot" 254 0 basechar 0
LayerCount: 2
Fore
SplineSet
255 1064 m 0
 312 1064 343 1108 343 1152 c 0
 343 1194 312 1240 255 1240 c 0
 196 1240 165 1195 165 1152 c 0
 165 1108 196 1064 255 1064 c 0
193 0 m 1
 321 0 l 1
 321 824 l 1
 193 824 l 1
 193 0 l 1
EndSplineSet
EndChar

StartChar: j
Encoding: 74 106 90
Width: 529
VWidth: 0
Flags: W
PickledData: "(dp1
S'com.typemytype.robofont.layerData'
p2
(dp3
S'back'
p4
(dp5
S'name'
p6
S'j'
sS'lib'
p7
(dp8
sS'unicodes'
p9
(tsS'width'
p10
I529
sS'contours'
p11
(tsS'components'
p12
(tsS'anchors'
p13
(tsss."
LayerCount: 2
Fore
SplineSet
276 1064 m 0
 333 1064 364 1108 364 1152 c 0
 364 1194 333 1240 276 1240 c 0
 217 1240 186 1195 186 1152 c 0
 186 1108 217 1064 276 1064 c 0
46 -326 m 1
 312 -312 348 -182 348 -79 c 2
 348 824 l 1
 220 824 l 1
 220 -76 l 2
 220 -178 145 -213 49 -221 c 0
 41 -222 33 -222 24 -223 c 1
 46 -326 l 1
EndSplineSet
EndChar

StartChar: k
Encoding: 75 107 91
Width: 888
VWidth: 0
Flags: HW
PickledData: "(dp1
S'com.typemytype.robofont.layerData'
p2
(dp3
S'back'
p4
(dp5
S'name'
p6
S'k'
sS'lib'
p7
(dp8
sS'unicodes'
p9
(tsS'width'
p10
I888
sS'contours'
p11
(tsS'components'
p12
(tsS'anchors'
p13
(tsss."
AnchorPoint: "bot" 489 0 basechar 0
AnchorPoint: "top" 554 840 basechar 0
LayerCount: 2
Fore
SplineSet
165 -1 m 1
 293 -1 l 1
 293 408 l 1
 728 0 l 1
 891 0 l 1
 422 441 l 1
 831 823 l 1
 673 823 l 1
 293 464 l 1
 293 1241 l 1
 165 1221 l 1
 165 -1 l 1
EndSplineSet
EndChar

StartChar: l
Encoding: 76 108 92
Width: 597
VWidth: 0
Flags: HW
PickledData: "(dp1
S'com.typemytype.robofont.layerData'
p2
(dp3
S'back'
p4
(dp5
S'name'
p6
S'l'
sS'lib'
p7
(dp8
sS'unicodes'
p9
(tsS'width'
p10
I597
sS'contours'
p11
(tsS'components'
p12
(tsS'anchors'
p13
(tsss."
AnchorPoint: "bot" 382 0 basechar 0
AnchorPoint: "top" 554 840 basechar 0
LayerCount: 2
Fore
SplineSet
383 -16 m 0
 462 -16 509 1 542 14 c 1
 542 105 l 1
 518 98 459 81 402 81 c 0
 323 81 293 124 293 246 c 2
 293 1241 l 1
 165 1219 l 1
 165 218 l 2
 165 60 258 -16 383 -16 c 0
EndSplineSet
EndChar

StartChar: less
Encoding: 28 60 93
Width: 990
VWidth: 0
Flags: HW
PickledData: "(dp1
S'com.typemytype.robofont.guides'
p2
((dp3
S'angle'
p4
F90
sS'name'
p5
NsS'magnetic'
p6
I5
sS'isGlobal'
p7
I00
sS'y'
I147
sS'x'
I529
stp8
sS'com.typemytype.robofont.layerData'
p9
(dp10
S'back'
p11
(dp12
g5
S'less'
p13
sS'lib'
p14
(dp15
sS'unicodes'
p16
(tsS'width'
p17
I912
sS'contours'
p18
(tsS'components'
p19
(tsS'anchors'
p20
(tsss."
LayerCount: 2
Fore
SplineSet
914 -12 m 1
 914 115 l 1
 297 389 l 1
 914 674 l 1
 914 804 l 1
 58 390 l 1
 914 -12 l 1
EndSplineSet
EndChar

StartChar: logicalnot
Encoding: 107 172 94
Width: 894
VWidth: 0
Flags: HW
PickledData: "(dp1
S'com.typemytype.robofont.layerData'
p2
(dp3
S'back'
p4
(dp5
S'name'
p6
S'logicalnot'
p7
sS'lib'
p8
(dp9
sS'unicodes'
p10
(tsS'width'
p11
I1009
sS'contours'
p12
(tsS'components'
p13
(tsS'anchors'
p14
(tsss."
LayerCount: 2
Fore
SplineSet
649 461 m 1
 742 461 l 1
 742 824 l 1
 149 824 l 1
 149 731 l 1
 649 731 l 1
 649 461 l 1
EndSplineSet
EndChar

StartChar: question
Encoding: 369 63 113
Width: 858
VWidth: 0
Flags: W
HStem: -16 176<162.867 318.221> 1167 107<220.795 559.085>
VStem: 152 178<-5.51747 149.146> 640 129<796.086 1087.4>
LayerCount: 2
Fore
SplineSet
226 348 m 1
 338 348 l 1
 611.27 629.396 769 755 769 947 c 0
 769 1162 606 1274 415 1274 c 0
 277 1274 139 1214 77 1160 c 1
 130 1068 l 1
 205 1124 301 1167 407 1167 c 0
 525 1167 640 1101 640 954 c 0
 640 809 560 719 226 348 c 1
EndSplineSet
Refer: 110 46 N 1 0 0 1 3 0 2
EndChar

StartChar: questiondown
Encoding: 370 191 114
Width: 892
VWidth: 0
Flags: HW
LayerCount: 2
Fore
SplineSet
461 -446 m 0
 599 -446 737 -386 799 -332 c 1
 746 -240 l 1
 671 -296 575 -339 469 -339 c 0
 351 -339 236 -273 236 -126 c 0
 236 19 316 109 650 480 c 1
 538 480 l 1
 265 199 107 73 107 -119 c 0
 107 -334 270 -446 461 -446 c 0
EndSplineSet
Refer: 110 46 N -1 1.11022e-16 -1.11022e-16 -1 873 828 2
EndChar

StartChar: r
Encoding: 373 114 117
Width: 713
VWidth: 0
Flags: HW
AnchorPoint: "top" 465 916.1 basechar 0
LayerCount: 2
Fore
SplineSet
717 744 m 1
 658 804 609 829 561 829 c 0
 406 829 293 573 293 573 c 1
 293 824 l 1
 165 824 l 1
 165 0 l 1
 293 0 l 1
 293 413 l 2
 293 540 414 703 543 703 c 0
 595 703 641 681 681 648 c 1
 717 744 l 1
EndSplineSet
EndChar

StartChar: ring
Encoding: 374 730 118
Width: 728
VWidth: 0
Flags: HW
AnchorPoint: "top" 361 -1 mark 0
LayerCount: 2
Fore
SplineSet
582 339 m 0
 582 207 477 131 363 131 c 0
 250 131 146 206 146 339 c 0
 146 473 250 550 364 550 c 0
 471 550 582 473 582 339 c 0
363 205 m 0
 451 205 495 271 495 338 c 0
 495 406 449 474 363 474 c 0
 277 474 231 406 231 339 c 0
 231 266 275 205 363 205 c 0
EndSplineSet
EndChar

StartChar: s
Encoding: 375 115 119
Width: 812
VWidth: 0
Flags: HW
AnchorPoint: "bot" 462.5 0.199951 basechar 0
AnchorPoint: "top" 445 916.1 basechar 0
>>>>>>> 7255645dac4ba5f910ba611d9d4612a8db436e23
LayerCount: 2
Fore
SplineSet
165 0 m 1
 293 0 l 1
 293 595 l 1
 293 595 397 742 586 742 c 0
 732 742 787 690 787 559 c 2
 787 0 l 1
 915 0 l 1
 915 595 l 1
 915 595 1017 742 1206 742 c 0
 1352 742 1409 690 1409 559 c 2
 1409 0 l 1
 1537 0 l 1
 1537 580 l 2
 1537 735 1424 840 1241 840 c 0
 996 840 893 685 893 685 c 1
 851 780 749 840 630 840 c 0
 385 840 290 694 290 694 c 1
 290 824 l 1
 165 824 l 1
 165 0 l 1
EndSplineSet
<<<<<<< HEAD
EndChar

StartChar: seven
Encoding: 377 55 121
Width: 987
VWidth: 0
Flags: W
>>>>>>> 7255645dac4ba5f910ba611d9d4612a8db436e23
LayerCount: 2
Fore
SplineSet
153 555 m 1
 763 555 l 1
 763 648 l 1
 153 648 l 1
 153 555 l 1
EndSplineSet
EndChar

<<<<<<< HEAD
StartChar: mu
Encoding: 65537 956 98
Width: 1098
VWidth: 0
Flags: HW
PickledData: "(dp1
S'com.typemytype.robofont.layerData'
p2
(dp3
S'back'
p4
(dp5
S'name'
p6
S'mu'
p7
sS'lib'
p8
(dp9
sS'unicodes'
p10
(tsS'width'
p11
F1150
sS'contours'
p12
(tsS'components'
p13
(tsS'anchors'
p14
(tsss."
LayerCount: 2
Fore
SplineSet
153 -248 m 1
 281 -248 l 1
 281 299 l 1
 153 299 l 1
 153 -248 l 1
EndSplineSet
Refer: 145 117 N 1 0 0 1 4 0 2
EndChar

StartChar: slash
Encoding: 379 47 123
Width: 805
VWidth: 0
Flags: HW
LayerCount: 2
Fore
SplineSet
620 1241 m 1
 62 0 l 1
 180 0 l 1
 740 1241 l 1
 620 1241 l 1
EndSplineSet
EndChar

StartChar: space
Encoding: 380 32 124
Width: 492
VWidth: 0
Flags: W
>>>>>>> 7255645dac4ba5f910ba611d9d4612a8db436e23
LayerCount: 2
Fore
SplineSet
204 382 m 1
 362 540 l 1
 520 382 l 1
 585 448 l 1
 428 605 l 1
 586 764 l 1
 520 829 l 1
 362 671 l 1
 204 829 l 1
 138 764 l 1
 296 605 l 1
 139 448 l 1
 204 382 l 1
EndSplineSet
EndChar

<<<<<<< HEAD
StartChar: n
Encoding: 78 110 100
Width: 1101
VWidth: 0
Flags: HW
PickledData: "(dp1
S'com.typemytype.robofont.layerData'
p2
(dp3
S'back'
p4
(dp5
S'name'
p6
S'n'
sS'lib'
p7
(dp8
sS'unicodes'
p9
(tsS'width'
p10
I1101
sS'contours'
p11
(tsS'components'
p12
(tsS'anchors'
p13
(tsss."
AnchorPoint: "top" 634 840 basechar 0
LayerCount: 2
Fore
SplineSet
165 0 m 1
 293 0 l 1
 293 595 l 1
 293 595 419 742 608 742 c 0
 754 742 829 690 829 559 c 2
 829 0 l 1
 957 0 l 1
 957 580 l 2
 957 735 810 840 652 840 c 0
 407 840 290 694 290 694 c 1
 290 824 l 1
 165 824 l 1
 165 0 l 1
EndSplineSet
EndChar

StartChar: nine
Encoding: 25 57 101
Width: 1111
VWidth: 0
Flags: W
PickledData: "(dp1
S'com.typemytype.robofont.layerData'
p2
(dp3
S'back'
p4
(dp5
S'name'
p6
S'nine'
p7
sS'lib'
p8
(dp9
sS'unicodes'
p10
(tsS'width'
p11
I1111
sS'contours'
p12
((dp13
S'points'
p14
((dp15
S'segmentType'
p16
S'curve'
p17
sS'x'
F588
sS'smooth'
p18
I01
sS'y'
F-34
s(dp19
S'y'
F-34
sS'x'
F906
sg18
I00
s(dp20
S'y'
F179
sS'x'
F1106
sg18
I00
s(dp21
g16
S'curve'
p22
sS'x'
F1106
sg18
I01
sS'y'
F619
s(dp23
S'y'
F1081
sS'x'
F1106
sg18
I00
s(dp24
S'y'
F1274
sS'x'
F912
sg18
I00
s(dp25
g16
S'curve'
p26
sS'x'
F588
sg18
I01
sS'y'
F1274
s(dp27
S'y'
F1274
sS'x'
F264
sg18
I00
s(dp28
S'y'
F1081
sS'x'
F69
sg18
I00
s(dp29
g16
S'curve'
p30
sS'x'
F69
sg18
I01
sS'y'
F619
s(dp31
S'y'
F179
sS'x'
F69
sg18
I00
s(dp32
S'y'
F-34
sS'x'
F270
sg18
I00
stp33
s(dp34
g14
((dp35
g16
S'curve'
p36
sS'x'
F588
sg18
I01
sS'y'
F73
s(dp37
S'y'
F73
sS'x'
F345
sg18
I00
s(dp38
S'y'
F222
sS'x'
F199
sg18
I00
s(dp39
g16
S'curve'
p40
sS'x'
F199
sg18
I01
sS'y'
F619
s(dp41
S'y'
F1011
sS'x'
F199
sg18
I00
s(dp42
S'y'
F1167
sS'x'
F345
sg18
I00
s(dp43
g16
S'curve'
p44
sS'x'
F588
sg18
I01
sS'y'
F1167
s(dp45
S'y'
F1167
sS'x'
F831
sg18
I00
s(dp46
S'y'
F1011
sS'x'
F976
sg18
I00
s(dp47
g16
S'curve'
p48
sS'x'
F976
sg18
I01
sS'y'
F619
s(dp49
S'y'
F222
sS'x'
F976
sg18
I00
s(dp50
S'y'
F73
sS'x'
F831
sg18
I00
stp51
stp52
sS'components'
p53
(tsS'anchors'
p54
(tsss."
LayerCount: 2
Fore
SplineSet
324 0 m 1
 473 0 l 1
 473 0 719 318 792 427 c 0
 908 599 954 708 954 872 c 0
 954 1097 811 1274 570 1274 c 0
 342 1274 174 1104 174 882 c 0
 174 653 360 510 549 510 c 0
 609 510 693 528 741 563 c 1
 324 0 l 1
570 610 m 0
 407 610 296 718 296 883 c 0
 296 1039 410 1167 577 1167 c 0
 744 1167 832 1043 832 889 c 0
 832 736 751 610 570 610 c 0
EndSplineSet
EndChar

StartChar: numbersign
Encoding: 3 35 103
Width: 1135
VWidth: 0
Flags: HW
PickledData: "(dp1
S'com.typemytype.robofont.layerData'
p2
(dp3
S'back'
p4
(dp5
S'name'
p6
S'numbersign'
p7
sS'lib'
p8
(dp9
sS'unicodes'
p10
(tsS'width'
p11
I1134
sS'contours'
p12
(tsS'components'
p13
(tsS'anchors'
p14
(tsss."
LayerCount: 2
Fore
SplineSet
106 420 m 1
 981 420 l 1
 981 513 l 1
 106 513 l 1
 106 420 l 1
139 0 m 1
 257 0 l 1
 607 1241 l 1
 487 1241 l 1
 139 0 l 1
156 731 m 1
 1031 731 l 1
 1031 824 l 1
 156 824 l 1
 156 731 l 1
519 0 m 1
 637 0 l 1
 987 1241 l 1
 867 1241 l 1
 519 0 l 1
EndSplineSet
EndChar

StartChar: sterling
Encoding: 381 163 125
Width: 978
VWidth: 0
Flags: HW
LayerCount: 2
Fore
SplineSet
602 -22 m 0
 757 -22 908 64 908 269 c 1
 785 269 l 1
 785 144 700 85 599 85 c 0
 487 85 380 146 326 227 c 1
 349 296 357 361 357 423 c 0
 357 470 349 519 338 568 c 1
 586 568 l 1
 586 666 l 1
 311 666 l 1
 282 764 249 856 249 924 c 0
 249 1089 384 1166 501 1166 c 0
 627 1166 709 1084 733 1065 c 1
 794 1148 l 1
 753 1193 642 1274 498 1274 c 0
 323 1274 130 1164 130 920 c 0
 130 852 163 762 192 666 c 1
 82 666 l 1
 82 568 l 1
 219 568 l 1
 230 520 238 472 238 425 c 0
 238 307 192 169 65 0 c 1
 207 0 l 1
 237 41 261 80 281 119 c 1
 363 32 482 -22 602 -22 c 0
EndSplineSet
EndChar

StartChar: t
Encoding: 382 116 126
Width: 708
VWidth: 0
Flags: HW
AnchorPoint: "bot" 443.5 0.199951 basechar 0
AnchorPoint: "top" 445 916.1 basechar 0
LayerCount: 2
Fore
SplineSet
444 -16 m 0
 557 -16 620 19 653 39 c 1
 653 132 l 1
 622 118 554 81 461 81 c 0
 389 81 328 102 328 208 c 2
 328 726 l 1
 608 726 l 1
 608 824 l 1
 328 824 l 1
 328 997 l 1
 99 747 l 2
 97 745 95 741 95 738 c 0
 95 732 100 726 111 726 c 2
 200 726 l 1
 200 191 l 2
 200 57 311 -16 444 -16 c 0
EndSplineSet
EndChar

StartChar: thorn
Encoding: 383 254 127
Width: 1074
VWidth: 0
Flags: W
>>>>>>> 7255645dac4ba5f910ba611d9d4612a8db436e23
LayerCount: 2
Fore
SplineSet
552 -16 m 0
 320 -16 108 138 108 408 c 0
 108 682 321 840 554 840 c 0
 771 840 998 683 998 408 c 0
 998 139 785 -16 552 -16 c 0
553 81 m 0
 769 81 879 244 879 409 c 0
 879 575 765 742 553 742 c 0
 341 742 227 576 227 410 c 0
 227 230 337 81 553 81 c 0
EndSplineSet
EndChar

<<<<<<< HEAD
StartChar: ogonek
Encoding: 343 731 108
Width: 451
VWidth: 0
Flags: HW
PickledData: "(dp1
S'com.typemytype.robofont.layerData'
p2
(dp3
S'back'
p4
(dp5
S'name'
p6
S'ogonek'
p7
sS'lib'
p8
(dp9
sS'unicodes'
p10
(tsS'width'
p11
I424
sS'contours'
p12
(tsS'components'
p13
(tsS'anchors'
p14
(tsss."
AnchorPoint: "bot" 300.75 -0.200195 mark 0
LayerCount: 2
Fore
SplineSet
264 -376 m 1
 333 -318 l 1
 268 -263 244 -214 244 -170 c 0
 244 -109 289 -56 333 0 c 1
 274 0 l 1
 165 -92 124 -166 124 -225 c 0
 124 -299 189 -348 264 -376 c 1
EndSplineSet
EndChar

StartChar: one
Encoding: 17 49 110
Width: 591
VWidth: 0
Flags: W
PickledData: "(dp1
S'com.typemytype.robofont.layerData'
p2
(dp3
S'back'
p4
(dp5
S'name'
p6
S'one'
p7
sS'lib'
p8
(dp9
sS'unicodes'
p10
(tsS'width'
p11
I591
sS'contours'
p12
(tsS'components'
p13
(tsS'anchors'
p14
(tsss."
LayerCount: 2
Fore
SplineSet
302 0 m 1
 430 0 l 1
 430 1258 l 1
 430 1258 257 1128 53 1046 c 1
 53 943 l 1
 126 965 221 1006 302 1057 c 1
 302 0 l 1
EndSplineSet
EndChar

StartChar: oslash
Encoding: 180 248 114
Width: 1146
VWidth: 0
Flags: W
PickledData: "(dp1
S'com.typemytype.robofont.layerData'
p2
(dp3
S'back'
p4
(dp5
S'name'
p6
S'oslash'
p7
sS'lib'
p8
(dp9
sS'unicodes'
p10
(tsS'width'
p11
F1146
sS'contours'
p12
(tsS'components'
p13
(tsS'anchors'
p14
(tsss."
LayerCount: 2
Fore
SplineSet
265 -74 m 1
 215 -39 l 1
 865 901 l 1
 915 866 l 1
 265 -74 l 1
EndSplineSet
Refer: 104 111 N 1 0 0 1 0 0 2
EndChar

StartChar: p
Encoding: 80 112 115
Width: 1074
VWidth: 0
Flags: W
PickledData: "(dp1
S'name'
p2
S'd'
sS'com.typemytype.robofont.layerData'
p3
(dp4
S'back'
p5
(dp6
g2
S'p'
sS'lib'
p7
(dp8
g2
S'd'
sS'unicodes'
p9
(tsS'width'
p10
I1113
sS'contours'
p11
(tsS'components'
p12
(tsS'anchors'
p13
(tssg9
(tsg10
I1074
sg11
((dp14
S'points'
p15
((dp16
S'segmentType'
p17
S'line'
p18
sS'x'
F165
sS'smooth'
p19
I00
sS'y'
F824
s(dp20
g17
S'line'
p21
sS'x'
F165
sg19
I00
sS'y'
F595
s(dp22
g17
S'line'
p23
sS'x'
F293
sg19
I00
sS'y'
F595
s(dp24
g17
S'line'
p25
sS'x'
F293
sg19
I00
sS'y'
F824
stp26
s(dp27
g15
((dp28
g17
S'curve'
p29
sS'x'
F520
sg19
I01
sS'y'
F840
s(dp30
S'y'
F840
sS'x'
F389
sg19
I00
s(dp31
S'y'
F723
sS'x'
F250
sg19
I00
s(dp32
g17
S'curve'
p33
sS'x'
F165
sg19
I00
sS'y'
F611
s(dp34
g17
S'line'
p35
sS'x'
F165
sg19
I00
sS'y'
F-417
s(dp36
g17
S'line'
p37
sS'x'
F293
sg19
I00
sS'y'
F-396
s(dp38
g17
S'line'
p39
sS'x'
F293
sg19
I00
sS'y'
F33
s(dp40
S'y'
F33
sS'x'
F293
sg19
I00
s(dp41
S'y'
F-16
sS'x'
F397
sg19
I00
s(dp42
g17
S'curve'
p43
sS'x'
F576
sg19
I01
sS'y'
F-16
s(dp44
S'y'
F-16
sS'x'
F811
sg19
I00
s(dp45
S'y'
F174
sS'x'
F966
sg19
I00
s(dp46
g17
S'curve'
p47
sS'x'
F966
sg19
I01
sS'y'
F413
s(dp48
S'y'
F670
sS'x'
F966
sg19
I00
s(dp49
S'y'
F840
sS'x'
F806
sg19
I00
stp50
s(dp51
g15
((dp52
g17
S'curve'
p53
sS'x'
F522
sg19
I01
sS'y'
F743
s(dp54
S'y'
F743
sS'x'
F714
sg19
I00
s(dp55
S'y'
F633
sS'x'
F839
sg19
I00
s(dp56
g17
S'curve'
p57
sS'x'
F839
sg19
I01
sS'y'
F422
s(dp58
S'y'
F251
sS'x'
F839
sg19
I00
s(dp59
S'y'
F82
sS'x'
F757
sg19
I00
s(dp60
g17
S'curve'
p61
sS'x'
F544
sg19
I01
sS'y'
F82
s(dp62
S'y'
F82
sS'x'
F404
sg19
I00
s(dp63
S'y'
F128
sS'x'
F293
sg19
I00
s(dp64
g17
S'curve'
p65
sS'x'
F293
sg19
I00
sS'y'
F128
s(dp66
g17
S'line'
p67
sS'x'
F293
sg19
I00
sS'y'
F646
s(dp68
S'y'
F658
sS'x'
F305
sg19
I00
s(dp69
S'y'
F743
sS'x'
F394
sg19
I00
stp70
stp71
sg12
(tsg13
(tsssg9
(tsg10
I1113
sg11
(tsg12
(tsg13
(ts."
LayerCount: 2
Fore
SplineSet
165 -417 m 1
 293 -396 l 1
 293 38 l 1
 293 38 388 -16 567 -16 c 0
 820 -16 966 171 966 410 c 0
 966 654 805 839 572 839 c 0
 459 839 363 806 293 745 c 1
 293 824 l 1
 165 824 l 1
 165 -417 l 1
544 81 m 0
 404 81 293 128 293 128 c 1
 293 649 l 1
 305 661 411 743 539 743 c 0
 731 743 839 623 839 412 c 0
 839 241 757 81 544 81 c 0
=======
StartChar: three
Encoding: 384 51 128
Width: 901
VWidth: 0
Flags: W
LayerCount: 2
Fore
SplineSet
409 -33 m 0
 657 -33 797 106 797 304 c 0
 797 486 658 613 508 663 c 1
 632 703 771 799 771 961 c 0
 771 1183 597 1275 418 1275 c 0
 313 1275 195 1242 121 1192 c 1
 161 1097 l 1
 222 1142 323 1173 410 1173 c 0
 529 1173 654 1115 654 962 c 0
 654 808 479 727 297 680 c 1
 297 640 l 1
 586 567 678 455 678 299 c 0
 678 161 567 70 419 70 c 0
 342 70 245 94 151 142 c 1
 121 47 l 1
 204 -3 323 -33 409 -33 c 0
EndSplineSet
EndChar

StartChar: tilde
Encoding: 385 732 129
Width: 899
VWidth: 0
Flags: HW
AnchorPoint: "top" 441.5 0 mark 0
LayerCount: 2
Fore
SplineSet
761 126 m 1
 761 287 698 334 612 334 c 0
 512 334 366 224 302 224 c 0
 257 224 238 249 238 320 c 1
 140 320 l 1
 140 162 214 112 290 112 c 0
 415 112 523 218 607 218 c 0
 647 218 663 186 663 126 c 1
 761 126 l 1
EndSplineSet
EndChar

StartChar: two
Encoding: 386 50 130
Width: 940
VWidth: 0
Flags: W
LayerCount: 2
Fore
SplineSet
94 0 m 1
 835 0 l 1
 835 106 l 1
 319 106 l 1
 626 503 l 2
 741 652 823 763 823 920 c 0
 823 1136 674 1274 473 1274 c 0
 335 1274 197 1214 135 1160 c 1
 185 1058 l 1
 234 1101 353 1167 469 1167 c 0
 592 1167 698 1090 698 935 c 0
 698 795.871 624.094 701.101 538 587 c 2
 94 0 l 1
>>>>>>> 7255645dac4ba5f910ba611d9d4612a8db436e23
EndSplineSet
EndChar

<<<<<<< HEAD
StartChar: u
Encoding: 387 117 131
Width: 1106
VWidth: 0
Flags: W
HStem: -16 98<334.337 675.797>
VStem: 149 128<139.25 265> 813 128<185.69 229>
AnchorPoint: "bot" 863.5 0.199951 basechar 0
AnchorPoint: "top" 555 916.1 basechar 0
>>>>>>> 7255645dac4ba5f910ba611d9d4612a8db436e23
LayerCount: 2
Fore
SplineSet
525 0 m 1
 653 0 l 1
 653 1148 l 1
 744 1148 l 1
 744 0 l 1
 872 0 l 1
 872 1241 l 1
 614 1241 l 2
 331 1241 137 1195 137 956 c 0
 137 700.585 308.125 643.747 498.93 639.296 c 0
 507.584 639.094 516.279 639 525 639 c 1
 525 0 l 1
EndSplineSet
<<<<<<< HEAD
EndChar

StartChar: parenleft
Encoding: 8 40 117
Width: 451
VWidth: 0
Flags: HW
PickledData: "(dp1
S'name'
p2
S'parenleft'
p3
sS'unicodes'
p4
(tsS'width'
p5
I586
sS'contours'
p6
(tsS'components'
p7
(tsS'anchors'
p8
(ts."
LayerCount: 2
Fore
SplineSet
240 -35 m 1
 146 164 99 396 99 653 c 0
 99 910 146 1142 240 1341 c 1
 368 1341 l 1
 275 1133 234 886 234 653 c 0
 234 420 275 173 368 -35 c 1
 240 -35 l 1
EndSplineSet
EndChar

StartChar: parenright
Encoding: 9 41 118
Width: 452
VWidth: 0
Flags: HW
PickledData: "(dp1
S'name'
p2
S'parenleft'
p3
sS'com.typemytype.robofont.layerData'
p4
(dp5
S'back'
p6
(dp7
g2
S'parenright'
p8
sS'lib'
p9
(dp10
sS'unicodes'
p11
(tsS'width'
p12
I586
sS'contours'
p13
(tsS'components'
p14
(tsS'anchors'
p15
(tsssg11
(tsg12
I586
sg13
(tsg14
(tsg15
(ts."
LayerCount: 2
Fore
SplineSet
85 -35 m 1
 178 173 219 420 219 653 c 0
 219 886 178 1133 85 1341 c 1
 213 1341 l 1
 307 1142 354 910 354 653 c 0
 354 396 307 164 213 -35 c 1
 85 -35 l 1
EndSplineSet
EndChar

StartChar: percent
Encoding: 5 37 119
Width: 1398
VWidth: 0
Flags: HW
PickledData: "(dp1
S'com.typemytype.robofont.layerData'
p2
(dp3
S'back'
p4
(dp5
S'name'
p6
S'percent'
p7
sS'lib'
p8
(dp9
sS'unicodes'
p10
(tsS'width'
p11
F1572.31220179
sS'contours'
p12
(tsS'components'
p13
(tsS'anchors'
p14
(tsss."
LayerCount: 2
Fore
SplineSet
299.29 0 m 1
 380.29 0 l 1
 1101.29 1241 l 1
 1018.29 1241 l 1
 299.29 0 l 1
EndSplineSet
Refer: 104 111 N 0.599168 0 0 0.599168 5.29004 737 2
Refer: 104 111 N 0.599168 0 0 0.599168 732.29 11 2
EndChar

StartChar: period
Encoding: 14 46 120
Width: 475
VWidth: 0
Flags: HW
PickledData: "(dp1
S'com.typemytype.robofont.layerData'
p2
(dp3
S'back'
p4
(dp5
S'name'
p6
S'period'
p7
sS'lib'
p8
(dp9
sS'unicodes'
p10
(tsS'width'
p11
I508
sS'contours'
p12
(tsS'components'
p13
(tsS'anchors'
p14
(tsss."
LayerCount: 2
Fore
SplineSet
239 -16 m 0
 296 -16 327 28 327 72 c 0
 327 114 296 160 239 160 c 0
 180 160 149 115 149 72 c 0
 149 28 180 -16 239 -16 c 0
EndSplineSet
EndChar

StartChar: underscore
Encoding: 390 95 134
Width: 980
VWidth: 0
Flags: HW
LayerCount: 2
Fore
SplineSet
153 -93 m 1
 826 -93 l 1
 826 0 l 1
 153 0 l 1
 153 -93 l 1
EndSplineSet
EndChar

StartChar: v
Encoding: 391 118 135
Width: 912
VWidth: 0
Flags: W
>>>>>>> 7255645dac4ba5f910ba611d9d4612a8db436e23
LayerCount: 2
Fore
SplineSet
371 336 m 1
 464 336 l 1
 464 559 l 1
 688 559 l 1
 688 652 l 1
 464 652 l 1
 464 876 l 1
 371 876 l 1
 371 652 l 1
 148 652 l 1
 148 559 l 1
 371 559 l 1
 371 336 l 1
EndSplineSet
<<<<<<< HEAD
EndChar

StartChar: w
Encoding: 392 119 136
Width: 1267
VWidth: 0
Flags: HW
AnchorPoint: "top" 635 916.1 basechar 0
>>>>>>> 7255645dac4ba5f910ba611d9d4612a8db436e23
LayerCount: 2
Fore
SplineSet
409 389 m 1
 502 389 l 1
 502 647 l 1
 761 647 l 1
 761 740 l 1
 502 740 l 1
 502 999 l 1
 409 999 l 1
 409 740 l 1
 151 740 l 1
 151 647 l 1
 409 647 l 1
 409 389 l 1
151 160 m 1
 761 160 l 1
 761 253 l 1
 151 253 l 1
 151 160 l 1
EndSplineSet
<<<<<<< HEAD
EndChar

StartChar: q
Encoding: 81 113 123
Width: 1074
VWidth: 0
Flags: W
PickledData: "(dp1
S'name'
p2
S'd'
sS'com.typemytype.robofont.layerData'
p3
(dp4
S'back'
p5
(dp6
g2
S'q'
sS'lib'
p7
(dp8
g2
S'd'
sS'unicodes'
p9
(tsS'width'
p10
I1113
sS'contours'
p11
(tsS'components'
p12
(tsS'anchors'
p13
(tssg9
(tsg10
I1074
sg11
((dp14
S'points'
p15
((dp16
S'segmentType'
p17
S'curve'
p18
sS'x'
F572
sS'smooth'
p19
I01
sS'y'
F81
s(dp20
S'y'
F81
sS'x'
F380
sg19
I00
s(dp21
S'y'
F191
sS'x'
F235
sg19
I00
s(dp22
g17
S'curve'
p23
sS'x'
F235
sg19
I01
sS'y'
F402
s(dp24
S'y'
F573
sS'x'
F235
sg19
I00
s(dp25
S'y'
F742
sS'x'
F317
sg19
I00
s(dp26
g17
S'curve'
p27
sS'x'
F530
sg19
I01
sS'y'
F742
s(dp28
S'y'
F742
sS'x'
F670
sg19
I00
s(dp29
S'y'
F666
sS'x'
F781
sg19
I00
s(dp30
g17
S'curve'
p31
sS'x'
F781
sg19
I00
sS'y'
F666
s(dp32
g17
S'line'
p33
sS'x'
F781
sg19
I00
sS'y'
F108
s(dp34
S'y'
F99
sS'x'
F742
sg19
I00
s(dp35
S'y'
F81
sS'x'
F668
sg19
I00
stp36
s(dp37
g15
((dp38
g17
S'curve'
p39
sS'x'
F574
sg19
I01
sS'y'
F-16
s(dp40
S'y'
F-16
sS'x'
F669
sg19
I00
s(dp41
S'y'
F4
sS'x'
F784
sg19
I00
s(dp42
g17
S'curve'
p43
sS'x'
F909
sg19
I00
sS'y'
F43
s(dp44
g17
S'line'
p45
sS'x'
F909
sg19
I00
sS'y'
F1241
s(dp46
g17
S'line'
p47
sS'x'
F781
sg19
I00
sS'y'
F1220
s(dp48
g17
S'line'
p49
sS'x'
F781
sg19
I00
sS'y'
F761
s(dp50
S'y'
F761
sS'x'
F781
sg19
I00
s(dp51
S'y'
F840
sS'x'
F677
sg19
I00
s(dp52
g17
S'curve'
p53
sS'x'
F498
sg19
I01
sS'y'
F840
s(dp54
S'y'
F840
sS'x'
F263
sg19
I00
s(dp55
S'y'
F650
sS'x'
F108
sg19
I00
s(dp56
g17
S'curve'
p57
sS'x'
F108
sg19
I01
sS'y'
F411
s(dp58
S'y'
F154
sS'x'
F108
sg19
I00
s(dp59
S'y'
F-16
sS'x'
F288
sg19
I00
stp60
stp61
sg12
(tsg13
(tsssg9
(tsg10
I1113
sg11
(tsg12
(tsg13
(ts."
LayerCount: 2
Fore
SplineSet
781 -413 m 1
 909 -413 l 1
 909 824 l 1
 781 824 l 1
 781 761 l 1
 694 824 593 840 514 840 c 0
 266 840 108 662 108 423 c 0
 108 156 281 -16 585 -16 c 0
 703 -16 781 11 781 11 c 1
 781 -413 l 1
587 82 m 0
 356 82 235 197 235 427 c 0
 235 631 378 743 527 743 c 0
 648 743 746 692 781 665 c 1
 781 109 l 1
 781 109 700 82 587 82 c 0
EndSplineSet
EndChar

StartChar: x
Encoding: 393 120 137
Width: 967
VWidth: 0
Flags: W
LayerCount: 2
Fore
SplineSet
484 352 m 1
 783 0 l 1
 914 0 l 1
 558 414 l 1
 906 824 l 1
 756 824 l 1
 480 488 l 1
 188 824 l 1
 54 824 l 1
 408 425 l 1
 53 0 l 1
 198 0 l 1
 484 352 l 1
EndSplineSet
EndChar

StartChar: y
Encoding: 394 121 138
Width: 923
VWidth: 0
Flags: HW
AnchorPoint: "top" 485 916.1 basechar 0
LayerCount: 2
Fore
SplineSet
892 824 m 1
 760 824 l 1
 487 300 l 1
 165 824 l 1
 29 824 l 1
 421 205 l 1
 190 -244 l 1
 326 -244 l 1
 892 824 l 1
EndSplineSet
EndChar

StartChar: yen
Encoding: 395 165 139
Width: 1214
VWidth: 0
Flags: HW
LayerCount: 2
Fore
SplineSet
677 437 m 1
 929 437 l 1
 929 530 l 1
 707 530 l 1
 770 647 l 1
 969 647 l 1
 969 740 l 1
 820 740 l 1
 1091 1241 l 1
 955 1241 l 1
 615 592 l 1
 251 1241 l 1
 122 1241 l 1
 403 740 l 1
 249 740 l 1
 249 647 l 1
 455 647 l 1
 520 530 l 1
 289 530 l 1
 289 437 l 1
 549 437 l 1
 549 0 l 1
 677 0 l 1
 677 437 l 1
EndSplineSet
EndChar

StartChar: z
Encoding: 396 122 140
Width: 860
VWidth: 0
Flags: HW
AnchorPoint: "top" 475 916.1 basechar 0
LayerCount: 2
Fore
SplineSet
756 98 m 1
 298 98 l 1
 784 824 l 1
 140.047 824 l 1
 140 726 l 1
 592 726 l 1
 97 0 l 1
 756 0 l 1
 756 98 l 1
EndSplineSet
EndChar

StartChar: zero
Encoding: 397 48 141
Width: 1239
VWidth: 0
Flags: W
>>>>>>> 7255645dac4ba5f910ba611d9d4612a8db436e23
LayerCount: 2
Fore
SplineSet
225 348 m 1
 337 348 l 1
 610.27 629.396 768 755 768 947 c 0
 768 1162 605 1274 414 1274 c 0
 276 1274 138 1214 76 1160 c 1
 129 1068 l 1
 204 1124 300 1167 406 1167 c 0
 524 1167 639 1101 639 954 c 0
 639 809 559 719 225 348 c 1
EndSplineSet
Refer: 120 46 N 1 0 0 1 2 0 2
EndChar

StartChar: questiondown
Encoding: 123 191 125
Width: 893
VWidth: 0
Flags: HW
PickledData: "(dp1
S'com.typemytype.robofont.layerData'
p2
(dp3
S'back'
p4
(dp5
S'name'
p6
S'questiondown'
p7
sS'lib'
p8
(dp9
sS'unicodes'
p10
(tsS'width'
p11
I1094
sS'contours'
p12
(tsS'components'
p13
(tsS'anchors'
p14
(tsss."
LayerCount: 2
Fore
SplineSet
461 -446 m 0
 599 -446 737 -386 799 -332 c 1
 746 -240 l 1
 671 -296 575 -339 469 -339 c 0
 351 -339 236 -273 236 -126 c 0
 236 19 316 109 650 480 c 1
 538 480 l 1
 265 199 107 73 107 -119 c 0
 107 -334 270 -446 461 -446 c 0
EndSplineSet
Refer: 120 46 N -1 1.11022e-16 -1.11022e-16 -1 873 828 2
EndChar

StartChar: quotedbl
Encoding: 2 34 126
Width: 636
VWidth: 0
Flags: HW
PickledData: "(dp1
S'com.typemytype.robofont.layerData'
p2
(dp3
S'back'
p4
(dp5
S'name'
p6
S'quotedbl'
p7
sS'lib'
p8
(dp9
sS'unicodes'
p10
(tsS'width'
p11
I543
sS'contours'
p12
(tsS'components'
p13
(tsS'anchors'
p14
(tsss."
LayerCount: 2
Fore
SplineSet
402 750 m 1
 450 750 l 1
 494 1241 l 1
 358 1241 l 1
 402 750 l 1
187 750 m 1
 235 750 l 1
 279 1241 l 1
 143 1241 l 1
 187 750 l 1
EndSplineSet
EndChar

StartChar: r
Encoding: 82 114 129
Width: 713
VWidth: 0
Flags: HW
PickledData: "(dp1
S'com.typemytype.robofont.layerData'
p2
(dp3
S'back'
p4
(dp5
S'name'
p6
S'r'
sS'lib'
p7
(dp8
sS'unicodes'
p9
(tsS'width'
p10
I713
sS'contours'
p11
((dp12
S'points'
p13
((dp14
S'segmentType'
p15
S'line'
p16
sS'x'
F717
sS'smooth'
p17
I00
sS'y'
F744
s(dp18
S'y'
F804
sS'x'
F658
sg17
I00
s(dp19
S'y'
F829
sS'x'
F609
sg17
I00
s(dp20
g15
S'curve'
p21
sS'x'
F561
sg17
I01
sS'y'
F829
s(dp22
S'y'
F829
sS'x'
F520
sg17
I00
s(dp23
S'y'
F783
sS'x'
F445
sg17
I00
s(dp24
g15
S'curve'
p25
sS'x'
F404
sg17
I01
sS'y'
F716
s(dp26
g15
S'line'
p27
sS'x'
F293
sg17
I00
sS'y'
F533
s(dp28
g15
S'line'
p29
sS'x'
F293
sg17
I00
sS'y'
F824
s(dp30
g15
S'line'
p31
sS'x'
F165
sg17
I00
sS'y'
F824
s(dp32
g15
S'line'
p33
sS'x'
F165
sg17
I00
sS'y'
F0
s(dp34
g15
S'line'
p35
sS'x'
F293
sg17
I00
sS'y'
F0
s(dp36
g15
S'line'
p37
sS'x'
F293
sg17
I01
sS'y'
F373
s(dp38
S'y'
F558
sS'x'
F293
sg17
I00
s(dp39
S'y'
F683
sS'x'
F385
sg17
I00
s(dp40
g15
S'curve'
p41
sS'x'
F514
sg17
I01
sS'y'
F683
s(dp42
S'y'
F683
sS'x'
F566
sg17
I00
s(dp43
S'y'
F661
sS'x'
F612
sg17
I00
s(dp44
g15
S'curve'
p45
sS'x'
F652
sg17
I00
sS'y'
F628
stp46
stp47
sS'components'
p48
(tsS'anchors'
p49
(tsss."
AnchorPoint: "top" 494 840 basechar 0
LayerCount: 2
Fore
SplineSet
165 0 m 1
 293 0 l 1
 293 413 l 2
 293 540 414 703 543 703 c 0
 595 703 641 681 681 648 c 1
 717 744 l 1
 658 804 609 829 561 829 c 0
 406 829 293 573 293 573 c 1
 293 824 l 1
 165 824 l 1
 165 0 l 1
EndSplineSet
EndChar

StartChar: ring
Encoding: 342 730 130
Width: 728
VWidth: 0
Flags: HW
PickledData: "(dp1
S'name'
p2
S'o'
sS'com.typemytype.robofont.layerData'
p3
(dp4
S'back'
p5
(dp6
g2
S'ring'
p7
sS'lib'
p8
(dp9
sS'unicodes'
p10
(tsS'width'
p11
I1106
sS'contours'
p12
(tsS'components'
p13
(tsS'anchors'
p14
(tsssg10
(tsS'com.typemytype.robofont.guides'
p15
(tsg11
I1146
sg12
(tsg13
(tsg14
(ts."
AnchorPoint: "top" 363.5 0 mark 0
LayerCount: 2
Fore
SplineSet
363 191 m 4
 250 191 146 266 146 399 c 4
 146 533 250 610 364 610 c 4
 471 610 582 533 582 399 c 4
 582 267 477 191 363 191 c 4
363 265 m 4
 451 265 495 331 495 398 c 4
 495 466 449 534 363 534 c 4
 277 534 231 466 231 399 c 4
 231 326 275 265 363 265 c 4
EndSplineSet
EndChar

StartChar: s
Encoding: 83 115 131
Width: 812
VWidth: 0
Flags: HW
PickledData: "(dp1
S'com.typemytype.robofont.layerData'
p2
(dp3
S'back'
p4
(dp5
S'name'
p6
S's'
sS'lib'
p7
(dp8
sS'unicodes'
p9
(tsS'width'
p10
F812
sS'contours'
p11
((dp12
S'points'
p13
((dp14
S'segmentType'
p15
S'line'
p16
sS'x'
F684
sS'smooth'
p17
I00
sS'y'
F779
s(dp18
S'y'
F802
sS'x'
F634
sg17
I00
s(dp19
S'y'
F840
sS'x'
F539
sg17
I00
s(dp20
g15
S'curve'
p21
sS'x'
F418
sg17
I01
sS'y'
F840
s(dp22
S'y'
F840
sS'x'
F231
sg17
I00
s(dp23
S'y'
F735
sS'x'
F144
sg17
I00
s(dp24
g15
S'curve'
p25
sS'x'
F144
sg17
I01
sS'y'
F631
s(dp26
S'y'
F563
sS'x'
F144
sg17
I00
s(dp27
S'y'
F483
sS'x'
F185
sg17
I00
s(dp28
g15
S'curve'
p29
sS'x'
F274
sg17
I01
sS'y'
F437
s(dp30
g15
S'line'
p31
sS'x'
F521
sg17
I01
sS'y'
F309
s(dp32
S'y'
F279
sS'x'
F580
sg17
I00
s(dp33
S'y'
F244
sS'x'
F604
sg17
I00
s(dp34
g15
S'curve'
p35
sS'x'
F604
sg17
I01
sS'y'
F194
s(dp36
S'y'
F127
sS'x'
F604
sg17
I00
s(dp37
S'y'
F81
sS'x'
F550
sg17
I00
s(dp38
g15
S'curve'
p39
sS'x'
F464
sg17
I01
sS'y'
F81
s(dp40
S'y'
F81
sS'x'
F374
sg17
I00
s(dp41
S'y'
F115
sS'x'
F229
sg17
I00
s(dp42
g15
S'curve'
p43
sS'x'
F134
sg17
I00
sS'y'
F174
s(dp44
g15
S'line'
p45
sS'x'
F122
sg17
I00
sS'y'
F77
s(dp46
S'y'
F46
sS'x'
F170
sg17
I00
s(dp47
S'y'
F-16
sS'x'
F295
sg17
I00
s(dp48
g15
S'curve'
p49
sS'x'
F466
sg17
I01
sS'y'
F-16
s(dp50
S'y'
F-16
sS'x'
F649
sg17
I00
s(dp51
S'y'
F94
sS'x'
F721
sg17
I00
s(dp52
g15
S'curve'
p53
sS'x'
F721
sg17
I01
sS'y'
F198
s(dp54
S'y'
F263
sS'x'
F721
sg17
I00
s(dp55
S'y'
F337
sS'x'
F690
sg17
I00
s(dp56
g15
S'curve'
p57
sS'x'
F608
sg17
I01
sS'y'
F380
s(dp58
g15
S'line'
p59
sS'x'
F339
sg17
I01
sS'y'
F521
s(dp60
S'y'
F549
sS'x'
F286
sg17
I00
s(dp61
S'y'
F577
sS'x'
F262
sg17
I00
s(dp62
g15
S'curve'
p63
sS'x'
F262
sg17
I01
sS'y'
F635
s(dp64
S'y'
F695
sS'x'
F262
sg17
I00
s(dp65
S'y'
F742
sS'x'
F322
sg17
I00
s(dp66
g15
S'curve'
p67
sS'x'
F424
sg17
I01
sS'y'
F742
s(dp68
S'y'
F742
sS'x'
F524
sg17
I00
s(dp69
S'y'
F714
sS'x'
F600
sg17
I00
s(dp70
g15
S'curve'
p71
sS'x'
F658
sg17
I00
sS'y'
F692
stp72
stp73
sS'components'
p74
(tsS'anchors'
p75
(tsss."
AnchorPoint: "bot" 457 0 basechar 0
AnchorPoint: "top" 430 840 basechar 0
LayerCount: 2
Fore
SplineSet
466 -16 m 0
 649 -16 721 94 721 198 c 0
 721 263 692 337 576 398 c 2
 355 514 l 2
 288 549 262 578 262 636 c 0
 262 696 322 743 424 743 c 0
 524 743 600 712 658 690 c 1
 684 779 l 1
 634 802 539 840 418 840 c 0
 231 840 144 735 144 631 c 0
 144 563 171 491 291 428 c 2
 509 315 l 2
 580 278 604 244 604 194 c 0
 604 127 550 81 464 81 c 0
 374 81 229 115 134 174 c 1
 120 75 l 1
 168 44 295 -16 466 -16 c 0
EndSplineSet
EndChar

StartChar: seven
Encoding: 23 55 133
Width: 987
VWidth: 0
Flags: W
PickledData: "(dp1
S'com.typemytype.robofont.layerData'
p2
(dp3
S'back'
p4
(dp5
S'name'
p6
S'seven'
p7
sS'lib'
p8
(dp9
sS'unicodes'
p10
(tsS'width'
p11
I987
sS'contours'
p12
(tsS'components'
p13
(tsS'anchors'
p14
(tsss."
LayerCount: 2
Fore
SplineSet
301 0 m 1
 428 0 l 1
 827 1142 l 1
 827 1241 l 1
 189 1241 l 1
 189 1135 l 1
 687 1135 l 1
 301 0 l 1
EndSplineSet
EndChar

StartChar: slash
Encoding: 15 47 135
AltUni2: 002215.ffffffff.0
Width: 805
VWidth: 0
Flags: HW
PickledData: "(dp1
S'com.typemytype.robofont.layerData'
p2
(dp3
S'back'
p4
(dp5
S'name'
p6
S'slash'
p7
sS'lib'
p8
(dp9
sS'unicodes'
p10
(tsS'width'
p11
I0
sS'contours'
p12
(tsS'components'
p13
(tsS'anchors'
p14
(tsss."
LayerCount: 2
Fore
SplineSet
62 0 m 1
 180 0 l 1
 740 1241 l 1
 620 1241 l 1
 62 0 l 1
EndSplineSet
EndChar

StartChar: sterling
Encoding: 98 163 137
Width: 978
VWidth: 0
Flags: HW
PickledData: "(dp1
S'com.typemytype.robofont.layerData'
p2
(dp3
S'back'
p4
(dp5
S'name'
p6
S'sterling'
p7
sS'lib'
p8
(dp9
sS'unicodes'
p10
(tsS'width'
p11
I1128
sS'contours'
p12
((dp13
S'points'
p14
((dp15
S'segmentType'
p16
S'line'
p17
sS'x'
F279
sS'smooth'
p18
I00
sS'y'
F666
s(dp19
g16
S'line'
p20
sS'x'
F279
sg18
I00
sS'y'
F568
s(dp21
g16
S'line'
p22
sS'x'
F783
sg18
I00
sS'y'
F568
s(dp23
g16
S'line'
p24
sS'x'
F783
sg18
I00
sS'y'
F666
stp25
s(dp26
g14
((dp27
S'y'
F78
sS'x'
F475
sg18
I00
s(dp28
S'y'
F-22
sS'x'
F636
sg18
I00
s(dp29
g16
S'curve'
p30
sS'x'
F799
sg18
I01
sS'y'
F-22
s(dp31
S'y'
F-22
sS'x'
F954
sg18
I00
s(dp32
S'y'
F64
sS'x'
F1105
sg18
I00
s(dp33
g16
S'curve'
p34
sS'x'
F1105
sg18
I00
sS'y'
F269
s(dp35
g16
S'line'
p36
sS'x'
F982
sg18
I00
sS'y'
F269
s(dp37
S'y'
F144
sS'x'
F982
sg18
I00
s(dp38
S'y'
F85
sS'x'
F897
sg18
I00
s(dp39
g16
S'curve'
p40
sS'x'
F796
sg18
I01
sS'y'
F85
s(dp41
S'y'
F85
sS'x'
F666
sg18
I00
s(dp42
S'y'
F167
sS'x'
F542
sg18
I00
s(dp43
g16
S'curve'
p44
sS'x'
F502
sg18
I00
sS'y'
F268
s(dp45
S'y'
F268
sS'x'
F502
sg18
I00
s(dp46
S'y'
F224
sS'x'
F406
sg18
I00
s(dp47
g16
S'curve'
p48
sS'x'
F406
sg18
I00
sS'y'
F224
stp49
s(dp50
g14
((dp51
S'y'
F307
sS'x'
F435
sg18
I00
s(dp52
S'y'
F169
sS'x'
F389
sg18
I00
s(dp53
g16
S'curve'
p54
sS'x'
F262
sg18
I01
sS'y'
F0
s(dp55
S'y'
F0
sS'x'
F262
sg18
I00
s(dp56
S'y'
F0
sS'x'
F404
sg18
I00
s(dp57
g16
S'curve'
p58
sS'x'
F404
sg18
I01
sS'y'
F0
s(dp59
S'y'
F156
sS'x'
F519
sg18
I00
s(dp60
S'y'
F297
sS'x'
F554
sg18
I00
s(dp61
g16
S'curve'
p62
sS'x'
F554
sg18
I01
sS'y'
F423
s(dp63
S'y'
F600
sS'x'
F554
sg18
I00
s(dp64
S'y'
F801
sS'x'
F446
sg18
I00
s(dp65
g16
S'curve'
p66
sS'x'
F446
sg18
I01
sS'y'
F924
s(dp67
S'y'
F1089
sS'x'
F446
sg18
I00
s(dp68
S'y'
F1166
sS'x'
F581
sg18
I00
s(dp69
g16
S'curve'
p70
sS'x'
F698
sg18
I01
sS'y'
F1166
s(dp71
S'y'
F1166
sS'x'
F824
sg18
I00
s(dp72
S'y'
F1084
sS'x'
F906
sg18
I00
s(dp73
g16
S'curve'
p74
sS'x'
F930
sg18
I00
sS'y'
F1065
s(dp75
g16
S'line'
p76
sS'x'
F991
sg18
I00
sS'y'
F1148
s(dp77
S'y'
F1193
sS'x'
F950
sg18
I00
s(dp78
S'y'
F1274
sS'x'
F839
sg18
I00
s(dp79
g16
S'curve'
p80
sS'x'
F695
sg18
I01
sS'y'
F1274
s(dp81
S'y'
F1274
sS'x'
F520
sg18
I00
s(dp82
S'y'
F1164
sS'x'
F327
sg18
I00
s(dp83
g16
S'curve'
p84
sS'x'
F327
sg18
I01
sS'y'
F920
s(dp85
S'y'
F797
sS'x'
F327
sg18
I00
s(dp86
S'y'
F600
sS'x'
F435
sg18
I00
s(dp87
g16
S'curve'
p88
sS'x'
F435
sg18
I01
sS'y'
F425
stp89
stp90
sS'components'
p91
(tsS'anchors'
p92
(tsss."
LayerCount: 2
Fore
SplineSet
602 -22 m 0
 757 -22 908 64 908 269 c 1
 785 269 l 1
 785 144 700 85 599 85 c 0
 487 85 380 146 326 227 c 1
 349 296 357 361 357 423 c 0
 357 470 349 519 338 568 c 1
 586 568 l 1
 586 666 l 1
 311 666 l 1
 282 764 249 856 249 924 c 0
 249 1089 384 1166 501 1166 c 0
 627 1166 709 1084 733 1065 c 1
 794 1148 l 1
 753 1193 642 1274 498 1274 c 0
 323 1274 130 1164 130 920 c 0
 130 852 163 762 192 666 c 1
 82 666 l 1
 82 568 l 1
 219 568 l 1
 230 520 238 472 238 425 c 0
 238 307 192 169 65 0 c 1
 207 0 l 1
 237 41 261 80 281 119 c 1
 363 32 482 -22 602 -22 c 0
EndSplineSet
EndChar

StartChar: t
Encoding: 84 116 138
Width: 708
VWidth: 0
Flags: HW
PickledData: "(dp1
S'com.typemytype.robofont.layerData'
p2
(dp3
S'back'
p4
(dp5
S'name'
p6
S't'
sS'lib'
p7
(dp8
sS'unicodes'
p9
(tsS'width'
p10
I708
sS'contours'
p11
(tsS'components'
p12
(tsS'anchors'
p13
(tsss."
AnchorPoint: "bot" 444 0 basechar 0
LayerCount: 2
Fore
SplineSet
444 -16 m 0
 557 -16 620 19 653 39 c 1
 653 132 l 1
 622 118 554 81 461 81 c 0
 389 81 328 102 328 208 c 2
 328 726 l 1
 608 726 l 1
 608 824 l 1
 328 824 l 1
 328 997 l 1
 99 747 l 2
 97 745 95 741 95 738 c 0
 95 732 100 726 111 726 c 2
 200 726 l 1
 200 191 l 2
 200 57 311 -16 444 -16 c 0
EndSplineSet
EndChar

StartChar: thorn
Encoding: 186 254 139
Width: 1074
VWidth: 0
Flags: W
PickledData: "(dp1
S'name'
p2
S'd'
sS'com.typemytype.robofont.layerData'
p3
(dp4
S'back'
p5
(dp6
g2
S'thorn'
p7
sS'lib'
p8
(dp9
sS'unicodes'
p10
(tsS'width'
p11
I1074
sS'contours'
p12
(tsS'components'
p13
(tsS'anchors'
p14
(tsssg10
(tsg11
I1113
sg12
(tsg13
(tsg14
(ts."
LayerCount: 2
Fore
SplineSet
165 -417 m 1
 293 -396 l 1
 293 38 l 1
 293 38 388 -16 567 -16 c 0
 820 -16 966 171 966 410 c 0
 966 654 805 839 572 839 c 0
 459 839 363 806 293 745 c 1
 293 1241 l 1
 165 1241 l 1
 165 -417 l 1
544 81 m 0
 404 81 293 128 293 128 c 1
 293 649 l 1
 305 661 411 743 539 743 c 0
 731 743 839 623 839 412 c 0
 839 241 757 81 544 81 c 0
EndSplineSet
EndChar

StartChar: three
Encoding: 19 51 140
Width: 901
VWidth: 0
Flags: W
PickledData: "(dp1
S'com.typemytype.robofont.layerData'
p2
(dp3
S'back'
p4
(dp5
S'name'
p6
S'three'
p7
sS'lib'
p8
(dp9
sS'unicodes'
p10
(tsS'width'
p11
I901
sS'contours'
p12
((dp13
S'points'
p14
((dp15
S'segmentType'
p16
S'curve'
p17
sS'x'
F383
sS'smooth'
p18
I01
sS'y'
F308
s(dp19
S'y'
F308
sS'x'
F701
sg18
I00
s(dp20
S'y'
F521
sS'x'
F901
sg18
I00
s(dp21
g16
S'curve'
p22
sS'x'
F901
sg18
I01
sS'y'
F961
s(dp23
S'y'
F1423
sS'x'
F901
sg18
I00
s(dp24
S'y'
F1616
sS'x'
F707
sg18
I00
s(dp25
g16
S'curve'
p26
sS'x'
F383
sg18
I01
sS'y'
F1616
s(dp27
S'y'
F1616
sS'x'
F59
sg18
I00
s(dp28
S'y'
F1423
sS'x'
F-136
sg18
I00
s(dp29
g16
S'curve'
p30
sS'x'
F-136
sg18
I01
sS'y'
F961
s(dp31
S'y'
F521
sS'x'
F-136
sg18
I00
s(dp32
S'y'
F308
sS'x'
F65
sg18
I00
stp33
s(dp34
g14
((dp35
g16
S'curve'
p36
sS'x'
F383
sg18
I01
sS'y'
F415
s(dp37
S'y'
F415
sS'x'
F140
sg18
I00
s(dp38
S'y'
F564
sS'x'
F-6
sg18
I00
s(dp39
g16
S'curve'
p40
sS'x'
F-6
sg18
I01
sS'y'
F961
s(dp41
S'y'
F1353
sS'x'
F-6
sg18
I00
s(dp42
S'y'
F1509
sS'x'
F140
sg18
I00
s(dp43
g16
S'curve'
p44
sS'x'
F383
sg18
I01
sS'y'
F1509
s(dp45
S'y'
F1509
sS'x'
F626
sg18
I00
s(dp46
S'y'
F1353
sS'x'
F771
sg18
I00
s(dp47
g16
S'curve'
p48
sS'x'
F771
sg18
I01
sS'y'
F961
s(dp49
S'y'
F564
sS'x'
F771
sg18
I00
s(dp50
S'y'
F415
sS'x'
F626
sg18
I00
stp51
stp52
sS'components'
p53
(tsS'anchors'
p54
(tsss."
LayerCount: 2
Fore
SplineSet
409 -33 m 0
 657 -33 797 106 797 304 c 0
 797 486 658 613 508 663 c 1
 632 703 771 799 771 961 c 0
 771 1183 597 1275 418 1275 c 0
 313 1275 195 1242 121 1192 c 1
 161 1097 l 1
 222 1142 323 1173 410 1173 c 0
 529 1173 654 1115 654 962 c 0
 654 808 479 727 297 680 c 1
 297 640 l 1
 586 567 678 455 678 299 c 0
 678 161 567 70 419 70 c 0
 342 70 245 94 151 142 c 1
 121 47 l 1
 204 -3 323 -33 409 -33 c 0
EndSplineSet
EndChar

StartChar: tilde
Encoding: 344 732 142
Width: 899
VWidth: 0
Flags: HW
PickledData: "(dp1
S'com.typemytype.robofont.layerData'
p2
(dp3
S'back'
p4
(dp5
S'name'
p6
S'tilde'
p7
sS'lib'
p8
(dp9
sS'unicodes'
p10
(tsS'width'
p11
I1080
sS'contours'
p12
(tsS'components'
p13
(tsS'anchors'
p14
(tsss."
AnchorPoint: "top" 495.5 0 mark 0
LayerCount: 2
Fore
SplineSet
591 160 m 0
 667 160 741 194 741 352 c 1
 643 352 l 1
 643 281 624 259 579 259 c 0
 515 259 389 366 289 366 c 0
 203 366 140 335 140 174 c 1
 238 174 l 1
 238 234 254 263 294 263 c 0
 378 263 466 160 591 160 c 0
EndSplineSet
EndChar

StartChar: two
Encoding: 18 50 143
Width: 940
VWidth: 0
Flags: W
PickledData: "(dp1
S'com.typemytype.robofont.layerData'
p2
(dp3
S'back'
p4
(dp5
S'name'
p6
S'two'
p7
sS'lib'
p8
(dp9
sS'unicodes'
p10
(tsS'width'
p11
I940
sS'contours'
p12
((dp13
S'points'
p14
((dp15
S'segmentType'
p16
S'curve'
p17
sS'x'
F481
sS'smooth'
p18
I01
sS'y'
F-34
s(dp19
S'y'
F-34
sS'x'
F799
sg18
I00
s(dp20
S'y'
F179
sS'x'
F999
sg18
I00
s(dp21
g16
S'curve'
p22
sS'x'
F999
sg18
I01
sS'y'
F619
s(dp23
S'y'
F1081
sS'x'
F999
sg18
I00
s(dp24
S'y'
F1274
sS'x'
F805
sg18
I00
s(dp25
g16
S'curve'
p26
sS'x'
F481
sg18
I01
sS'y'
F1274
s(dp27
S'y'
F1274
sS'x'
F157
sg18
I00
s(dp28
S'y'
F1081
sS'x'
F-38
sg18
I00
s(dp29
g16
S'curve'
p30
sS'x'
F-38
sg18
I01
sS'y'
F619
s(dp31
S'y'
F179
sS'x'
F-38
sg18
I00
s(dp32
S'y'
F-34
sS'x'
F163
sg18
I00
stp33
s(dp34
g14
((dp35
g16
S'curve'
p36
sS'x'
F481
sg18
I01
sS'y'
F73
s(dp37
S'y'
F73
sS'x'
F238
sg18
I00
s(dp38
S'y'
F222
sS'x'
F92
sg18
I00
s(dp39
g16
S'curve'
p40
sS'x'
F92
sg18
I01
sS'y'
F619
s(dp41
S'y'
F1011
sS'x'
F92
sg18
I00
s(dp42
S'y'
F1167
sS'x'
F238
sg18
I00
s(dp43
g16
S'curve'
p44
sS'x'
F481
sg18
I01
sS'y'
F1167
s(dp45
S'y'
F1167
sS'x'
F724
sg18
I00
s(dp46
S'y'
F1011
sS'x'
F869
sg18
I00
s(dp47
g16
S'curve'
p48
sS'x'
F869
sg18
I01
sS'y'
F619
s(dp49
S'y'
F222
sS'x'
F869
sg18
I00
s(dp50
S'y'
F73
sS'x'
F724
sg18
I00
stp51
stp52
sS'components'
p53
(tsS'anchors'
p54
(tsss."
LayerCount: 2
Fore
SplineSet
94 0 m 1
 835 0 l 1
 835 106 l 1
 319 106 l 1
 626 503 l 2
 741 652 823 763 823 920 c 0
 823 1136 674 1274 473 1274 c 0
 335 1274 197 1214 135 1160 c 1
 185 1058 l 1
 234 1101 353 1167 469 1167 c 0
 592 1167 698 1090 698 935 c 0
 698 795.871 624.094 701.101 538 587 c 2
 94 0 l 1
EndSplineSet
EndChar

StartChar: u
Encoding: 85 117 145
Width: 1106
VWidth: 0
Flags: HW
PickledData: "(dp1
S'com.typemytype.robofont.layerData'
p2
(dp3
S'back'
p4
(dp5
S'name'
p6
S'u'
sS'lib'
p7
(dp8
sS'unicodes'
p9
(tsS'width'
p10
I1106
sS'contours'
p11
(tsS'components'
p12
(tsS'anchors'
p13
(tsss."
AnchorPoint: "bot" 872 0 basechar 0
AnchorPoint: "top" 554 840 basechar 0
LayerCount: 2
Fore
SplineSet
464 -16 m 0
 705 -16 816 130 816 130 c 1
 816 0 l 1
 941 0 l 1
 941 824 l 1
 813 824 l 1
 813 229 l 1
 813 229 691 82 502 82 c 0
 356 82 277 134 277 265 c 2
 277 824 l 1
 149 824 l 1
 149 244 l 2
 149 92 289 -16 464 -16 c 0
EndSplineSet
EndChar

StartChar: underscore
Encoding: 63 95 148
Width: 980
VWidth: 0
Flags: HW
PickledData: "(dp1
S'com.typemytype.robofont.layerData'
p2
(dp3
S'back'
p4
(dp5
S'name'
p6
S'underscore'
p7
sS'lib'
p8
(dp9
sS'unicodes'
p10
(tsS'width'
p11
I1009
sS'contours'
p12
(tsS'components'
p13
(tsS'anchors'
p14
(tsss."
LayerCount: 2
Fore
SplineSet
153 -93 m 1
 826 -93 l 1
 826 0 l 1
 153 0 l 1
 153 -93 l 1
EndSplineSet
EndChar

StartChar: v
Encoding: 86 118 149
Width: 912
VWidth: 0
Flags: W
PickledData: "(dp1
S'com.typemytype.robofont.guides'
p2
((dp3
S'angle'
p4
F90
sS'name'
p5
NsS'magnetic'
p6
I5
sS'isGlobal'
p7
I00
sS'y'
I147
sS'x'
I529
stp8
sS'com.typemytype.robofont.layerData'
p9
(dp10
S'back'
p11
(dp12
g5
S'v'
sS'lib'
p13
(dp14
sS'unicodes'
p15
(tsS'width'
p16
I912
sS'contours'
p17
(tsS'components'
p18
(tsS'anchors'
p19
(tsss."
LayerCount: 2
Fore
SplineSet
462 -32 m 1
 864 824 l 1
 737 824 l 1
 463 207 l 1
 178 824 l 1
 48 824 l 1
 462 -32 l 1
EndSplineSet
EndChar

StartChar: w
Encoding: 87 119 150
Width: 1267
VWidth: 0
Flags: HW
PickledData: "(dp1
S'com.typemytype.robofont.layerData'
p2
(dp3
S'back'
p4
(dp5
S'name'
p6
S'w'
sS'lib'
p7
(dp8
sS'unicodes'
p9
(tsS'width'
p10
I1267
sS'contours'
p11
(tsS'components'
p12
(tsS'anchors'
p13
(tsss."
AnchorPoint: "top" 636 840 basechar 0
LayerCount: 2
Fore
SplineSet
903 -19 m 1
 1224 824 l 1
 1105 824 l 1
 899 249 l 1
 636 847 l 1
 380 252 l 1
 161 824 l 1
 43 824 l 1
 370 -19 l 1
 639 601 l 1
 903 -19 l 1
EndSplineSet
EndChar

StartChar: x
Encoding: 88 120 151
Width: 967
VWidth: 0
Flags: W
PickledData: "(dp1
S'com.typemytype.robofont.layerData'
p2
(dp3
S'back'
p4
(dp5
S'name'
p6
S'x'
sS'lib'
p7
(dp8
sS'unicodes'
p9
(tsS'width'
p10
I967
sS'contours'
p11
(tsS'components'
p12
(tsS'anchors'
p13
(tsss."
LayerCount: 2
Fore
SplineSet
53 0 m 1
 198 0 l 1
 484 352 l 1
 783 0 l 1
 914 0 l 1
 558 414 l 1
 906 824 l 1
 756 824 l 1
 480 488 l 1
 188 824 l 1
 54 824 l 1
 408 425 l 1
 53 0 l 1
EndSplineSet
EndChar

StartChar: y
Encoding: 89 121 152
Width: 923
VWidth: 0
Flags: HW
PickledData: "(dp1
S'com.typemytype.robofont.layerData'
p2
(dp3
S'back'
p4
(dp5
S'name'
p6
S'y'
sS'lib'
p7
(dp8
sS'unicodes'
p9
(tsS'width'
p10
I923
sS'contours'
p11
(tsS'components'
p12
(tsS'anchors'
p13
(tsss."
AnchorPoint: "top" 465 840 basechar 0
LayerCount: 2
Fore
SplineSet
190 -244 m 1
 326 -244 l 1
 892 824 l 1
 760 824 l 1
 487 300 l 1
 165 824 l 1
 29 824 l 1
 421 205 l 1
 190 -244 l 1
EndSplineSet
EndChar

StartChar: yen
Encoding: 100 165 153
Width: 1214
VWidth: 0
Flags: HW
PickledData: "(dp1
S'com.typemytype.robofont.layerData'
p2
(dp3
S'back'
p4
(dp5
S'name'
p6
S'yen'
p7
sS'lib'
p8
(dp9
sS'unicodes'
p10
(tsS'width'
p11
I1259
sS'contours'
p12
((dp13
S'points'
p14
((dp15
S'segmentType'
p16
S'line'
p17
sS'x'
F310
sS'smooth'
p18
I00
sS'y'
F647
s(dp19
g16
S'line'
p20
sS'x'
F507
sg18
I00
sS'y'
F647
s(dp21
g16
S'line'
p22
sS'x'
F507
sg18
I00
sS'y'
F740
s(dp23
g16
S'line'
p24
sS'x'
F310
sg18
I00
sS'y'
F740
stp25
stp26
sS'components'
p27
(tsS'anchors'
p28
(tsss."
LayerCount: 2
Fore
SplineSet
549 0 m 1
 677 0 l 1
 677 437 l 1
 929 437 l 1
 929 530 l 1
 707 530 l 1
 770 647 l 1
 969 647 l 1
 969 740 l 1
 820 740 l 1
 1091 1241 l 1
 955 1241 l 1
 615 592 l 1
 251 1241 l 1
 122 1241 l 1
 403 740 l 1
 249 740 l 1
 249 647 l 1
 455 647 l 1
 520 530 l 1
 289 530 l 1
 289 437 l 1
 549 437 l 1
 549 0 l 1
EndSplineSet
EndChar

StartChar: z
Encoding: 90 122 154
Width: 860
VWidth: 0
Flags: HW
PickledData: "(dp1
S'com.typemytype.robofont.layerData'
p2
(dp3
S'back'
p4
(dp5
S'name'
p6
S'z'
sS'lib'
p7
(dp8
sS'unicodes'
p9
(tsS'width'
p10
I860
sS'contours'
p11
(tsS'components'
p12
(tsS'anchors'
p13
(tsss."
AnchorPoint: "bot" 452 0 basechar 0
AnchorPoint: "top" 465 840 basechar 0
LayerCount: 2
Fore
SplineSet
97 0 m 1
 756 0 l 1
 756 98 l 1
 298 98 l 1
 784 824 l 1
 140.047 824 l 1
 140 726 l 1
 592 726 l 1
 97 0 l 1
EndSplineSet
EndChar

StartChar: zero
Encoding: 16 48 155
Width: 1239
VWidth: 0
Flags: W
PickledData: "(dp1
S'com.typemytype.robofont.guides'
p2
((dp3
S'angle'
p4
F90
sS'name'
p5
NsS'magnetic'
p6
I5
sS'isGlobal'
p7
I00
sS'y'
I1213
sS'x'
I620
s(dp8
g4
I0
sg5
Nsg6
I5
sg7
I00
sS'y'
I619
sS'x'
I158
stp9
sS'com.typemytype.robofont.layerData'
p10
(dp11
S'back'
p12
(dp13
g5
S'zero'
p14
sS'lib'
p15
(dp16
sS'unicodes'
p17
(tsS'width'
p18
I1239
sS'contours'
p19
((dp20
S'points'
p21
((dp22
S'segmentType'
p23
S'curve'
p24
sS'x'
F471
sS'smooth'
p25
I01
sS'y'
F-38
s(dp26
S'y'
F-38
sS'x'
F809
sg25
I00
s(dp27
S'y'
F178
sS'x'
F1138
sg25
I00
s(dp28
g23
S'curve'
p29
sS'x'
F1138
sg25
I01
sS'y'
F619
s(dp30
S'y'
F1054
sS'x'
F1138
sg25
I00
s(dp31
S'y'
F1270
sS'x'
F809
sg25
I00
s(dp32
g23
S'curve'
p33
sS'x'
F470
sg25
I01
sS'y'
F1270
s(dp34
S'y'
F1270
sS'x'
F133
sg25
I00
s(dp35
S'y'
F1054
sS'x'
F-195
sg25
I00
s(dp36
g23
S'curve'
p37
sS'x'
F-195
sg25
I01
sS'y'
F615
s(dp38
S'y'
F178
sS'x'
F-195
sg25
I00
s(dp39
S'y'
F-38
sS'x'
F133
sg25
I00
stp40
s(dp41
g21
((dp42
g23
S'curve'
p43
sS'x'
F470
sg25
I01
sS'y'
F1164
s(dp44
S'y'
F1164
sS'x'
F755
sg25
I00
s(dp45
S'y'
F990
sS'x'
F1008
sg25
I00
s(dp46
g23
S'curve'
p47
sS'x'
F1008
sg25
I01
sS'y'
F614
s(dp48
S'y'
F242
sS'x'
F1008
sg25
I00
s(dp49
S'y'
F68
sS'x'
F728
sg25
I00
s(dp50
g23
S'curve'
p51
sS'x'
F470
sg25
I01
sS'y'
F68
s(dp52
S'y'
F68
sS'x'
F196
sg25
I00
s(dp53
S'y'
F241
sS'x'
F-65
sg25
I00
s(dp54
g23
S'curve'
p55
sS'x'
F-65
sg25
I01
sS'y'
F615
s(dp56
S'y'
F990
sS'x'
F-65
sg25
I00
s(dp57
S'y'
F1164
sS'x'
F183
sg25
I00
stp58
stp59
sS'components'
p60
(tsS'anchors'
p61
(tsss."
LayerCount: 2
Fore
SplineSet
620 73 m 0
 377 73 231 222 231 619 c 0
 231 1011 377 1167 620 1167 c 0
 863 1167 1008 1011 1008 619 c 0
 1008 222 863 73 620 73 c 0
620 -34 m 0
 938 -34 1138 179 1138 619 c 0
 1138 1081 944 1274 620 1274 c 0
 296 1274 101 1081 101 619 c 0
 101 179 302 -34 620 -34 c 0
EndSplineSet
EndChar

StartChar: quotesingle
Encoding: 7 39 196
Width: 421
VWidth: 0
Flags: HW
LayerCount: 2
Fore
SplineSet
187 750 m 1
 235 750 l 1
 279 1241 l 1
 143 1241 l 1
 187 750 l 1
EndSplineSet
EndChar

StartChar: kgreenlandic
Encoding: 238 312 338
Width: 888
VWidth: 0
Flags: HW
LayerCount: 2
Fore
SplineSet
165 -1 m 1
 293 -1 l 1
 293 392 l 5
 728 0 l 1
 891 0 l 1
 432 418 l 1
 831 823 l 1
 673 823 l 1
 293 437 l 1
 293 823 l 1
 165 823 l 1
 165 -1 l 1
EndSplineSet
EndChar

StartChar: OE
Encoding: 258 338 339
Width: 2078
VWidth: 0
Flags: HW
LayerCount: 2
Fore
SplineSet
1303 0 m 1
 2033 0 l 1
 2033 106 l 1
 1429 106 l 1
 1429 588 l 1
 1960 588 l 1
 1960 694 l 1
 1431 694 l 1
 1431 1135 l 1
 2023 1135 l 1
 2023 1241 l 1
 1303 1241 l 1
 1303 1017.99 l 1
 1181.09 1188.91 977.771 1274 765 1274 c 0
 428 1274 100 1058 100 619 c 0
 100 182 428 -34 766 -34 c 0
 978.114 -34 1181.17 51.0663 1303 223.423 c 1
 1303 0 l 1
765 72 m 0
 491 72 230 245 230 619 c 0
 230 994 478 1168 765 1168 c 0
 1050 1168 1303 994 1303 618 c 0
 1303 246 1023 72 765 72 c 0
EndSplineSet
EndChar

StartChar: oe
Encoding: 259 339 340
Width: 1719
VWidth: 0
Flags: HW
LayerCount: 2
Fore
SplineSet
1002 474 m 1
 1010 542 1062 742 1280 742 c 0
 1434 742 1512 614 1521 474 c 1
 1002 474 l 1
1326 -15 m 0
 1455 -15 1531 18 1598 57 c 1
 1598 159 l 1
 1537 126 1465 81 1323 81 c 0
 1151 81 1009 170 994 388 c 1
 1629 388 l 1
 1629 409 l 2
 1629 633 1521 840 1265 840 c 0
 1120.74 840 995.207 763.721 927.74 641.254 c 1
 844.529 769.87 699.031 840 554 840 c 0
 321 840 108 682 108 408 c 0
 108 138 320 -16 552 -16 c 0
 709.67 -16 854.181 54.9766 933.729 184.226 c 1
 1010.31 51.207 1154.87 -15 1326 -15 c 0
553 81 m 0
 337 81 227 230 227 410 c 0
 227 576 341 742 553 742 c 0
 765 742 875 575 875 409 c 0
 875 244 769 81 553 81 c 0
EndSplineSet
EndChar

StartChar: guilsinglleft
Encoding: 367 8249 368
Width: 482
VWidth: 0
Flags: HW
LayerCount: 2
Fore
SplineSet
393 197 m 0
 409 197 420 208 420 221 c 0
 420 229 413 237 404 248 c 1
 233 497 l 1
 404 747 l 1
 413 758 420 766 420 774 c 0
 420 787 409 798 393 798 c 0
 388 798 381 797 373 793 c 1
 119 577 l 1
 86 555 69 526 69 497 c 0
 69 469 85 440 119 418 c 1
 373 202 l 1
 381 198 388 197 393 197 c 0
EndSplineSet
EndChar

StartChar: guilsinglright
Encoding: 368 8250 369
Width: 499
VWidth: 0
Flags: HW
LayerCount: 2
Fore
SplineSet
71 798 m 0
 55 798 44 787 44 774 c 0
 44 766 51 758 60 747 c 1
 231 498 l 1
 60 248 l 1
 51 237 44 229 44 221 c 0
 44 208 55 197 71 197 c 0
 76 197 83 198 91 202 c 1
 345 418 l 1
 378 440 395 469 395 498 c 0
 395 526 379 555 345 577 c 1
 91 793 l 1
 83 797 76 798 71 798 c 0
EndSplineSet
EndChar

StartChar: uniFB00
Encoding: 376 64256 372
Width: 1202
VWidth: 0
Flags: H
LayerCount: 2
Fore
SplineSet
811 0 m 1
 939 0 l 1
 939 723 l 1
 1123 723 l 1
 1123 824 l 1
 936 824 l 1
 936 891 l 2
 936 1056 1008 1105 1098 1105 c 0
 1138 1105 1174 1095 1221 1082 c 1
 1221 1184 l 1
 1167 1200 1120 1208 1076 1208 c 0
 898 1208 808 1081 808 891 c 2
 808 824 l 1
 335 824 l 1
 335 891 l 2
 335 1056 407 1105 497 1105 c 0
 537 1105 573 1095 620 1082 c 1
 620 1184 l 1
 566 1200 519 1208 475 1208 c 0
 297 1208 207 1081 207 891 c 2
 207 824 l 1
 92 824 l 1
 92 723 l 1
 210 723 l 1
 210 0 l 1
 338 0 l 1
 338 723 l 1
 811 723 l 1
 811 0 l 1
EndSplineSet
EndChar

StartChar: uniFB01
Encoding: 374 64257 373
Width: 1109
VWidth: 0
Flags: H
LayerCount: 2
Fore
SplineSet
794 0 m 1
 922 0 l 1
 922 824 l 1
 335 824 l 1
 335 891 l 2
 335 1056 407 1105 497 1105 c 0
 537 1105 573 1095 620 1082 c 1
 620 1184 l 1
 566 1200 519 1208 475 1208 c 0
 297 1208 207 1081 207 891 c 2
 207 824 l 1
 92 824 l 1
 92 723 l 1
 210 723 l 1
 210 0 l 1
 338 0 l 1
 338 723 l 1
 794 723 l 1
 794 0 l 1
856 1064 m 0
 913 1064 944 1108 944 1152 c 0
 944 1194 913 1240 856 1240 c 0
 797 1240 766 1195 766 1152 c 0
 766 1108 797 1064 856 1064 c 0
EndSplineSet
EndChar

StartChar: uniFB02
Encoding: 375 64258 374
Width: 1198
VWidth: 0
Flags: H
LayerCount: 2
Fore
SplineSet
984 -16 m 0
 1063 -16 1110 1 1143 14 c 1
 1143 105 l 1
 1119 98 1060 81 1003 81 c 0
 924 81 894 124 894 246 c 0
 894.2 1179 l 1
 700.2 1207.6 533 1208 489 1208 c 0
 311 1208 207 1081 207 891 c 2
 207 824 l 1
 92 824 l 1
 92 723 l 1
 210 723 l 1
 210 0 l 1
 338 0 l 1
 338 723 l 1
 522 723 l 1
 522 824 l 1
 335 824 l 1
 335 891 l 2
 335 1056 421 1105 511 1105 c 0
 536.259 1105 663.68 1099.02 766 1091.34 c 1
 766 218 l 2
 766 60 859 -16 984 -16 c 0
EndSplineSet
EndChar

StartChar: Lslash
Encoding: 244 321 378
Width: 1009
VWidth: 0
Flags: HW
LayerCount: 2
Fore
SplineSet
0 483 m 5
 610 747 l 5
 610 840 l 5
 0 576 l 5
 0 483 l 5
EndSplineSet
Refer: 21 76 N 1 0 0 1 0 0 3
EndChar

StartChar: lslash
Encoding: 245 322 379
Width: 597
VWidth: 0
Flags: HW
LayerCount: 2
Fore
SplineSet
20 483 m 1
 507 747 l 1
 507 840 l 1
 20 576 l 1
 20 483 l 1
EndSplineSet
Refer: 92 108 N 1 0 0 1 0 0 2
EndChar

StartChar: uni0237
Encoding: 337 567 382
Width: 529
VWidth: 0
Flags: H
AnchorPoint: "top" 286 840 basechar 0
LayerCount: 2
Fore
SplineSet
46 -326 m 1
 312 -312 348 -182 348 -79 c 2
 348 824 l 1
 220 824 l 1
 220 -76 l 2
 220 -178 145 -213 49 -221 c 0
 41 -222 33 -222 24 -223 c 1
 46 -326 l 1
EndSplineSet
EndChar

StartChar: uni0311
Encoding: 347 785 383
Width: 727
VWidth: 0
Flags: HW
AnchorPoint: "top" 361.5 0 mark 0
LayerCount: 2
Fore
SplineSet
362 346 m 4
 560 346 582 166 582 166 c 5
 504 148 l 5
 504 148 480 259 362 259 c 4
 244 259 220 148 220 148 c 5
 142 166 l 5
 142 166 164 346 362 346 c 4
EndSplineSet
EndChar

StartChar: integral
Encoding: 373 8747 384
Width: 875
VWidth: 0
Flags: HW
LayerCount: 2
Fore
SplineSet
542 891 m 2
 556 1056 612 1105 702 1105 c 0
 742 1105 756 1098 802 1085 c 1
 811 1187 l 1
 758 1203 733 1208 689 1208 c 0
 511 1208 431 1081 414 891 c 2
 336 0 l 2
 323 -165 266 -214 176 -214 c 0
 136 -214 122 -207 76 -194 c 1
 67 -296 l 1
 120 -312 145 -317 189 -317 c 0
 367 -317 448 -190 464 0 c 2
 542 891 l 2
EndSplineSet
EndChar

StartChar: dagger
Encoding: 392 8224 386
Width: 913
VWidth: 0
Flags: HW
LayerCount: 2
Fore
SplineSet
409 0 m 1
 502 0 l 1
 502 647 l 1
 761 647 l 1
 761 740 l 1
 502 740 l 1
 502 999 l 1
 409 999 l 1
 409 740 l 1
 151 740 l 1
 151 647 l 1
 409 647 l 1
 409 0 l 1
EndSplineSet
EndChar

StartChar: daggerdbl
Encoding: 365 8225 387
Width: 913
VWidth: 0
Flags: HW
LayerCount: 2
Fore
SplineSet
409 0 m 1
 502 0 l 1
 502 240 l 1
 761 240 l 1
 761 333 l 1
 502 333 l 1
 502 647 l 1
 761 647 l 1
 761 740 l 1
 502 740 l 1
 502 999 l 1
 409 999 l 1
 409 740 l 1
 151 740 l 1
 151 647 l 1
 409 647 l 1
 409 333 l 1
 151 333 l 1
 151 240 l 1
 409 240 l 1
 409 0 l 1
EndSplineSet
EndChar

StartChar: Euro
Encoding: 370 8364 388
Width: 1283
VWidth: 0
Flags: HW
LayerCount: 2
Back
SplineSet
-119.9 441 m 5
 571.1 441 l 5
 571.1 534 l 5
 -119.9 534 l 5
 -119.9 441 l 5
-119.9 681 m 5
 571.1 681 l 5
 571.1 774 l 5
 -119.9 774 l 5
 -119.9 681 l 5
655 -34 m 4
 827 -34 954 24 1023 57 c 5
 1023 170 l 5
 913 114 789 72 664 72 c 4
 334 72 117 293 117 645 c 4
 117 999 325 1168 646 1168 c 4
 792 1168 912 1121 1023 1064 c 5
 1023 1169 l 5
 958 1208 818 1274 646 1274 c 4
 256 1274 -12 1053 -12 645 c 4
 -12 239 259 -34 655 -34 c 4
EndSplineSet
Fore
SplineSet
1210.9 57 m 1
 1210.9 170 l 1
 1087.47 104.091 960.725 72.0791 842.596 72.0791 c 0
 606.385 72.0791 404.645 200.077 332.872 441 c 1
 759 441 l 1
 759 534 l 1
 312.607 534 l 1
 307.541 569.107 304.9 606.119 304.9 645 c 0
 304.9 657.227 305.186 669.227 305.748 681 c 1
 759 681 l 1
 759 774 l 1
 316.67 774 l 1
 368.843 1043.94 587.288 1167.72 827.443 1167.72 c 0
 956.469 1167.72 1091.76 1131.99 1210.9 1064 c 1
 1210.9 1169 l 1
 1086 1240.81 951.204 1274.75 821.496 1274.75 c 0
 519.984 1274.75 245.939 1091.37 187.396 774 c 1
 68 774 l 1
 68 681 l 1
 176.755 681 l 1
 176.188 669.154 175.9 657.153 175.9 645 c 0
 175.9 606.612 178.469 569.589 183.409 534 c 1
 68 534 l 1
 68 441 l 1
 202.489 441 l 1
 284.732 142.325 547.357 -33.1611 843.567 -33.1611 c 0
 963.751 -33.1611 1089.46 -4.27148 1210.9 57 c 1
EndSplineSet
EndChar

StartChar: lozenge
Encoding: 398 9674 389
Width: 900
VWidth: 0
Flags: HW
LayerCount: 2
Fore
SplineSet
775.8 659.2 m 1
 444.6 1344 l 1
 123 659.2 l 1
 454.199 -25.5996 l 1
 775.8 659.2 l 1
674.199 659.2 m 1
 455 165.6 l 1
 224.6 659.2 l 1
 443.8 1152.8 l 1
 674.199 659.2 l 1
EndSplineSet
EndChar

StartChar: bullet
Encoding: 366 8226 390
Width: 727
VWidth: 0
Flags: HW
LayerCount: 2
Fore
SplineSet
581.4 617.385 m 4
 581.4 765.199 471.837 839.663 362.632 839.663 c 4
 254.14 839.663 146 766.167 146 618.085 c 4
 146 469.13 252.857 396.8 360.697 396.8 c 4
 470.539 396.8 581.4 471.841 581.4 617.385 c 4
EndSplineSet
EndChar

StartChar: section
Encoding: 102 167 391
Width: 858
VWidth: 0
Flags: HW
LayerCount: 2
Fore
SplineSet
150 1064.4 m 0
 150 994.032 181.581 921.228 302.499 858.55 c 1
 199.001 829.801 150 762.451 150 684.4 c 0
 150 616.4 177 544.4 297 481.4 c 2
 515 368.4 l 2
 586 331.4 610 297.4 610 247.4 c 0
 610 180.4 556 134.4 470 134.4 c 0
 380 134.4 235 168.4 140 227.4 c 1
 126 128.4 l 1
 174 97.4004 301 37.4004 472 37.4004 c 0
 655 37.4004 727 147.4 727 251.4 c 0
 727 314.783 699.425 386.725 590.496 446.824 c 1
 686.901 479.518 727 553.788 727 631.4 c 0
 727 696.4 698 770.4 582 831.4 c 2
 361 947.4 l 2
 294 982.4 268 1011.4 268 1069.4 c 0
 268 1129.4 328 1176.4 430 1176.4 c 0
 530 1176.4 606 1143.4 664 1121.4 c 1
 690 1212.4 l 1
 640 1235.4 545 1273.4 424 1273.4 c 0
 237 1273.4 150 1168.4 150 1064.4 c 0
422.562 796.315 m 1
 515 748.4 l 2
 586 711.4 610 677.4 610 627.4 c 0
 610 562.233 558.914 509.365 476.986 506.521 c 1
 361 567.4 l 2
 294 602.4 268 631.4 268 689.4 c 0
 268 747.927 325.089 794.084 422.562 796.315 c 1
EndSplineSet
EndChar

StartChar: copyright
Encoding: 104 169 392
Width: 1525
VWidth: 0
Flags: HW
LayerCount: 2
Back
SplineSet
765 -5 m 4
 449 -5 147 187.2 147 619 c 4
 147 1044.2 434 1245 765 1245 c 4
 1094 1245 1386 1052 1386 618 c 4
 1386 188 1063 -5 765 -5 c 4
766 -99 m 4
 1138 -99 1500 138 1500 623 c 4
 1500 1101 1138 1339 765 1339 c 4
 394 1339 33 1102 33 619 c 4
 33 138 394 -99 766 -99 c 4
1099 1019.19 m 5
 988.612 1089.5 888.477 1125.79 769.632 1125.79 c 4
 450.88 1125.79 275.709 874.086 275.709 622.584 c 4
 275.709 370.607 451.475 117.951 770.515 117.951 c 4
 893.51 117.951 995.148 155.291 1099 223.848 c 5
 1099 326.473 l 5
 993.962 256.458 889.191 212.656 766.982 212.656 c 4
 524.253 212.656 387.47 414.836 387.47 618.825 c 4
 387.47 825.026 526.923 1031.7 777.44 1031.7 c 4
 896.487 1031.7 997.366 990.127 1099 923.601 c 5
 1099 1019.19 l 5
EndSplineSet
Fore
SplineSet
765 -5 m 0
 449 -5 147 187.2 147 619 c 0
 147 1044.2 434 1245 765 1245 c 0
 1094 1245 1386 1052 1386 618 c 0
 1386 188 1063 -5 765 -5 c 0
766 -99 m 0
 1138 -99 1500 138 1500 623 c 0
 1500 1101 1138 1339 765 1339 c 0
 394 1339 33 1102 33 619 c 0
 33 138 394 -99 766 -99 c 0
790.445 1113.73 m 0
 494.487 1113.73 274.709 919.322 274.709 622.584 c 0
 274.709 330.776 499.684 134.539 774.826 134.539 c 0
 878.691 134.539 989.848 162.503 1099 223.848 c 1
 1099 326.473 l 1
 997.993 259.145 885.113 225.802 779.55 225.802 c 0
 568.951 225.802 390.47 358.509 390.47 618.825 c 0
 390.47 878.498 576.13 1021.65 792.534 1021.65 c 0
 894.26 1021.65 999.778 989.681 1099 925.601 c 1
 1099 1023.19 l 1
 997.905 1083.64 891.695 1113.73 790.445 1113.73 c 0
EndSplineSet
EndChar

StartChar: registered
Encoding: 109 174 393
Width: 1525
VWidth: 0
Flags: HW
LayerCount: 2
Fore
SplineSet
765 -5 m 0
 449 -5 147 187.2 147 619 c 0
 147 1044.2 434 1245 765 1245 c 0
 1094 1245 1386 1052 1386 618 c 0
 1386 188 1063 -5 765 -5 c 0
766 -99 m 0
 1138 -99 1500 138 1500 623 c 0
 1500 1101 1138 1339 765 1339 c 0
 394 1339 33 1102 33 619 c 0
 33 138 394 -99 766 -99 c 0
790.445 1113.73 m 0
 494.487 1113.73 274.709 919.322 274.709 622.584 c 0
 274.709 330.776 499.684 134.539 774.826 134.539 c 0
 878.691 134.539 989.848 162.503 1099 223.848 c 1
 1099 326.473 l 1
 997.993 259.145 885.113 225.802 779.55 225.802 c 0
 568.951 225.802 390.47 358.509 390.47 618.825 c 0
 390.47 878.498 576.13 1021.65 792.534 1021.65 c 0
 894.26 1021.65 999.778 989.681 1099 925.601 c 1
 1099 1023.19 l 1
 997.905 1083.64 891.695 1113.73 790.445 1113.73 c 0
EndSplineSet
EndChar

StartChar: braceleft
Encoding: 91 123 395
Width: 605
VWidth: 0
Flags: HW
LayerCount: 2
Fore
SplineSet
323 365 m 2
 323 540 271 582 196 613 c 1
 271 639 323 687 323 862 c 2
 323 971 l 2
 323 1133 363 1188 465 1188 c 2
 534 1188 l 1
 534 1274 l 1
 448 1274 l 2
 277 1274 203 1190 203 990 c 2
 203 862 l 2
 203 699 151 657 62 656 c 1
 62 572 l 1
 152 571 203 527 203 365 c 2
 203 238 l 2
 203 38 277 -46 448 -46 c 2
 534 -46 l 1
 534 40 l 1
 465 40 l 2
 363 40 323 94 323 256 c 2
 323 365 l 2
EndSplineSet
EndChar

StartChar: braceright
Encoding: 93 125 396
Width: 605
VWidth: 0
Flags: HW
LayerCount: 2
Fore
SplineSet
283 365 m 2
 283 540 335 582 410 613 c 1
 335 639 283 687 283 862 c 2
 283 971 l 2
 283 1133 243 1188 141 1188 c 2
 72 1188 l 1
 72 1274 l 1
 158 1274 l 2
 329 1274 403 1190 403 990 c 2
 403 862 l 2
 403 699 455 657 544 656 c 1
 544 572 l 1
 454 571 403 527 403 365 c 2
 403 238 l 2
 403 38 329 -46 158 -46 c 2
 72 -46 l 1
 72 40 l 1
 141 40 l 2
 243 40 283 94 283 256 c 2
 283 365 l 2
EndSplineSet
EndChar

StartChar: perthousand
Encoding: 400 8240 399
Width: 2049
VWidth: 0
Flags: HW
LayerCount: 2
Fore
SplineSet
299.29 0 m 1
 380.29 0 l 1
 1101.29 1241 l 1
 1018.29 1241 l 1
 299.29 0 l 1
EndSplineSet
Refer: 104 111 N 0.599168 0 0 0.599168 1368.29 11 2
Refer: 104 111 N 0.599168 0 0 0.599168 732.29 11 2
Refer: 104 111 N 0.599168 0 0 0.599168 5.29004 737 2
EndChar

StartChar: florin
Encoding: 394 402 403
Width: 875
VWidth: 0
Flags: HW
LayerCount: 2
Fore
SplineSet
518.728 648 m 1
 540 891 l 2
 554 1056 610 1105 700 1105 c 0
 740 1105 754 1098 800 1085 c 1
 809 1187 l 1
 756 1203 731 1208 687 1208 c 0
 509 1208 429 1081 412 891 c 2
 390.728 648 l 1
 161 648 l 1
 161 555 l 1
 382.586 555 l 1
 334 0 l 1
 321 -165 264 -214 174 -214 c 0
 134 -214 120 -207 74 -194 c 1
 65 -296 l 1
 118 -312 143 -317 187 -317 c 0
 365 -317 446 -190 462 0 c 2
 510.586 555 l 1
 771 555 l 1
 771 648 l 1
 518.728 648 l 1
EndSplineSet
EndChar

StartChar: asciitilde
Encoding: 94 126 405
Width: 984
VWidth: 0
Flags: HW
LayerCount: 2
Fore
SplineSet
307 840 m 0
 432 840 590 734 674 734 c 0
 714 734 750 766 750 826 c 1
 848 826 l 1
 848 665 765 618 679 618 c 0
 579 618 383 728 319 728 c 0
 274 728 235 703 235 632 c 1
 137 632 l 1
 137 790 231 840 307 840 c 0
EndSplineSet
EndChar

StartChar: uni0326
Encoding: 348 806 407
Width: 442
VWidth: 0
Flags: HW
AnchorPoint: "bot" 359 -2.59998 mark 0
LayerCount: 2
Fore
SplineSet
331 -89.0996 m 2
 151 -302.1 l 2
 139.603 -315.725 134.795 -329.387 134.795 -342.003 c 0
 134.795 -374.544 166.784 -400.12 200.191 -400.12 c 0
 222.038 -400.12 244.491 -389.182 259 -362.1 c 1
 366 -112.1 l 2
 368.345 -106.622 369.373 -101.672 369.373 -97.3535 c 0
 369.373 -85.3184 361.387 -78.1855 351.64 -78.1855 c 0
 344.916 -78.1855 337.355 -81.5791 331 -89.0996 c 2
EndSplineSet
EndChar

StartChar: uni00AD
Encoding: 108 173 408
Width: 899
VWidth: 0
Flags: HW
LayerCount: 2
Fore
SplineSet
746 824 m 1
 153 824 l 1
 153 731 l 1
 745.5 731 l 1
 746 824 l 1
EndSplineSet
EndChar
